{
.appVersion = "3436";
.formatVersion = 3;
DisplayStrings = (
"
Johanes Gutenbergs
ALFIE BOB CHART DAZED ECHO FIX GOLF HOPE INDIA JOKER KICK LIMA MICK NOVEMBER: OSCILLATE PAPER QUEBEC ROMANIA SIERRA TAMARINA UNITED VITALITY WHISKY X-RATED YOUTH ZANZIBAR! SINCE 1927 WEVE SEEN 328 PRESTIGE PICTURES 65 NON. Alpha Babs Charlie Dazed Echo Foxtrot Golf Hotel India Jojo Kick Lima Mickey November Oscillator Pipa Quebec Roma Sierra Tango United Vivacious Whiskey X-ray Yarrow Zulu

nnnvooooo

Metrics & Kerning
Metrics
Lowercase 02M

glyphs = (
{
glyphname = A;
kernLeft = A;
kernRight = A;
lastChange = "2026-03-03 00:51:57 +0000";
layers = (
{
anchors = (
{
name = bottom;
pos = (373,0);
},
{
name = ogonek;
pos = (563,0);
},
{
name = top;
pos = (368,721);
},
{
name = top_ring;
pos = (368,638);
}
);
background = {
shapes = (
{
closed = 0;
nodes = (
(-198,445,ls),
(-181,488,o),
(-169,537,o),
(-163,581,c),
(-184,581,l),
(-178,537,o),
(-165,489,o),
(-148,445,cs)
);
},
{
closed = 1;
nodes = (
(-345,656,l),
(-551,166,l),
(-394,166,l),
(-300,445,ls),
(-293,465,o),
(-283,499,o),
(-278,529,c),
(-270,529,l),
(-265,499,o),
(-254,465,o),
(-247,445,cs),
(-153,166,l),
(7,166,l),
(-200,656,l)
);
},
{
closed = 1;
nodes = (
(11,0,l),
(168,0,l),
(561,1126,l),
(404,1126,l)
);
},
{
closed = 1;
nodes = (
(154,1126,l),
(547,0,l),
(704,0,l),
(311,1126,l)
);
},
{
closed = 1;
nodes = (
(168,0,l),
(226,166,l),
(241,207,l),
(321,427,ls),
(338,473,o),
(347,509,o),
(352,529,c),
(360,529,l),
(365,509,o),
(376,473,o),
(393,427,cs),
(473,207,l),
(488,166,l),
(547,0,l),
(703,0,l),
(418,700,l),
(297,700,l),
(11,0,l)
);
}
);
};
hints = (
{
horizontal = 1;
origin = (0,17);
target = up;
type = BottomGhost;
},
{
horizontal = 1;
origin = (1,3);
target = (1,2);
type = Stem;
},
{
horizontal = 1;
origin = (0,16);
target = down;
type = TopGhost;
},
{
horizontal = 1;
origin = (0,16);
target = (0,7);
type = Stem;
}
);
layerId = m006;
shapes = (
{
closed = 1;
nodes = (
(173,0,l),
(233,171,l),
(248,213,l),
(331,440,ls),
(348,487,o),
(357,524,o),
(363,545,c),
(371,545,l),
(376,524,o),
(387,487,o),
(405,440,cs),
(487,213,l),
(503,171,l),
(563,0,l),
(724,0,l),
(441,721,l),
(296,721,l),
(11,0,l)
);
},
{
closed = 1;
nodes = (
(556,123,l),
(556,262,l),
(166,262,l),
(166,123,l)
);
}
);
width = 735;
},
{
anchors = (
{
name = bottom;
pos = (364,0);
},
{
name = ogonek;
pos = (610,0);
},
{
name = top;
pos = (357,721);
},
{
name = top_ring;
pos = (357,638);
}
);
background = {
shapes = (
{
closed = 1;
nodes = (
(-529,700,l),
(-469,866,l),
(-454,907,l),
(-372,1127,ls),
(-355,1173,o),
(-345,1209,o),
(-340,1229,c),
(-332,1229,l),
(-327,1209,o),
(-315,1173,o),
(-298,1127,cs),
(-216,907,l),
(-201,866,l),
(-141,700,l),
(11,700,l),
(-274,1400,l),
(-395,1400,l),
(-681,700,l)
);
},
{
closed = 1;
nodes = (
(-152,839,l),
(-152,949,l),
(-531,949,l),
(-531,839,l)
);
},
{
closed = 1;
nodes = (
(-561,700,l),
(-495,877,l),
(-486,908,l),
(-372,1200,ls),
(-352,1251,o),
(-345,1278,o),
(-338,1302,c),
(-333,1302,l),
(-326,1278,o),
(-319,1252,o),
(-299,1200,cs),
(-186,908,l),
(-177,877,l),
(-110,700,l),
(-23,700,l),
(-302,1400,l),
(-369,1400,l),
(-648,700,l)
);
},
{
closed = 1;
nodes = (
(-144,859,l),
(-144,929,l),
(-532,929,l),
(-532,859,l)
);
},
{
closed = 1;
nodes = (
(101,0,l),
(173,177,l),
(185,208,l),
(307,500,ls),
(329,551,o),
(336,578,o),
(344,602,c),
(349,602,l),
(357,578,o),
(364,552,o),
(386,500,cs),
(507,208,l),
(519,177,l),
(592,0,l),
(680,0,l),
(380,700,l),
(313,700,l),
(13,0,l)
);
}
);
};
hints = (
{
horizontal = 1;
origin = (0,17);
target = up;
type = BottomGhost;
},
{
horizontal = 1;
origin = (1,3);
target = (1,2);
type = Stem;
},
{
horizontal = 1;
origin = (0,16);
target = down;
type = TopGhost;
},
{
horizontal = 1;
origin = (0,16);
target = (0,7);
type = Stem;
}
);
layerId = "610C2E7D-EDB4-4EC2-BEB5-F0DB9FB0A101";
shapes = (
{
closed = 1;
nodes = (
(104,0,l),
(178,182,l),
(191,214,l),
(316,515,ls),
(339,568,o),
(346,595,o),
(354,620,c),
(359,620,l),
(368,595,o),
(375,569,o),
(398,515,cs),
(522,214,l),
(535,182,l),
(610,0,l),
(700,0,l),
(391,721,l),
(322,721,l),
(13,0,l)
);
},
{
closed = 1;
nodes = (
(554,161,l),
(554,239,l),
(155,239,l),
(155,161,l)
);
}
);
width = 714;
}
);
unicode = 65;
},
{
glyphname = AE;
kernLeft = AE;
kernRight = E;
lastChange = "2026-03-03 00:58:59 +0000";
layers = (
{
anchors = (
{
name = bottom;
pos = (582,0);
},
{
name = ogonek;
pos = (902,0);
},
{
name = top;
pos = (582,721);
},
{
name = top_ring;
pos = (582,721);
}
);
background = {
shapes = (
{
closed = 1;
nodes = (
(176,0,l),
(280,166,l),
(300,207,l),
(445,445,ls),
(471,488,o),
(500,537,o),
(521,582,c),
(490,565,l),
(665,565,l),
(581,700,l),
(462,700,l),
(4,0,l)
);
},
{
closed = 1;
nodes = (
(617,133,l),
(617,268,l),
(203,268,l),
(203,133,l)
);
},
{
closed = 1;
nodes = (
(937,0,l),
(937,135,l),
(665,135,l),
(665,287,l),
(930,287,l),
(930,422,l),
(665,422,l),
(665,565,l),
(935,565,l),
(935,700,l),
(525,700,l),
(525,0,l)
);
}
);
};
hints = (
{
horizontal = 1;
origin = (0,11);
target = up;
type = BottomGhost;
},
{
horizontal = 1;
origin = (1,3);
target = (1,2);
type = Stem;
},
{
horizontal = 1;
origin = (0,10);
target = (0,8);
type = Stem;
}
);
layerId = "610C2E7D-EDB4-4EC2-BEB5-F0DB9FB0A101";
shapes = (
{
closed = 1;
nodes = (
(114,0,l),
(233,182,l),
(252,214,l),
(451,515,ls),
(494,579,o),
(519,617,o),
(536,656,c),
(513,644,l),
(585,644,l),
(585,721,l),
(497,721,l),
(13,0,l)
);
},
{
closed = 1;
nodes = (
(591,161,l),
(591,239,l),
(222,239,l),
(174,161,l)
);
},
{
pos = (456,0);
ref = E;
}
);
width = 1027;
},
{
anchors = (
{
name = bottom;
pos = (621,0);
},
{
name = ogonek;
pos = (882,0);
},
{
name = top;
pos = (621,721);
},
{
name = top_ring;
pos = (577,721);
}
);
background = {
anchors = (
{
name = bottom;
pos = (279,0);
},
{
name = ogonek;
pos = (368,0);
},
{
name = top;
pos = (269,700);
}
);
hints = (
{
horizontal = 1;
origin = (2,11);
target = (2,2);
type = Stem;
},
{
horizontal = 1;
origin = (2,4);
target = (2,6);
type = Stem;
},
{
horizontal = 1;
origin = (2,10);
target = (2,8);
type = Stem;
},
{
origin = (2,11);
target = (2,7);
type = Stem;
}
);
shapes = (
{
closed = 1;
nodes = (
(627,900,l),
(731,1066,l),
(751,1107,l),
(911,1345,ls),
(939,1387,o),
(976,1437,o),
(995,1482,c),
(968,1472,l),
(1015,1472,l),
(1015,900,l),
(1427,900,l),
(1427,1026,l),
(1128,1026,l),
(1155,981,l),
(1155,1239,l),
(1110,1195,l),
(1420,1195,l),
(1420,1317,l),
(1110,1317,l),
(1155,1273,l),
(1155,1519,l),
(1110,1474,l),
(1425,1474,l),
(1425,1600,l),
(937,1600,l),
(465,900,l)
);
},
{
closed = 1;
nodes = (
(1107,1039,l),
(1107,1149,l),
(674,1149,l),
(674,1039,l)
);
},
{
closed = 1;
nodes = (
(944,0,l),
(944,135,l),
(672,135,l),
(672,287,l),
(937,287,l),
(937,422,l),
(672,422,l),
(672,565,l),
(942,565,l),
(942,700,l),
(532,700,l),
(532,0,l)
);
}
);
};
hints = (
{
horizontal = 1;
origin = (0,11);
target = up;
type = BottomGhost;
},
{
horizontal = 1;
origin = (1,3);
target = (1,2);
type = Stem;
},
{
horizontal = 1;
origin = (0,10);
target = (0,8);
type = Stem;
}
);
layerId = m006;
shapes = (
{
closed = 1;
nodes = (
(188,0,l),
(296,171,l),
(316,213,l),
(466,458,ls),
(492,503,o),
(522,553,o),
(544,599,c),
(512,582,l),
(692,582,l),
(606,721,l),
(483,721,l),
(11,0,l)
);
},
{
closed = 1;
nodes = (
(643,137,l),
(643,276,l),
(216,276,l),
(216,137,l)
);
},
{
pos = (466,0);
ref = E;
}
);
width = 1048;
}
);
metricLeft = A;
metricRight = E;
unicode = 198;
},
{
glyphname = B;
kernLeft = H;
kernRight = B;
lastChange = "2026-03-03 00:51:57 +0000";
layers = (
{
anchors = (
{
name = bottom;
pos = (344,0);
},
{
name = top;
pos = (340,721);
}
);
background = {
shapes = (
{
closed = 1;
nodes = (
(-287,0,ls),
(-135,0,o),
(-39,76,o),
(-39,193,cs),
(-39,299,o),
(-111,357,o),
(-223,374,c),
(-223,372,l),
(-128,390,o),
(-78,438,o),
(-78,522,cs),
(-78,625,o),
(-160,700,o),
(-312,700,cs),
(-548,700,l),
(-548,0,l)
);
},
{
closed = 1;
nodes = (
(-408,294,l),
(-300,294,ls),
(-224,294,o),
(-181,266,o),
(-181,215,cs),
(-181,154,o),
(-224,126,o),
(-300,126,cs),
(-408,126,l)
);
},
{
closed = 1;
nodes = (
(-408,575,l),
(-325,575,ls),
(-249,575,o),
(-220,542,o),
(-220,494,cs),
(-220,438,o),
(-249,414,o),
(-325,414,cs),
(-408,414,l)
);
},
{
closed = 1;
nodes = (
(324,0,ls),
(463,0,o),
(559,72,o),
(559,191,cs),
(559,294,o),
(496,343,o),
(391,362,c),
(391,367,l),
(488,390,o),
(520,448,o),
(520,516,cs),
(520,632,o),
(438,700,o),
(299,700,cs),
(70,700,l),
(70,0,l)
);
},
{
closed = 1;
nodes = (
(154,318,l),
(315,318,ls),
(407,318,o),
(474,280,o),
(474,198,cs),
(474,115,o),
(407,76,o),
(315,76,cs),
(154,76,l)
);
},
{
closed = 1;
nodes = (
(154,624,l),
(290,624,ls),
(382,624,o),
(435,588,o),
(435,507,cs),
(435,422,o),
(382,390,o),
(290,390,cs),
(154,390,l)
);
}
);
};
hints = (
{
horizontal = 1;
origin = (0,15);
target = (1,8);
type = Stem;
},
{
horizontal = 1;
origin = (1,1);
target = (2,8);
type = Stem;
},
{
horizontal = 1;
origin = (0,14);
target = (2,1);
type = Stem;
},
{
origin = (0,15);
target = (2,8);
type = Stem;
},
{
origin = (1,4);
target = (0,3);
type = Stem;
},
{
origin = (2,4);
target = (0,10);
type = Stem;
}
);
layerId = m006;
shapes = (
{
closed = 1;
nodes = (
(353,0,ls),
(510,0,o),
(609,78,o),
(609,199,cs),
(609,294,o),
(540,372,o),
(448,382,c),
(448,388,l),
(527,405,o),
(575,458,o),
(575,531,cs),
(575,644,o),
(489,721,o),
(333,721,cs),
(84,721,l),
(84,0,l)
);
},
{
closed = 1;
nodes = (
(229,298,l),
(350,298,ls),
(421,298,o),
(462,268,o),
(462,218,cs),
(462,169,o),
(421,139,o),
(350,139,cs),
(229,139,l)
);
},
{
closed = 1;
nodes = (
(229,582,l),
(330,582,ls),
(391,582,o),
(427,555,o),
(427,509,cs),
(427,460,o),
(391,432,o),
(330,432,cs),
(229,432,l)
);
}
);
width = 661;
},
{
anchors = (
{
name = bottom;
pos = (328,0);
},
{
name = top;
pos = (324,721);
}
);
hints = (
{
horizontal = 1;
origin = (0,15);
target = (1,8);
type = Stem;
},
{
horizontal = 1;
origin = (1,1);
target = (2,8);
type = Stem;
},
{
horizontal = 1;
origin = (0,14);
target = (2,1);
type = Stem;
},
{
origin = (0,15);
target = (2,8);
type = Stem;
},
{
origin = (1,4);
target = (0,3);
type = Stem;
},
{
origin = (2,4);
target = (0,10);
type = Stem;
}
);
layerId = "610C2E7D-EDB4-4EC2-BEB5-F0DB9FB0A101";
shapes = (
{
closed = 1;
nodes = (
(349,0,ls),
(492,0,o),
(591,74,o),
(591,197,cs),
(591,296,o),
(537,351,o),
(418,373,c),
(418,378,l),
(509,400,o),
(551,448,o),
(551,531,cs),
(551,651,o),
(467,721,o),
(323,721,cs),
(87,721,l),
(87,0,l)
);
},
{
closed = 1;
nodes = (
(174,328,l),
(340,328,ls),
(443,328,o),
(504,281,o),
(504,204,cs),
(504,125,o),
(443,78,o),
(340,78,cs),
(174,78,l)
);
},
{
closed = 1;
nodes = (
(174,643,l),
(314,643,ls),
(409,643,o),
(463,606,o),
(463,522,cs),
(463,440,o),
(416,402,o),
(314,402,cs),
(174,402,l)
);
}
);
width = 641;
}
);
metricLeft = H;
unicode = 66;
},
{
glyphname = C;
kernLeft = O;
kernRight = C;
lastChange = "2026-03-03 00:58:54 +0000";
layers = (
{
anchors = (
{
name = bottom;
pos = (420,0);
},
{
name = ogonek;
pos = (526,0);
},
{
name = top;
pos = (420,721);
}
);
background = {
shapes = (
{
closed = 1;
nodes = (
(615,-13,o),
(767,142,o),
(767,349,cs),
(767,557,o),
(615,713,o),
(412,713,cs),
(209,713,o),
(57,557,o),
(57,349,cs),
(57,142,o),
(209,-13,o),
(412,-13,cs)
);
},
{
closed = 1;
nodes = (
(296,125,o),
(200,202,o),
(200,349,cs),
(200,496,o),
(296,575,o),
(412,575,cs),
(527,575,o),
(624,496,o),
(624,349,cs),
(624,202,o),
(527,125,o),
(412,125,cs)
);
},
{
closed = 1;
nodes = (
(386,0,ls),
(613,0,o),
(765,140,o),
(765,349,cs),
(765,560,o),
(613,700,o),
(386,700,cs),
(151,700,l),
(151,0,l)
);
},
{
closed = 1;
nodes = (
(291,628,l),
(228,565,l),
(382,565,ls),
(535,565,o),
(622,497,o),
(622,349,cs),
(622,202,o),
(535,135,o),
(382,135,cs),
(228,135,l),
(291,72,l)
);
}
);
};
hints = (
{
horizontal = 1;
origin = (0,25);
target = (0,6);
type = Stem;
},
{
horizontal = 1;
origin = (0,19);
target = (0,12);
type = Stem;
},
{
origin = (0,22);
target = (0,9);
type = Stem;
}
);
layerId = m006;
shapes = (
{
closed = 1;
nodes = (
(546,-13,o),
(633,37,o),
(688,103,c),
(582,196,l),
(542,151,o),
(484,129,o),
(423,129,cs),
(279,129,o),
(192,228,o),
(192,359,cs),
(192,491,o),
(279,592,o),
(420,592,cs),
(494,592,o),
(541,567,o),
(584,521,c),
(687,619,l),
(619,699,o),
(524,734,o),
(420,734,cs),
(198,734,o),
(44,567,o),
(44,359,cs),
(44,153,o),
(206,-13,o),
(420,-13,cs)
);
}
);
width = 712;
},
{
anchors = (
{
name = bottom;
pos = (412,0);
},
{
name = ogonek;
pos = (518,0);
},
{
name = top;
pos = (412,721);
}
);
background = {
shapes = (
{
closed = 1;
nodes = (
(-93,687,o),
(49,850,o),
(49,1050,cs),
(49,1252,o),
(-93,1413,o),
(-299,1413,cs),
(-505,1413,o),
(-647,1250,o),
(-647,1049,cs),
(-647,848,o),
(-505,687,o),
(-299,687,cs)
);
},
{
closed = 1;
nodes = (
(-457,763,o),
(-563,878,o),
(-563,1049,cs),
(-563,1220,o),
(-457,1337,o),
(-299,1337,cs),
(-140,1337,o),
(-35,1221,o),
(-35,1050,cs),
(-35,879,o),
(-140,763,o),
(-299,763,cs)
);
},
{
closed = 1;
nodes = (
(514,-13,o),
(602,29,o),
(662,102,c),
(602,151,l),
(551,93,o),
(493,63,o),
(403,63,cs),
(252,63,o),
(129,182,o),
(129,349,cs),
(129,515,o),
(242,637,o),
(400,637,cs),
(475,637,o),
(542,608,o),
(595,551,c),
(656,603,l),
(593,678,o),
(507,713,o),
(400,713,cs),
(196,713,o),
(42,553,o),
(42,349,cs),
(42,145,o),
(198,-13,o),
(400,-13,cs)
);
}
);
};
hints = (
{
horizontal = 1;
origin = (0,25);
target = (0,6);
type = Stem;
},
{
horizontal = 1;
origin = (0,19);
target = (0,12);
type = Stem;
},
{
origin = (0,22);
target = (0,9);
type = Stem;
}
);
layerId = "610C2E7D-EDB4-4EC2-BEB5-F0DB9FB0A101";
shapes = (
{
closed = 1;
nodes = (
(529,-13,o),
(620,30,o),
(682,105,c),
(620,156,l),
(568,96,o),
(508,65,o),
(415,65,cs),
(260,65,o),
(133,187,o),
(133,359,cs),
(133,530,o),
(249,656,o),
(412,656,cs),
(490,656,o),
(560,633,o),
(613,568,c),
(676,621,l),
(611,698,o),
(522,734,o),
(412,734,cs),
(202,734,o),
(43,570,o),
(43,359,cs),
(43,149,o),
(204,-13,o),
(412,-13,cs)
);
}
);
width = 705;
}
);
metricLeft = O;
metricRight = "=O-20";
unicode = 67;
},
{
glyphname = D;
kernLeft = H;
kernRight = O;
lastChange = "2026-03-03 00:51:57 +0000";
layers = (
{
anchors = (
{
name = bottom;
pos = (361,0);
},
{
name = center;
pos = (157,359);
},
{
name = top;
pos = (380,721);
}
);
background = {
shapes = (
{
closed = 1;
nodes = (
(294,0,ls),
(515,0,o),
(673,130,o),
(673,349,cs),
(673,570,o),
(515,700,o),
(294,700,cs),
(84,700,l),
(84,0,l)
);
},
{
closed = 1;
nodes = (
(166,670,l),
(130,624,l),
(297,624,ls),
(468,624,o),
(589,525,o),
(589,349,cs),
(589,174,o),
(468,76,o),
(297,76,cs),
(130,76,l),
(166,30,l)
);
}
);
};
hints = (
{
horizontal = 1;
origin = (0,8);
target = (1,8);
type = Stem;
},
{
horizontal = 1;
origin = (0,7);
target = (1,1);
type = Stem;
},
{
origin = (0,8);
target = (1,8);
type = Stem;
},
{
origin = (1,4);
target = (0,3);
type = Stem;
}
);
layerId = m006;
shapes = (
{
closed = 1;
nodes = (
(326,0,ls),
(560,0,o),
(717,144,o),
(717,359,cs),
(717,577,o),
(560,721,o),
(326,721,cs),
(84,721,l),
(84,0,l)
);
},
{
closed = 1;
nodes = (
(229,582,l),
(322,582,ls),
(480,582,o),
(570,512,o),
(570,359,cs),
(570,208,o),
(480,139,o),
(322,139,cs),
(229,139,l)
);
}
);
width = 761;
},
{
anchors = (
{
name = bottom;
pos = (332,0);
},
{
name = center;
pos = (135,359);
},
{
name = top;
pos = (350,721);
}
);
background = {
shapes = (
{
closed = 1;
nodes = (
(554,-13,o),
(694,150,o),
(694,350,cs),
(694,552,o),
(554,713,o),
(346,713,cs),
(138,713,o),
(-2,550,o),
(-2,349,cs),
(-2,148,o),
(138,-13,o),
(346,-13,cs)
);
},
{
closed = 1;
nodes = (
(188,64,o),
(85,178,o),
(85,349,cs),
(85,520,o),
(188,636,o),
(346,636,cs),
(505,636,o),
(607,521,o),
(607,350,cs),
(607,179,o),
(505,64,o),
(346,64,cs)
);
}
);
};
hints = (
{
horizontal = 1;
origin = (0,8);
target = (1,8);
type = Stem;
},
{
horizontal = 1;
origin = (0,7);
target = (1,1);
type = Stem;
},
{
origin = (0,8);
target = (1,8);
type = Stem;
},
{
origin = (1,4);
target = (0,3);
type = Stem;
}
);
layerId = "610C2E7D-EDB4-4EC2-BEB5-F0DB9FB0A101";
shapes = (
{
closed = 1;
nodes = (
(304,0,ls),
(531,0,o),
(694,134,o),
(694,359,cs),
(694,587,o),
(531,721,o),
(304,721,cs),
(87,721,l),
(87,0,l)
);
},
{
closed = 1;
nodes = (
(172,643,l),
(307,643,ls),
(483,643,o),
(608,541,o),
(608,359,cs),
(608,179,o),
(483,78,o),
(307,78,cs),
(172,78,l)
);
}
);
width = 737;
}
);
metricLeft = H;
metricRight = O;
unicode = 68;
},
{
glyphname = Dcroat;
kernLeft = H;
kernRight = O;
lastChange = "2026-03-03 00:58:59 +0000";
layers = (
{
background = {
shapes = (
{
ref = H;
}
);
};
hints = (
{
horizontal = 1;
origin = (1,3);
target = (1,2);
type = Stem;
}
);
layerId = "610C2E7D-EDB4-4EC2-BEB5-F0DB9FB0A101";
shapes = (
{
ref = D;
},
{
closed = 1;
nodes = (
(378,336,l),
(378,406,l),
(14,406,l),
(14,336,l)
);
}
);
width = 737;
},
{
background = {
shapes = (
{
ref = H;
}
);
};
hints = (
{
horizontal = 1;
origin = (1,3);
target = (1,2);
type = Stem;
},
{
origin = (1,3);
target = (1,1);
type = Stem;
}
);
layerId = m006;
shapes = (
{
ref = D;
},
{
closed = 1;
nodes = (
(380,304,l),
(380,427,l),
(10,427,l),
(10,304,l)
);
}
);
width = 761;
}
);
metricRight = O;
unicode = 272;
},
{
glyphname = E;
kernLeft = H;
kernRight = E;
lastChange = "2026-03-03 00:51:57 +0000";
layers = (
{
anchors = (
{
name = bottom;
pos = (321,0);
},
{
name = ogonek;
pos = (413,0);
},
{
name = top;
pos = (311,721);
}
);
hints = (
{
horizontal = 1;
origin = (0,11);
target = (0,2);
type = Stem;
},
{
horizontal = 1;
origin = (0,4);
target = (0,6);
type = Stem;
},
{
horizontal = 1;
origin = (0,10);
target = (0,8);
type = Stem;
},
{
origin = (0,11);
target = (0,7);
type = Stem;
}
);
layerId = m006;
shapes = (
{
closed = 1;
nodes = (
(509,0,l),
(509,139,l),
(229,139,l),
(229,296,l),
(502,296,l),
(502,435,l),
(229,435,l),
(229,582,l),
(507,582,l),
(507,721,l),
(84,721,l),
(84,0,l)
);
}
);
width = 582;
},
{
anchors = (
{
name = bottom;
pos = (312,0);
},
{
name = ogonek;
pos = (404,0);
},
{
name = top;
pos = (302,721);
}
);
hints = (
{
horizontal = 1;
options = 4;
origin = (0,11);
target = (0,1);
type = TTStem;
},
{
horizontal = 1;
options = 4;
origin = (0,4);
target = (0,6);
type = TTStem;
},
{
horizontal = 1;
options = 4;
origin = (0,10);
target = (0,8);
type = TTStem;
},
{
horizontal = 1;
options = 4;
origin = (0,4);
target = (0,5);
type = TTShift;
},
{
horizontal = 1;
origin = (0,11);
target = (0,2);
type = Stem;
},
{
horizontal = 1;
origin = (0,4);
target = (0,6);
type = Stem;
},
{
horizontal = 1;
origin = (0,10);
target = (0,8);
type = Stem;
},
{
origin = (0,11);
target = (0,7);
type = Stem;
}
);
layerId = "610C2E7D-EDB4-4EC2-BEB5-F0DB9FB0A101";
shapes = (
{
closed = 1;
nodes = (
(496,0,l),
(496,78,l),
(172,78,l),
(172,328,l),
(489,328,l),
(489,406,l),
(172,406,l),
(172,643,l),
(494,643,l),
(494,721,l),
(87,721,l),
(87,0,l)
);
}
);
width = 571;
}
);
metricLeft = H;
unicode = 69;
},
{
glyphname = Schwa;
kernLeft = O;
kernRight = O;
lastChange = "2026-03-03 00:51:57 +0000";
layers = (
{
background = {
shapes = (
{
pos = (-7,0);
ref = O;
}
);
};
hints = (
{
horizontal = 1;
origin = (0,31);
target = (0,18);
type = Stem;
},
{
horizontal = 1;
origin = (0,23);
target = (0,25);
type = Stem;
},
{
horizontal = 1;
origin = (0,5);
target = (0,12);
type = Stem;
},
{
origin = (0,28);
target = (0,21,0,23);
type = Stem;
},
{
origin = (0,15);
target = (0,2);
type = Stem;
}
);
layerId = "610C2E7D-EDB4-4EC2-BEB5-F0DB9FB0A101";
shapes = (
{
closed = 1;
nodes = (
(601,-13,o),
(756,148,o),
(756,359,cs),
(756,572,o),
(606,734,o),
(390,734,cs),
(267,734,o),
(167,683,o),
(95,580,c),
(162,536,l),
(211,613,o),
(289,656,o),
(389,656,cs),
(561,656,o),
(666,526,o),
(666,359,cs),
(666,193,o),
(552,65,o),
(389,65,cs),
(233,65,o),
(131,172,o),
(129,328,c),
(95,305,l),
(691,304,l),
(691,378,l),
(46,378,l),
(44,366,o),
(43,348,o),
(43,331,cs),
(43,130,o),
(185,-13,o),
(390,-13,cs)
);
}
);
width = 799;
},
{
hints = (
{
horizontal = 1;
origin = (0,31);
target = (0,18);
type = Stem;
},
{
horizontal = 1;
origin = (0,23);
target = (0,25);
type = Stem;
},
{
horizontal = 1;
origin = (0,5);
target = (0,12);
type = Stem;
}
);
layerId = m006;
shapes = (
{
closed = 1;
nodes = (
(606,-13,o),
(757,153,o),
(757,359,cs),
(757,567,o),
(606,734,o),
(391,734,cs),
(268,734,o),
(175,696,o),
(83,608,c),
(188,508,l),
(244,567,o),
(304,592,o),
(388,592,cs),
(518,592,o),
(608,491,o),
(608,359,cs),
(608,228,o),
(527,129,o),
(388,129,cs),
(283,129,o),
(204,186,o),
(195,294,c),
(165,274,l),
(674,274,l),
(674,408,l),
(49,408,l),
(46,386,o),
(44,354,o),
(44,332,cs),
(44,132,o),
(175,-13,o),
(391,-13,cs)
);
}
);
width = 801;
}
);
metricLeft = O;
metricRight = O;
unicode = 399;
},
{
glyphname = F;
kernLeft = H;
kernRight = F;
lastChange = "2026-03-03 00:51:57 +0000";
layers = (
{
anchors = (
{
name = bottom;
pos = (157,0);
},
{
name = ogonek;
pos = (124,0);
},
{
name = top;
pos = (315,721);
}
);
hints = (
{
horizontal = 1;
origin = (0,9);
target = up;
type = BottomGhost;
},
{
horizontal = 1;
origin = (0,2);
target = (0,4);
type = Stem;
},
{
horizontal = 1;
origin = (0,8);
target = (0,6);
type = Stem;
},
{
origin = (0,9);
target = (0,5);
type = Stem;
}
);
layerId = m006;
shapes = (
{
closed = 1;
nodes = (
(229,0,l),
(229,289,l),
(503,289,l),
(503,428,l),
(229,428,l),
(229,582,l),
(508,582,l),
(508,721,l),
(84,721,l),
(84,0,l)
);
}
);
width = 577;
},
{
anchors = (
{
name = bottom;
pos = (131,0);
},
{
name = ogonek;
pos = (110,0);
},
{
name = top;
pos = (307,721);
}
);
hints = (
{
horizontal = 1;
origin = (0,9);
target = up;
type = BottomGhost;
},
{
horizontal = 1;
origin = (0,2);
target = (0,4);
type = Stem;
},
{
horizontal = 1;
origin = (0,8);
target = (0,6);
type = Stem;
},
{
origin = (0,9);
target = (0,5);
type = Stem;
}
);
layerId = "610C2E7D-EDB4-4EC2-BEB5-F0DB9FB0A101";
shapes = (
{
closed = 1;
nodes = (
(174,0,l),
(174,320,l),
(492,320,l),
(492,399,l),
(174,399,l),
(174,643,l),
(497,643,l),
(497,721,l),
(87,721,l),
(87,0,l)
);
}
);
width = 568;
}
);
metricLeft = H;
unicode = 70;
},
{
glyphname = Fhook;
kernLeft = j;
kernRight = F;
lastChange = "2026-03-03 00:58:59 +0000";
layers = (
{
hints = (
{
horizontal = 1;
origin = (1,16);
target = (1,9);
type = Stem;
},
{
origin = (1,3);
target = (1,6);
type = Stem;
}
);
layerId = "610C2E7D-EDB4-4EC2-BEB5-F0DB9FB0A101";
shapes = (
{
pos = (-2,0);
ref = F;
},
{
closed = 1;
nodes = (
(98,-237,o),
(169,-166,o),
(169,-36,cs),
(169,0,l),
(129,110,l),
(83,0,l),
(83,-33,ls),
(83,-112,o),
(41,-157,o),
(-21,-157,cs),
(-55,-157,o),
(-84,-148,o),
(-107,-122,c),
(-166,-192,l),
(-128,-230,o),
(-77,-241,o),
(-18,-240,cs)
);
}
);
width = 566;
},
{
hints = (
{
horizontal = 1;
origin = (1,16);
target = (1,9);
type = Stem;
},
{
origin = (1,3);
target = (1,6);
type = Stem;
}
);
layerId = m006;
shapes = (
{
pos = (-5,0);
ref = F;
},
{
closed = 1;
nodes = (
(133,-236,o),
(222,-165,o),
(222,-16,cs),
(222,0,l),
(150,192,l),
(77,0,l),
(77,-26,ls),
(77,-73,o),
(44,-102,o),
(3,-102,cs),
(-33,-102,o),
(-60,-82,o),
(-76,-61,c),
(-166,-179,l),
(-128,-214,o),
(-73,-236,o),
(-11,-236,cs)
);
}
);
width = 572;
}
);
metricRight = F;
unicode = 401;
},
{
glyphname = G;
kernLeft = O;
kernRight = O;
lastChange = "2026-03-03 00:51:57 +0000";
layers = (
{
anchors = (
{
name = bottom;
pos = (412,0);
},
{
name = ogonek;
pos = (546,9);
},
{
name = top;
pos = (412,721);
}
);
background = {
shapes = (
{
pos = (1,0);
ref = O;
},
{
pos = (1,0);
ref = C;
}
);
};
hints = (
{
horizontal = 1;
origin = (0,31);
target = (0,12);
type = Stem;
},
{
horizontal = 1;
origin = (0,8);
target = (0,6);
type = Stem;
},
{
horizontal = 1;
origin = (0,25);
target = (0,18);
type = Stem;
},
{
origin = (0,28);
target = (0,15);
type = Stem;
}
);
layerId = m006;
shapes = (
{
closed = 1;
nodes = (
(626,-13,o),
(757,132,o),
(757,332,cs),
(757,354,o),
(755,386,o),
(752,408,c),
(376,408,l),
(376,274,l),
(637,274,l),
(607,294,l),
(597,186,o),
(518,129,o),
(413,129,cs),
(274,129,o),
(194,228,o),
(194,359,cs),
(194,491,o),
(283,592,o),
(413,592,cs),
(491,592,o),
(536,572,o),
(584,521,c),
(687,619,l),
(611,702,o),
(527,734,o),
(410,734,cs),
(196,734,o),
(44,567,o),
(44,359,cs),
(44,153,o),
(196,-13,o),
(410,-13,cs)
);
}
);
width = 801;
},
{
anchors = (
{
name = bottom;
pos = (409,0);
},
{
name = ogonek;
pos = (540,9);
},
{
name = top;
pos = (409,721);
}
);
background = {
shapes = (
{
pos = (1,0);
ref = O;
},
{
pos = (1,0);
ref = C;
}
);
};
hints = (
{
horizontal = 1;
origin = (0,31);
target = (0,12);
type = Stem;
},
{
horizontal = 1;
origin = (0,8);
target = (0,6);
type = Stem;
},
{
horizontal = 1;
origin = (0,25);
target = (0,18);
type = Stem;
},
{
origin = (0,28);
target = (0,15);
type = Stem;
},
{
origin = (0,8,0,12);
target = (0,2);
type = Stem;
}
);
layerId = "610C2E7D-EDB4-4EC2-BEB5-F0DB9FB0A101";
shapes = (
{
closed = 1;
nodes = (
(614,-13,o),
(756,130,o),
(756,331,cs),
(756,348,o),
(755,366,o),
(753,378,c),
(375,378,l),
(375,302,l),
(704,303,l),
(671,328,l),
(668,172,o),
(566,65,o),
(410,65,cs),
(247,65,o),
(133,193,o),
(133,359,cs),
(133,526,o),
(238,656,o),
(410,656,cs),
(495,656,o),
(566,626,o),
(613,567,c),
(676,621,l),
(607,700,o),
(526,734,o),
(409,734,cs),
(194,734,o),
(43,572,o),
(43,359,cs),
(43,148,o),
(198,-13,o),
(409,-13,cs)
);
}
);
width = 799;
}
);
metricLeft = O;
metricRight = O;
unicode = 71;
},
{
glyphname = H;
kernLeft = H;
kernRight = H;
lastChange = "2026-03-03 00:51:57 +0000";
layers = (
{
anchors = (
{
name = bottom;
pos = (378,0);
},
{
name = ogonek;
pos = (527,0);
},
{
name = top;
pos = (378,721);
}
);
background = {
shapes = (
{
closed = 1;
nodes = (
(192,0,l),
(192,340,l),
(147,295,l),
(527,295,l),
(482,340,l),
(482,0,l),
(622,0,l),
(622,700,l),
(482,700,l),
(482,376,l),
(527,421,l),
(147,421,l),
(192,376,l),
(192,700,l),
(52,700,l),
(52,0,l)
);
}
);
};
hints = (
{
horizontal = 1;
options = 4;
origin = (0,11);
target = (0,3);
type = TTShift;
},
{
horizontal = 1;
options = 4;
origin = (0,10);
target = (0,6);
type = TTShift;
},
{
horizontal = 1;
origin = (0,11);
target = up;
type = BottomGhost;
},
{
horizontal = 1;
origin = (0,2);
target = (0,8);
type = Stem;
},
{
horizontal = 1;
origin = (0,10);
target = down;
type = TopGhost;
},
{
origin = (0,11);
target = (0,9);
type = Stem;
},
{
origin = (0,5);
target = (0,7);
type = Stem;
}
);
layerId = m006;
shapes = (
{
closed = 1;
nodes = (
(229,0,l),
(229,304,l),
(527,304,l),
(527,0,l),
(672,0,l),
(672,721,l),
(527,721,l),
(527,443,l),
(229,443,l),
(229,721,l),
(84,721,l),
(84,0,l)
);
}
);
width = 756;
},
{
anchors = (
{
name = bottom;
pos = (379,0);
},
{
name = ogonek;
pos = (577,0);
},
{
name = top;
pos = (379,721);
}
);
background = {
shapes = (
{
closed = 1;
nodes = (
(365,700,l),
(446,700,l),
(446,920,l),
(365,920,l)
);
},
{
closed = 1;
nodes = (
(301,-220,l),
(382,-220,l),
(382,0,l),
(301,0,l)
);
},
{
closed = 1;
nodes = (
(485,700,l),
(566,700,l),
(566,900,l),
(485,900,l)
);
}
);
};
hints = (
{
horizontal = 1;
options = 4;
origin = (0,11);
type = TTSnap;
},
{
horizontal = 1;
options = 4;
origin = (0,8);
target = (0,2);
type = TTStem;
},
{
horizontal = 1;
options = 4;
origin = (0,10);
type = TTSnap;
},
{
horizontal = 1;
options = 4;
origin = (0,11);
target = (0,3);
type = TTShift;
},
{
horizontal = 1;
options = 4;
origin = (0,10);
target = (0,6);
type = TTShift;
},
{
horizontal = 1;
origin = (0,11);
target = up;
type = BottomGhost;
},
{
horizontal = 1;
origin = (0,2);
target = (0,8);
type = Stem;
},
{
horizontal = 1;
origin = (0,10);
target = down;
type = TopGhost;
},
{
origin = (0,11);
target = (0,9);
type = Stem;
},
{
origin = (0,5);
target = (0,7);
type = Stem;
}
);
layerId = "610C2E7D-EDB4-4EC2-BEB5-F0DB9FB0A101";
shapes = (
{
closed = 1;
nodes = (
(172,0,l),
(172,336,l),
(577,336,l),
(577,0,l),
(661,0,l),
(661,721,l),
(577,721,l),
(577,414,l),
(172,414,l),
(172,721,l),
(87,721,l),
(87,0,l)
);
}
);
width = 749;
}
);
unicode = 72;
},
{
glyphname = Hbar;
kernLeft = H;
kernRight = H;
lastChange = "2026-03-03 00:51:57 +0000";
layers = (
{
hints = (
{
horizontal = 1;
origin = (1,3);
target = (1,2);
type = Stem;
}
);
layerId = "610C2E7D-EDB4-4EC2-BEB5-F0DB9FB0A101";
shapes = (
{
ref = H;
},
{
closed = 1;
nodes = (
(728,542,l),
(728,614,l),
(14,614,l),
(14,542,l)
);
}
);
width = 743;
},
{
hints = (
{
horizontal = 1;
origin = (1,3);
target = (1,2);
type = Stem;
}
);
layerId = m006;
shapes = (
{
ref = H;
},
{
closed = 1;
nodes = (
(742,523,l),
(742,647,l),
(10,647,l),
(10,523,l)
);
}
);
width = 752;
}
);
unicode = 294;
},
{
glyphname = I;
kernLeft = H;
kernRight = H;
lastChange = "2026-03-03 00:58:54 +0000";
layers = (
{
anchors = (
{
name = bottom;
pos = (157,0);
},
{
name = ogonek;
pos = (130,0);
},
{
name = top;
pos = (157,721);
}
);
hints = (
{
horizontal = 1;
origin = (0,4);
target = up;
type = BottomGhost;
},
{
horizontal = 1;
origin = (0,2);
target = down;
type = TopGhost;
},
{
origin = (0,4);
target = (0,1);
type = Stem;
}
);
layerId = m006;
shapes = (
{
closed = 1;
nodes = (
(229,0,l),
(229,721,l),
(84,721,l),
(84,384,l),
(84,0,l)
);
}
);
width = 313;
},
{
anchors = (
{
name = bottom;
pos = (130,0);
},
{
name = ogonek;
pos = (92,0);
},
{
name = top;
pos = (130,721);
}
);
hints = (
{
horizontal = 1;
origin = (0,4);
target = up;
type = BottomGhost;
},
{
horizontal = 1;
origin = (0,2);
target = down;
type = TopGhost;
},
{
origin = (0,4);
target = (0,1);
type = Stem;
}
);
layerId = "610C2E7D-EDB4-4EC2-BEB5-F0DB9FB0A101";
shapes = (
{
closed = 1;
nodes = (
(172,0,l),
(172,721,l),
(87,721,l),
(87,367,l),
(87,0,l)
);
}
);
width = 260;
}
);
metricLeft = H;
metricRight = H;
unicode = 73;
},
{
glyphname = J;
kernLeft = J;
kernRight = U;
lastChange = "2026-03-03 00:51:57 +0000";
layers = (
{
anchors = (
{
name = bottom;
pos = (200,0);
},
{
name = ogonek;
pos = (265,0);
},
{
name = top;
pos = (350,721);
}
);
background = {
shapes = (
{
closed = 1;
nodes = (
(375,-13,o),
(487,99,o),
(487,259,cs),
(487,700,l),
(347,700,l),
(347,274,ls),
(347,177,o),
(300,117,o),
(204,117,cs),
(108,117,o),
(61,177,o),
(61,274,cs),
(61,700,l),
(-79,700,l),
(-79,259,ls),
(-79,99,o),
(33,-13,o),
(204,-13,cs)
);
},
{
closed = 1;
nodes = (
(322,-13,o),
(425,39,o),
(425,202,cs),
(425,700,l),
(285,700,l),
(285,198,ls),
(285,145,o),
(257,117,o),
(204,117,cs),
(181,117,o),
(159,124,o),
(139,138,c),
(86,16,l),
(114,-1,o),
(150,-13,o),
(208,-13,cs)
);
}
);
};
hints = (
{
horizontal = 1;
origin = (0,15);
target = (0,8);
type = Stem;
},
{
horizontal = 1;
origin = (0,4);
target = down;
type = TopGhost;
},
{
origin = (0,3);
target = (0,5);
type = Stem;
}
);
layerId = m006;
shapes = (
{
closed = 1;
nodes = (
(344,-13,o),
(422,58,o),
(422,206,cs),
(422,721,l),
(278,721,l),
(278,197,ls),
(278,149,o),
(245,121,o),
(204,121,cs),
(168,121,o),
(141,140,o),
(125,162,c),
(34,49,l),
(83,8,o),
(138,-13,o),
(200,-13,cs)
);
}
);
width = 502;
},
{
anchors = (
{
name = bottom;
pos = (183,0);
},
{
name = ogonek;
pos = (248,0);
},
{
name = top;
pos = (324,721);
}
);
hints = (
{
horizontal = 1;
origin = (0,15);
target = (0,8);
type = Stem;
},
{
horizontal = 1;
origin = (0,4);
target = down;
type = TopGhost;
},
{
origin = (0,3);
target = (0,5);
type = Stem;
}
);
layerId = "610C2E7D-EDB4-4EC2-BEB5-F0DB9FB0A101";
shapes = (
{
closed = 1;
nodes = (
(300,-9,o),
(368,62,o),
(368,192,cs),
(368,721,l),
(281,721,l),
(281,192,ls),
(281,112,o),
(240,68,o),
(177,68,cs),
(143,68,o),
(114,76,o),
(92,103,c),
(36,36,l),
(74,-2,o),
(125,-13,o),
(183,-12,cs)
);
}
);
width = 449;
}
);
unicode = 74;
},
{
glyphname = K;
kernLeft = H;
kernRight = K;
lastChange = "2026-03-03 00:51:57 +0000";
layers = (
{
anchors = (
{
name = bottom;
pos = (335,0);
},
{
name = ogonek;
pos = (478,0);
},
{
name = top;
pos = (324,722);
}
);
hints = (
{
horizontal = 1;
origin = (0,12);
target = up;
type = BottomGhost;
},
{
horizontal = 1;
origin = (0,11);
target = down;
type = TopGhost;
},
{
origin = (0,12);
target = (0,10);
type = Stem;
}
);
layerId = m006;
shapes = (
{
closed = 1;
nodes = (
(229,0,l),
(229,318,l),
(232,318,l),
(478,0,l),
(662,0,l),
(363,383,l),
(642,721,l),
(453,721,l),
(232,423,l),
(229,423,l),
(229,721,l),
(84,721,l),
(84,0,l)
);
}
);
width = 669;
},
{
anchors = (
{
name = bottom;
pos = (306,0);
},
{
name = ogonek;
pos = (488,0);
},
{
name = top;
pos = (296,722);
}
);
background = {
shapes = (
{
closed = 1;
nodes = (
(169,0,l),
(169,342,l),
(171,342,l),
(474,0,l),
(594,0,l),
(252,368,l),
(572,700,l),
(455,700,l),
(171,384,l),
(169,384,l),
(169,700,l),
(85,700,l),
(85,0,l)
);
}
);
};
hints = (
{
horizontal = 1;
origin = (0,12);
target = up;
type = BottomGhost;
},
{
horizontal = 1;
origin = (0,11);
target = down;
type = TopGhost;
},
{
origin = (0,12);
target = (0,10);
type = Stem;
}
);
layerId = "610C2E7D-EDB4-4EC2-BEB5-F0DB9FB0A101";
shapes = (
{
closed = 1;
nodes = (
(172,0,l),
(172,354,l),
(174,354,l),
(488,0,l),
(612,0,l),
(259,379,l),
(589,721,l),
(469,721,l),
(174,393,l),
(172,393,l),
(172,721,l),
(87,721,l),
(87,0,l)
);
}
);
width = 621;
}
);
metricLeft = H;
unicode = 75;
},
{
glyphname = L;
kernLeft = H;
kernRight = L;
lastChange = "2026-03-03 00:51:57 +0000";
layers = (
{
anchors = (
{
name = bottom;
pos = (304,0);
},
{
name = center;
pos = (330,381);
},
{
name = ogonek;
pos = (497,0);
},
{
name = top;
pos = (152,721);
},
{
name = topright;
pos = (319,721);
}
);
hints = (
{
horizontal = 1;
origin = (0,5);
target = (0,2);
type = Stem;
},
{
horizontal = 1;
origin = (0,4);
target = down;
type = TopGhost;
},
{
origin = (0,5);
target = (0,3);
type = Stem;
}
);
layerId = m006;
shapes = (
{
closed = 1;
nodes = (
(497,0,l),
(497,139,l),
(229,139,l),
(229,721,l),
(84,721,l),
(84,0,l)
);
}
);
width = 556;
},
{
anchors = (
{
name = bottom;
pos = (284,0);
},
{
name = center;
pos = (310,381);
},
{
name = ogonek;
pos = (478,0);
},
{
name = top;
pos = (129,721);
},
{
name = topright;
pos = (300,721);
}
);
hints = (
{
horizontal = 1;
origin = (0,5);
target = (0,2);
type = Stem;
},
{
horizontal = 1;
origin = (0,4);
target = down;
type = TopGhost;
},
{
origin = (0,5);
target = (0,3);
type = Stem;
}
);
layerId = "610C2E7D-EDB4-4EC2-BEB5-F0DB9FB0A101";
shapes = (
{
closed = 1;
nodes = (
(479,0,l),
(479,78,l),
(172,78,l),
(172,721,l),
(87,721,l),
(87,0,l)
);
}
);
width = 540;
}
);
metricLeft = H;
unicode = 76;
},
{
glyphname = Lslash;
kernLeft = H;
kernRight = L;
lastChange = "2026-03-03 00:51:57 +0000";
layers = (
{
background = {
shapes = (
{
closed = 1;
nodes = (
(128,313,l),
(138,313,l),
(309,425,l),
(309,514,l),
(140,395,l),
(128,395,l),
(2,307,l),
(2,225,l)
);
}
);
};
hints = (
{
horizontal = 1;
origin = (1,1);
target = (1,5);
type = Stem;
}
);
layerId = "610C2E7D-EDB4-4EC2-BEB5-F0DB9FB0A101";
shapes = (
{
pos = (10,0);
ref = L;
},
{
closed = 1;
nodes = (
(132,322,l),
(142,322,l),
(318,438,l),
(318,529,l),
(144,407,l),
(132,407,l),
(16,327,l),
(16,242,l)
);
}
);
width = 547;
},
{
background = {
shapes = (
{
closed = 1;
nodes = (
(142,283,l),
(152,283,l),
(323,395,l),
(323,538,l),
(158,419,l),
(142,419,l),
(16,331,l),
(16,195,l)
);
}
);
};
hints = (
{
horizontal = 1;
origin = (1,7);
target = (1,3);
type = Stem;
},
{
origin = (1,7);
target = (1,3);
type = Stem;
}
);
layerId = m006;
shapes = (
{
ref = L;
},
{
closed = 1;
nodes = (
(146,291,l),
(157,289,l),
(333,405,l),
(333,552,l),
(163,430,l),
(146,432,l),
(10,337,l),
(10,197,l)
);
}
);
width = 554;
}
);
unicode = 321;
},
{
glyphname = M;
kernLeft = H;
kernRight = H;
lastChange = "2026-03-03 00:51:57 +0000";
layers = (
{
anchors = (
{
name = bottom;
pos = (492,0);
},
{
name = ogonek;
pos = (755,0);
},
{
name = top;
pos = (491,721);
}
);
background = {
shapes = (
{
closed = 0;
nodes = (
(619,1777,l),
(477,1382,ls),
(458,1329,o),
(455,1302,o),
(452,1276,c),
(446,1276,l),
(442,1302,o),
(438,1328,o),
(419,1382,cs),
(277,1777,l)
);
},
{
closed = 0;
nodes = (
(145,1100,l),
(177,1495,ls),
(181,1548,o),
(176,1575,o),
(173,1601,c),
(179,1601,l),
(189,1575,o),
(201,1549,o),
(235,1495,cs),
(487,1100,l)
);
},
{
closed = 0;
nodes = (
(404,1100,l),
(656,1495,ls),
(690,1549,o),
(702,1575,o),
(712,1601,c),
(718,1601,l),
(715,1575,o),
(710,1548,o),
(714,1495,cs),
(746,1100,l)
);
},
{
closed = 1;
nodes = (
(189,0,l),
(189,283,ls),
(189,402,o),
(185,446,o),
(173,536,c),
(155,537,l),
(412,0,l),
(480,0,l),
(737,537,l),
(719,536,l),
(707,446,o),
(703,402,o),
(703,283,cs),
(703,0,l),
(840,0,l),
(840,700,l),
(672,700,l),
(526,391,ls),
(454,238,o),
(450,211,o),
(439,162,c),
(459,162,l),
(448,211,o),
(443,238,o),
(371,391,cs),
(226,700,l),
(52,700,l),
(52,0,l)
);
},
{
closed = 0;
nodes = (
(146,866,l),
(482,157,l)
);
},
{
closed = 0;
nodes = (
(752,866,l),
(416,157,l)
);
}
);
};
hints = (
{
horizontal = 1;
origin = (0,27);
target = up;
type = BottomGhost;
},
{
horizontal = 1;
origin = (0,26);
target = down;
type = TopGhost;
},
{
horizontal = 1;
origin = (0,26);
target = (0,9);
type = Stem;
},
{
origin = (0,27);
target = (0,1);
type = Stem;
},
{
origin = (0,13);
target = (0,15);
type = Stem;
}
);
layerId = m006;
shapes = (
{
closed = 1;
nodes = (
(226,0,l),
(226,291,ls),
(226,403,o),
(221,470,o),
(211,514,c),
(215,514,l),
(455,0,l),
(525,0,l),
(765,514,l),
(769,514,l),
(759,473,o),
(755,406,o),
(755,291,cs),
(755,0,l),
(896,0,l),
(896,721,l),
(724,721,l),
(573,403,ls),
(528,309,o),
(504,250,o),
(495,212,c),
(491,212,l),
(483,250,o),
(457,309,o),
(413,403,cs),
(263,721,l),
(84,721,l),
(84,0,l)
);
}
);
width = 980;
},
{
anchors = (
{
name = bottom;
pos = (478,0);
},
{
name = ogonek;
pos = (784,0);
},
{
name = top;
pos = (480,721);
}
);
hints = (
{
horizontal = 1;
origin = (0,27);
target = up;
type = BottomGhost;
},
{
horizontal = 1;
origin = (0,26);
target = (0,9);
type = Stem;
},
{
origin = (0,27);
target = (0,1);
type = Stem;
},
{
origin = (0,13);
target = (0,15);
type = Stem;
}
);
layerId = "610C2E7D-EDB4-4EC2-BEB5-F0DB9FB0A101";
shapes = (
{
closed = 1;
nodes = (
(173,0,l),
(173,387,ls),
(173,500,o),
(170,565,o),
(164,610,c),
(168,610,l),
(457,0,l),
(500,0,l),
(788,610,l),
(792,610,l),
(787,570,o),
(784,502,o),
(784,387,cs),
(784,0,l),
(869,0,l),
(869,721,l),
(755,721,l),
(560,315,ls),
(515,220,o),
(491,163,o),
(483,129,c),
(479,129,l),
(471,164,o),
(445,221,o),
(401,315,cs),
(208,721,l),
(87,721,l),
(87,0,l)
);
}
);
width = 957;
}
);
metricLeft = H;
metricRight = H;
unicode = 77;
},
{
glyphname = N;
kernLeft = H;
kernRight = H;
lastChange = "2026-03-03 00:51:57 +0000";
layers = (
{
anchors = (
{
name = bottom;
pos = (409,0);
},
{
name = ogonek;
pos = (698,0);
},
{
name = top;
pos = (400,721);
}
);
hints = (
{
horizontal = 1;
origin = (0,23);
target = up;
type = BottomGhost;
},
{
horizontal = 1;
origin = (0,22);
target = down;
type = TopGhost;
},
{
origin = (0,23);
target = (0,1);
type = Stem;
},
{
origin = (0,11);
target = (0,13);
type = Stem;
}
);
layerId = m006;
shapes = (
{
closed = 1;
nodes = (
(218,0,l),
(218,376,ls),
(218,430,o),
(216,469,o),
(212,506,c),
(215,506,l),
(222,487,o),
(243,453,o),
(261,434,cs),
(625,0,l),
(719,0,l),
(719,721,l),
(585,721,l),
(585,362,ls),
(585,293,o),
(589,253,o),
(593,228,c),
(589,228,l),
(582,247,o),
(562,284,o),
(545,304,cs),
(194,721,l),
(84,721,l),
(84,0,l)
);
}
);
width = 803;
},
{
anchors = (
{
name = bottom;
pos = (400,0);
},
{
name = ogonek;
pos = (689,0);
},
{
name = top;
pos = (390,721);
}
);
hints = (
{
horizontal = 1;
origin = (0,23);
target = up;
type = BottomGhost;
},
{
horizontal = 1;
origin = (0,22);
target = down;
type = TopGhost;
},
{
horizontal = 1;
origin = (0,23);
target = (0,17);
type = Stem;
},
{
origin = (0,23);
target = (0,1);
type = Stem;
},
{
origin = (0,11);
target = (0,13);
type = Stem;
}
);
layerId = "610C2E7D-EDB4-4EC2-BEB5-F0DB9FB0A101";
shapes = (
{
closed = 1;
nodes = (
(171,0,l),
(171,467,ls),
(171,527,o),
(169,568,o),
(165,591,c),
(168,591,l),
(172,579,o),
(188,553,o),
(210,526,cs),
(624,0,l),
(696,0,l),
(696,721,l),
(613,721,l),
(613,263,ls),
(613,187,o),
(615,156,o),
(620,134,c),
(616,134,l),
(612,146,o),
(589,180,o),
(570,205,cs),
(164,721,l),
(87,721,l),
(87,0,l)
);
}
);
width = 784;
}
);
metricLeft = H;
metricRight = H;
unicode = 78;
},
{
glyphname = Eng;
kernLeft = H;
kernRight = H;
lastChange = "2026-03-03 01:11:00 +0000";
layers = (
{
hints = (
{
horizontal = 1;
origin = (1,15);
target = (1,8);
type = Stem;
},
{
origin = (1,3);
target = (1,5);
type = Stem;
}
);
layerId = "610C2E7D-EDB4-4EC2-BEB5-F0DB9FB0A101";
shapes = (
{
ref = N;
},
{
closed = 1;
nodes = (
(628,-237,o),
(696,-166,o),
(696,-36,cs),
(696,0,l),
(613,126,l),
(613,-33,ls),
(613,-112,o),
(572,-157,o),
(509,-157,cs),
(475,-157,o),
(446,-148,o),
(423,-122,c),
(365,-192,l),
(403,-230,o),
(453,-241,o),
(512,-240,cs)
);
}
);
width = 784;
},
{
background = {
shapes = (
{
closed = 1;
nodes = (
(505,-228,o),
(522,-230,o),
(537,-230,cs),
(640,-230,o),
(696,-182,o),
(696,-69,cs),
(696,94,l),
(575,90,l),
(575,-62,ls),
(575,-89,o),
(554,-110,o),
(524,-110,cs),
(514,-110,o),
(500,-108,o),
(493,-106,c),
(493,-226,l)
);
},
{
closed = 1;
nodes = (
(640,-233,o),
(696,-170,o),
(696,-67,cs),
(696,0,l),
(575,216,l),
(575,-60,ls),
(575,-93,o),
(559,-110,o),
(530,-110,cs),
(514,-110,o),
(502,-108,o),
(485,-103,c),
(470,-223,l),
(495,-230,o),
(521,-233,o),
(537,-233,cs)
);
}
);
};
hints = (
{
horizontal = 1;
origin = (1,15);
target = (1,8);
type = Stem;
},
{
origin = (1,3);
target = (1,5);
type = Stem;
}
);
layerId = m006;
shapes = (
{
ref = N;
},
{
closed = 1;
nodes = (
(641,-236,o),
(719,-165,o),
(719,-16,cs),
(719,0,l),
(585,212,l),
(585,-26,ls),
(585,-73,o),
(552,-102,o),
(511,-102,cs),
(475,-102,o),
(448,-82,o),
(432,-61,c),
(342,-179,l),
(380,-214,o),
(435,-236,o),
(496,-236,cs)
);
}
);
width = 803;
}
);
metricLeft = H;
metricRight = H;
unicode = 330;
},
{
color = 5;
glyphname = O;
kernLeft = O;
kernRight = O;
lastChange = "2026-03-03 00:51:57 +0000";
layers = (
{
anchors = (
{
name = bottom;
pos = (403,0);
},
{
name = center;
pos = (395,348);
},
{
name = ogonek;
pos = (506,0);
},
{
name = top;
pos = (403,721);
},
{
name = topright;
pos = (619,721);
}
);
hints = (
{
horizontal = 1;
origin = (0,11);
target = (1,11);
type = Stem;
},
{
horizontal = 1;
origin = (0,5);
target = (1,5);
type = Stem;
},
{
origin = (0,8);
target = (1,2);
type = Stem;
},
{
origin = (1,8);
target = (0,2);
type = Stem;
}
);
layerId = m006;
shapes = (
{
closed = 1;
nodes = (
(619,-13,o),
(776,146,o),
(776,359,cs),
(776,574,o),
(619,734,o),
(410,734,cs),
(201,734,o),
(44,574,o),
(44,359,cs),
(44,146,o),
(201,-13,o),
(410,-13,cs)
);
},
{
closed = 1;
nodes = (
(290,129,o),
(192,208,o),
(192,359,cs),
(192,511,o),
(290,592,o),
(410,592,cs),
(528,592,o),
(628,511,o),
(628,359,cs),
(628,208,o),
(528,129,o),
(410,129,cs)
);
}
);
width = 820;
},
{
anchors = (
{
name = bottom;
pos = (403,0);
},
{
name = center;
pos = (395,348);
},
{
name = ogonek;
pos = (502,0);
},
{
name = top;
pos = (403,721);
},
{
name = topright;
pos = (614,721);
}
);
hints = (
{
horizontal = 1;
origin = (0,11);
target = (1,11);
type = Stem;
},
{
horizontal = 1;
origin = (0,5);
target = (1,5);
type = Stem;
},
{
origin = (0,8);
target = (1,2);
type = Stem;
},
{
origin = (1,8);
target = (0,2);
type = Stem;
}
);
layerId = "610C2E7D-EDB4-4EC2-BEB5-F0DB9FB0A101";
shapes = (
{
closed = 1;
nodes = (
(614,-13,o),
(760,155,o),
(760,361,cs),
(760,569,o),
(614,734,o),
(402,734,cs),
(189,734,o),
(43,567,o),
(43,359,cs),
(43,152,o),
(189,-13,o),
(402,-13,cs)
);
},
{
closed = 1;
nodes = (
(239,65,o),
(130,183,o),
(130,359,cs),
(130,536,o),
(239,656,o),
(402,656,cs),
(565,656,o),
(674,537,o),
(674,361,cs),
(674,184,o),
(565,65,o),
(402,65,cs)
);
}
);
width = 803;
}
);
unicode = 79;
},
{
glyphname = OE;
kernLeft = O;
kernRight = E;
lastChange = "2026-03-03 00:58:59 +0000";
layers = (
{
anchors = (
{
name = bottom;
pos = (674,0);
},
{
name = top;
pos = (674,721);
}
);
background = {
anchors = (
{
name = bottom;
pos = (391,0);
},
{
name = center;
pos = (384,338);
},
{
name = ogonek;
pos = (487,0);
},
{
name = top;
pos = (391,700);
},
{
name = topright;
pos = (596,700);
}
);
hints = (
{
horizontal = 1;
origin = (0,11);
target = (1,11);
type = Stem;
},
{
horizontal = 1;
origin = (0,5);
target = (1,5);
type = Stem;
},
{
origin = (0,8);
target = (1,2);
type = Stem;
},
{
origin = (1,8);
target = (0,2);
type = Stem;
}
);
shapes = (
{
closed = 1;
nodes = (
(596,-13,o),
(738,150,o),
(738,350,cs),
(738,552,o),
(596,713,o),
(390,713,cs),
(184,713,o),
(42,550,o),
(42,349,cs),
(42,148,o),
(184,-13,o),
(390,-13,cs)
);
},
{
closed = 1;
nodes = (
(232,63,o),
(126,178,o),
(126,349,cs),
(126,520,o),
(232,637,o),
(390,637,cs),
(549,637,o),
(654,521,o),
(654,350,cs),
(654,179,o),
(549,63,o),
(390,63,cs)
);
}
);
};
hints = (
{
horizontal = 1;
origin = (0,13);
target = (1,11);
type = Stem;
},
{
horizontal = 1;
origin = (0,7);
target = (1,5);
type = Stem;
},
{
origin = (0,10);
target = (1,2);
type = Stem;
},
{
place = (674,11);
type = Stem;
}
);
layerId = "610C2E7D-EDB4-4EC2-BEB5-F0DB9FB0A101";
shapes = (
{
closed = 1;
nodes = (
(647,116,l),
(683,116,l),
(687,605,l),
(658,605,l),
(714,507,l),
(662,653,o),
(561,734,o),
(402,734,cs),
(189,734,o),
(43,567,o),
(43,359,cs),
(43,152,o),
(189,-13,o),
(402,-13,cs),
(561,-13,o),
(662,69,o),
(714,209,c)
);
},
{
closed = 1;
nodes = (
(239,65,o),
(130,183,o),
(130,359,cs),
(130,536,o),
(239,656,o),
(402,656,cs),
(565,656,o),
(674,545,o),
(674,361,cs),
(674,184,o),
(565,65,o),
(402,65,cs)
);
},
{
pos = (589,0);
ref = E;
}
);
width = 1160;
},
{
anchors = (
{
name = bottom;
pos = (628,0);
},
{
name = top;
pos = (628,721);
}
);
background = {
anchors = (
{
name = bottom;
pos = (406,0);
},
{
name = center;
pos = (399,338);
},
{
name = ogonek;
pos = (506,0);
},
{
name = top;
pos = (406,700);
},
{
name = topright;
pos = (616,700);
}
);
hints = (
{
horizontal = 1;
place = (-13,138);
type = Stem;
},
{
horizontal = 1;
place = (713,138);
type = Stem;
},
{
place = (42,143);
type = Stem;
},
{
place = (609,143);
type = Stem;
},
{
horizontal = 1;
place = (0,135);
type = Stem;
},
{
horizontal = 1;
place = (287,135);
type = Stem;
},
{
horizontal = 1;
place = (700,135);
type = Stem;
},
{
place = (598,140);
type = Stem;
},
{
horizontal = 1;
origin = (0,11);
target = (1,11);
type = Stem;
},
{
horizontal = 1;
origin = (0,5);
target = (1,5);
type = Stem;
},
{
origin = (0,8);
target = (1,2);
type = Stem;
},
{
origin = (1,8);
target = (0,2);
type = Stem;
}
);
shapes = (
{
closed = 1;
nodes = (
(601,-13,o),
(753,142,o),
(753,349,cs),
(753,557,o),
(601,713,o),
(398,713,cs),
(195,713,o),
(43,557,o),
(43,349,cs),
(43,142,o),
(195,-13,o),
(398,-13,cs)
);
},
{
closed = 1;
nodes = (
(282,125,o),
(186,202,o),
(186,349,cs),
(186,496,o),
(282,575,o),
(398,575,cs),
(513,575,o),
(610,496,o),
(610,349,cs),
(610,202,o),
(513,125,o),
(398,125,cs)
);
}
);
};
hints = (
{
horizontal = 1;
origin = (0,13);
target = (1,11);
type = Stem;
},
{
horizontal = 1;
origin = (0,7);
target = (1,5);
type = Stem;
},
{
origin = (0,10);
target = (1,2);
type = Stem;
},
{
place = (628,7);
type = Stem;
}
);
layerId = m006;
shapes = (
{
closed = 1;
nodes = (
(607,71,l),
(631,71,l),
(640,649,l),
(608,649,l),
(676,565,l),
(632,667,o),
(546,734,o),
(405,734,cs),
(201,734,o),
(44,567,o),
(44,359,cs),
(44,153,o),
(201,-13,o),
(405,-13,cs),
(546,-13,o),
(632,54,o),
(676,155,c)
);
},
{
closed = 1;
nodes = (
(290,129,o),
(192,208,o),
(192,359,cs),
(192,511,o),
(290,592,o),
(410,592,cs),
(528,592,o),
(628,511,o),
(628,359,cs),
(628,208,o),
(528,129,o),
(410,129,cs)
);
},
{
pos = (546,0);
ref = E;
}
);
width = 1128;
}
);
metricLeft = O;
metricRight = E;
unicode = 338;
},
{
glyphname = P;
kernLeft = H;
kernRight = P;
lastChange = "2026-03-03 00:51:57 +0000";
layers = (
{
anchors = (
{
name = bottom;
pos = (157,0);
},
{
name = ogonek;
pos = (229,0);
},
{
name = top;
pos = (326,721);
}
);
background = {
shapes = (
{
closed = 1;
nodes = (
(166,0,l),
(166,330,l),
(132,297,l),
(308,297,ls),
(435,297,o),
(536,363,o),
(536,500,cs),
(536,636,o),
(434,702,o),
(308,701,cs),
(84,700,l),
(84,0,l)
);
},
{
closed = 1;
nodes = (
(166,660,l),
(132,625,l),
(300,625,ls),
(390,625,o),
(451,592,o),
(451,500,cs),
(451,406,o),
(390,373,o),
(300,373,cs),
(132,373,l),
(166,339,l)
);
}
);
};
hints = (
{
horizontal = 1;
origin = (0,10);
target = up;
type = BottomGhost;
},
{
horizontal = 1;
origin = (0,2);
target = (1,8);
type = Stem;
},
{
horizontal = 1;
origin = (0,9);
target = (1,1);
type = Stem;
},
{
origin = (0,10);
target = (1,8);
type = Stem;
},
{
origin = (1,4);
target = (0,5);
type = Stem;
}
);
layerId = m006;
shapes = (
{
closed = 1;
nodes = (
(229,0,l),
(229,251,l),
(338,251,ls),
(499,251,o),
(598,333,o),
(598,485,cs),
(598,637,o),
(499,721,o),
(338,721,cs),
(84,721,l),
(84,0,l)
);
},
{
closed = 1;
nodes = (
(229,582,l),
(330,582,ls),
(408,582,o),
(452,552,o),
(452,484,cs),
(452,415,o),
(408,390,o),
(330,390,cs),
(229,390,l)
);
}
);
width = 641;
},
{
anchors = (
{
name = bottom;
pos = (130,0);
},
{
name = ogonek;
pos = (172,0);
},
{
name = top;
pos = (297,721);
}
);
hints = (
{
horizontal = 1;
origin = (0,10);
target = up;
type = BottomGhost;
},
{
horizontal = 1;
origin = (0,2);
target = (1,8);
type = Stem;
},
{
horizontal = 1;
origin = (0,9);
target = (1,1);
type = Stem;
},
{
origin = (0,10);
target = (1,8);
type = Stem;
},
{
origin = (1,4);
target = (0,5);
type = Stem;
}
);
layerId = "610C2E7D-EDB4-4EC2-BEB5-F0DB9FB0A101";
shapes = (
{
closed = 1;
nodes = (
(172,0,l),
(172,306,l),
(318,306,ls),
(449,306,o),
(553,374,o),
(553,515,cs),
(553,655,o),
(448,721,o),
(318,721,cs),
(87,721,l),
(87,0,l)
);
},
{
closed = 1;
nodes = (
(172,643,l),
(310,643,ls),
(403,643,o),
(465,610,o),
(465,515,cs),
(465,418,o),
(403,384,o),
(310,384,cs),
(172,384,l)
);
}
);
width = 597;
}
);
metricLeft = H;
unicode = 80;
},
{
glyphname = Thorn;
kernLeft = H;
kernRight = Thorn;
lastChange = "2026-03-03 00:51:57 +0000";
layers = (
{
anchors = (
{
name = bottom;
pos = (312,0);
},
{
name = top;
pos = (312,721);
}
);
hints = (
{
horizontal = 1;
origin = (0,12);
target = up;
type = BottomGhost;
},
{
horizontal = 1;
origin = (0,2);
target = (1,8);
type = Stem;
},
{
horizontal = 1;
origin = (1,1);
target = (0,9);
type = Stem;
},
{
horizontal = 1;
origin = (0,11);
target = down;
type = TopGhost;
},
{
origin = (0,12);
target = (1,8);
type = Stem;
},
{
origin = (1,4);
target = (0,5);
type = Stem;
}
);
layerId = "610C2E7D-EDB4-4EC2-BEB5-F0DB9FB0A101";
shapes = (
{
closed = 1;
nodes = (
(172,0,l),
(172,155,l),
(318,155,ls),
(449,155,o),
(553,222,o),
(553,364,cs),
(553,504,o),
(448,570,o),
(318,570,cs),
(172,570,l),
(172,721,l),
(87,721,l),
(87,0,l)
);
},
{
closed = 1;
nodes = (
(172,491,l),
(310,491,ls),
(403,491,o),
(465,458,o),
(465,364,cs),
(465,267,o),
(403,233,o),
(310,233,cs),
(172,233,l)
);
}
);
width = 597;
},
{
anchors = (
{
name = bottom;
pos = (311,0);
},
{
name = top;
pos = (311,721);
}
);
background = {
anchors = (
{
name = bottom;
pos = (122,0);
},
{
name = ogonek;
pos = (192,0);
},
{
name = top;
pos = (122,700);
}
);
shapes = (
{
closed = 1;
nodes = (
(192,0,l),
(192,119,l),
(289,119,ls),
(446,119,o),
(542,204,o),
(542,352,cs),
(542,499,o),
(446,582,o),
(289,582,cs),
(190,582,l),
(190,700,l),
(52,700,l),
(52,0,l)
);
},
{
closed = 1;
nodes = (
(192,456,l),
(281,456,ls),
(357,456,o),
(400,422,o),
(400,351,cs),
(400,279,o),
(357,245,o),
(281,245,cs),
(192,245,l)
);
}
);
};
hints = (
{
horizontal = 1;
origin = (0,12);
target = up;
type = BottomGhost;
},
{
horizontal = 1;
origin = (0,2);
target = (1,8);
type = Stem;
},
{
horizontal = 1;
origin = (1,1);
target = (0,9);
type = Stem;
},
{
horizontal = 1;
origin = (0,11);
target = down;
type = TopGhost;
},
{
origin = (0,12);
target = (1,8);
type = Stem;
},
{
origin = (1,4);
target = (0,5);
type = Stem;
}
);
layerId = m006;
shapes = (
{
closed = 1;
nodes = (
(229,0,l),
(229,128,l),
(338,128,ls),
(499,128,o),
(598,209,o),
(598,362,cs),
(598,513,o),
(499,597,o),
(338,597,cs),
(229,597,l),
(229,721,l),
(84,721,l),
(84,0,l)
);
},
{
closed = 1;
nodes = (
(229,458,l),
(330,458,ls),
(408,458,o),
(452,428,o),
(452,361,cs),
(452,291,o),
(408,267,o),
(330,267,cs),
(229,267,l)
);
}
);
width = 641;
}
);
metricLeft = H;
unicode = 222;
},
{
glyphname = Q;
kernLeft = O;
kernRight = O;
lastChange = "2026-03-03 00:58:59 +0000";
layers = (
{
hints = (
{
horizontal = 1;
origin = (1,7);
target = (1,4);
type = Stem;
},
{
origin = (1,4);
target = (1,0);
type = Stem;
}
);
layerId = m006;
shapes = (
{
ref = O;
},
{
closed = 1;
nodes = (
(752,-59,l),
(610,155,l),
(605,177,l),
(545,266,l),
(388,266,l),
(503,94,l),
(506,73,l),
(595,-59,l)
);
}
);
width = 819;
},
{
layerId = "610C2E7D-EDB4-4EC2-BEB5-F0DB9FB0A101";
shapes = (
{
alignment = -1;
ref = O;
},
{
closed = 1;
nodes = (
(727,-60,l),
(616,108,l),
(610,131,l),
(518,265,l),
(428,265,l),
(553,78,l),
(558,58,l),
(638,-60,l)
);
}
);
width = 802;
}
);
metricLeft = O;
unicode = 81;
},
{
glyphname = R;
kernLeft = H;
kernRight = R;
lastChange = "2026-03-03 00:51:57 +0000";
layers = (
{
anchors = (
{
name = bottom;
pos = (345,0);
},
{
name = ogonek;
pos = (457,0);
},
{
name = top;
pos = (319,721);
}
);
background = {
shapes = (
{
closed = 1;
nodes = (
(118,0,l),
(118,293,l),
(295,293,l),
(299,298,l),
(416,298,o),
(521,368,o),
(521,498,cs),
(521,627,o),
(416,702,o),
(268,701,cs),
(62,700,l),
(62,0,l)
);
},
{
closed = 1;
nodes = (
(524,0,l),
(321,317,l),
(252,317,l),
(258,307,l),
(278,275,o),
(290,256,o),
(302,237,cs),
(451,0,l)
);
},
{
closed = 1;
nodes = (
(118,651,l),
(261,651,ls),
(394,651,o),
(463,604,o),
(463,498,cs),
(463,389,o),
(394,343,o),
(261,343,cs),
(118,343,l)
);
},
{
pos = (2,0);
ref = H;
},
{
closed = 1;
nodes = (
(222,16,l),
(222,260,l),
(328,260,ls),
(485,260,o),
(581,339,o),
(581,487,cs),
(581,634,o),
(485,716,o),
(328,716,cs),
(82,716,l),
(82,16,l)
);
},
{
closed = 1;
nodes = (
(222,581,l),
(320,581,ls),
(396,581,o),
(439,552,o),
(439,486,cs),
(439,419,o),
(396,395,o),
(320,395,cs),
(222,395,l)
);
}
);
};
hints = (
{
horizontal = 1;
origin = (0,14);
target = up;
type = BottomGhost;
},
{
horizontal = 1;
origin = (0,2);
target = (1,8);
type = Stem;
},
{
horizontal = 1;
origin = (0,13);
target = (1,1);
type = Stem;
},
{
origin = (0,14);
target = (1,8);
type = Stem;
},
{
origin = (1,4);
target = (0,9);
type = Stem;
}
);
layerId = m006;
shapes = (
{
closed = 1;
nodes = (
(229,0,l),
(229,289,l),
(274,289,l),
(457,0,l),
(627,0,l),
(395,355,l),
(368,297,l),
(511,306,o),
(600,388,o),
(600,510,cs),
(600,640,o),
(511,721,o),
(368,721,cs),
(84,721,l),
(84,0,l)
);
},
{
closed = 1;
nodes = (
(229,582,l),
(346,582,ls),
(411,582,o),
(452,552,o),
(452,504,cs),
(452,454,o),
(411,423,o),
(346,423,cs),
(229,423,l)
);
}
);
width = 653;
},
{
anchors = (
{
name = bottom;
pos = (307,0);
},
{
name = ogonek;
pos = (468,0);
},
{
name = top;
pos = (281,721);
}
);
background = {
shapes = (
{
closed = 1;
nodes = (
(223,0,l),
(223,281,l),
(267,281,l),
(445,0,l),
(610,0,l),
(385,345,l),
(358,288,l),
(497,297,o),
(584,377,o),
(584,495,cs),
(584,621,o),
(497,700,o),
(358,700,cs),
(83,700,l),
(83,0,l)
);
},
{
closed = 1;
nodes = (
(223,565,l),
(337,565,ls),
(400,565,o),
(440,536,o),
(440,489,cs),
(440,441,o),
(400,411,o),
(337,411,cs),
(223,411,l)
);
}
);
};
hints = (
{
horizontal = 1;
origin = (0,14);
target = up;
type = BottomGhost;
},
{
horizontal = 1;
origin = (0,2);
target = (1,8);
type = Stem;
},
{
horizontal = 1;
origin = (0,13);
target = (1,1);
type = Stem;
},
{
origin = (0,14);
target = (1,8);
type = Stem;
},
{
origin = (1,4);
target = (0,9);
type = Stem;
}
);
layerId = "610C2E7D-EDB4-4EC2-BEB5-F0DB9FB0A101";
shapes = (
{
closed = 1;
nodes = (
(172,0,l),
(172,312,l),
(269,312,l),
(468,0,l),
(572,0,l),
(343,352,l),
(311,317,l),
(447,320,o),
(553,388,o),
(553,522,cs),
(553,654,o),
(442,721,o),
(311,721,cs),
(87,721,l),
(87,0,l)
);
},
{
closed = 1;
nodes = (
(172,643,l),
(299,643,ls),
(397,643,o),
(464,610,o),
(464,518,cs),
(464,423,o),
(397,390,o),
(299,390,cs),
(172,390,l)
);
}
);
width = 599;
}
);
metricLeft = H;
unicode = 82;
},
{
glyphname = S;
kernLeft = S;
kernRight = S;
lastChange = "2026-03-03 00:51:57 +0000";
layers = (
{
anchors = (
{
name = bottom;
pos = (318,0);
},
{
name = ogonek;
pos = (421,0);
},
{
name = top;
pos = (339,721);
}
);
hints = (
{
horizontal = 1;
origin = (0,31);
target = (0,24);
type = Stem;
},
{
horizontal = 1;
origin = (0,15);
target = (0,8);
type = Stem;
},
{
origin = (0,18);
target = (0,5);
type = Stem;
},
{
origin = (0,21);
target = (0,2);
type = Stem;
}
);
layerId = m006;
shapes = (
{
closed = 1;
nodes = (
(482,-13,o),
(582,75,o),
(582,206,cs),
(582,465,o),
(243,409,o),
(243,521,cs),
(243,571,o),
(279,596,o),
(341,596,cs),
(392,596,o),
(426,573,o),
(458,519,c),
(578,602,l),
(520,683,o),
(456,733,o),
(344,733,cs),
(192,733,o),
(88,648,o),
(88,518,cs),
(88,262,o),
(426,341,o),
(426,204,cs),
(426,157,o),
(384,125,o),
(321,125,cs),
(262,125,o),
(211,151,o),
(172,220,c),
(47,134,l),
(115,27,o),
(204,-13,o),
(318,-13,cs)
);
}
);
width = 637;
},
{
anchors = (
{
name = bottom;
pos = (302,0);
},
{
name = ogonek;
pos = (393,0);
},
{
name = top;
pos = (317,721);
}
);
background = {
shapes = (
{
closed = 1;
nodes = (
(-712,687,o),
(-625,773,o),
(-625,880,cs),
(-625,1134,o),
(-980,1070,o),
(-980,1232,cs),
(-980,1282,o),
(-935,1337,o),
(-845,1337,cs),
(-783,1337,o),
(-734,1304,o),
(-697,1245,c),
(-630,1291,l),
(-675,1361,o),
(-741,1413,o),
(-842,1413,cs),
(-986,1413,o),
(-1064,1316,o),
(-1064,1230,cs),
(-1064,989,o),
(-710,1059,o),
(-710,874,cs),
(-710,807,o),
(-770,763,o),
(-851,763,cs),
(-930,763,o),
(-989,796,o),
(-1037,869,c),
(-1102,822,l),
(-1048,737,o),
(-962,687,o),
(-857,687,cs)
);
},
{
closed = 1;
nodes = (
(-257,687,o),
(-170,778,o),
(-170,885,cs),
(-170,1128,o),
(-525,1052,o),
(-525,1225,cs),
(-525,1288,o),
(-480,1338,o),
(-390,1338,cs),
(-328,1338,o),
(-279,1311,o),
(-243,1253,c),
(-175,1297,l),
(-220,1367,o),
(-286,1413,o),
(-387,1413,cs),
(-531,1413,o),
(-609,1322,o),
(-609,1221,cs),
(-609,981,o),
(-255,1060,o),
(-255,881,cs),
(-255,810,o),
(-315,763,o),
(-396,763,cs),
(-475,763,o),
(-534,796,o),
(-579,868,c),
(-647,822,l),
(-593,737,o),
(-507,687,o),
(-402,687,cs)
);
},
{
closed = 1;
nodes = (
(374,-13,o),
(462,29,o),
(522,102,c),
(462,151,l),
(411,93,o),
(353,63,o),
(263,63,cs),
(112,63,o),
(-11,182,o),
(-11,349,cs),
(-11,515,o),
(102,637,o),
(260,637,cs),
(336,637,o),
(404,615,o),
(455,551,c),
(516,603,l),
(453,678,o),
(367,713,o),
(260,713,cs),
(56,713,o),
(-98,553,o),
(-98,349,cs),
(-98,145,o),
(58,-13,o),
(260,-13,cs)
);
},
{
closed = 1;
nodes = (
(526,-13,o),
(682,145,o),
(682,349,cs),
(682,553,o),
(528,713,o),
(324,713,cs),
(217,713,o),
(131,678,o),
(68,603,c),
(129,551,l),
(180,615,o),
(248,637,o),
(324,637,cs),
(482,637,o),
(595,515,o),
(595,349,cs),
(595,182,o),
(472,63,o),
(321,63,cs),
(231,63,o),
(173,93,o),
(122,151,c),
(62,102,l),
(122,29,o),
(210,-13,o),
(324,-13,cs)
);
},
{
closed = 1;
nodes = (
(425,-13,o),
(525,63,o),
(525,189,cs),
(525,432,o),
(170,364,o),
(170,530,cs),
(170,592,o),
(218,638,o),
(305,638,cs),
(365,638,o),
(416,608,o),
(452,550,c),
(520,594,l),
(475,664,o),
(407,713,o),
(306,713,cs),
(167,713,o),
(86,619,o),
(86,525,cs),
(86,285,o),
(440,357,o),
(440,184,cs),
(440,102,o),
(373,63,o),
(300,63,cs),
(221,63,o),
(161,96,o),
(116,168,c),
(48,122,l),
(102,37,o),
(189,-13,o),
(294,-13,cs)
);
}
);
};
hints = (
{
horizontal = 1;
origin = (0,31);
target = (0,24);
type = Stem;
},
{
horizontal = 1;
origin = (0,15);
target = (0,8);
type = Stem;
},
{
origin = (0,18);
target = (0,5);
type = Stem;
},
{
origin = (0,21);
target = (0,2);
type = Stem;
}
);
layerId = "610C2E7D-EDB4-4EC2-BEB5-F0DB9FB0A101";
shapes = (
{
closed = 1;
nodes = (
(438,-13,o),
(541,65,o),
(541,195,cs),
(541,445,o),
(175,375,o),
(175,546,cs),
(175,610,o),
(225,657,o),
(314,657,cs),
(376,657,o),
(427,625,o),
(465,565,c),
(536,612,l),
(489,684,o),
(419,734,o),
(315,734,cs),
(172,734,o),
(89,638,o),
(89,541,cs),
(89,294,o),
(453,368,o),
(453,190,cs),
(453,105,o),
(384,65,o),
(309,65,cs),
(228,65,o),
(168,101,o),
(122,175,c),
(49,126,l),
(105,38,o),
(195,-13,o),
(303,-13,cs)
);
}
);
width = 603;
}
);
unicode = 83;
},
{
glyphname = Germandbls;
kernLeft = H;
kernRight = B;
lastChange = "2026-03-03 00:58:54 +0000";
layers = (
{
background = {
shapes = (
{
closed = 1;
nodes = (
(597,-13,o),
(697,63,o),
(697,189,cs),
(697,307,o),
(586,364,o),
(477,406,c),
(477,408,l),
(645,696,l),
(645,700,l),
(85,700,l),
(85,0,l),
(167,0,l),
(167,624,l),
(524,624,l),
(524,621,l),
(515,611,o),
(506,600,o),
(494,580,cs),
(371,370,l),
(371,357,l),
(482,322,o),
(612,295,o),
(612,187,cs),
(612,105,o),
(545,63,o),
(472,63,cs),
(393,63,o),
(333,96,o),
(288,168,c),
(220,122,l),
(274,37,o),
(361,-13,o),
(466,-13,cs)
);
}
);
};
hints = (
{
horizontal = 1;
origin = (0,32);
target = (0,25);
type = Stem;
},
{
horizontal = 1;
place = (374,59);
type = Stem;
},
{
horizontal = 1;
origin = (0,9);
target = (0,13);
type = Stem;
},
{
horizontal = 1;
origin = (0,11);
target = up;
type = BottomGhost;
},
{
origin = (0,10);
target = (0,12);
type = Stem;
},
{
origin = (0,22);
target = (0,2);
type = Stem;
}
);
layerId = "610C2E7D-EDB4-4EC2-BEB5-F0DB9FB0A101";
shapes = (
{
closed = 1;
nodes = (
(587,-13,o),
(681,73,o),
(681,212,cs),
(681,324,o),
(608,423,o),
(468,433,c),
(468,435,l),
(623,717,l),
(623,721,l),
(87,721,l),
(87,0,l),
(172,0,l),
(172,643,l),
(489,643,l),
(489,640,l),
(481,629,o),
(473,618,o),
(462,597,cs),
(341,381,l),
(341,368,l),
(505,396,o),
(594,316,o),
(594,210,cs),
(594,119,o),
(538,65,o),
(426,65,cs),
(391,65,o),
(368,68,o),
(333,80,c),
(333,3,l),
(356,-9,o),
(391,-13,o),
(423,-13,cs)
);
}
);
width = 708;
},
{
background = {
shapes = (
{
closed = 1;
nodes = (
(675,-13,o),
(774,73,o),
(774,216,cs),
(774,323,o),
(693,377,o),
(614,402,c),
(614,406,l),
(785,685,l),
(785,700,l),
(82,700,l),
(82,0,l),
(222,0,l),
(222,565,l),
(559,564,l),
(559,562,l),
(547,551,o),
(538,538,o),
(528,522,cs),
(417,349,l),
(417,341,l),
(510,301,o),
(631,294,o),
(631,203,cs),
(631,152,o),
(580,121,o),
(519,121,cs),
(461,121,o),
(403,142,o),
(365,209,c),
(253,130,l),
(319,26,o),
(405,-13,o),
(516,-13,cs)
);
},
{
closed = 1;
nodes = (
(569,-13,o),
(660,71,o),
(660,206,cs),
(660,315,o),
(589,411,o),
(453,420,c),
(453,422,l),
(604,696,l),
(604,700,l),
(84,700,l),
(84,0,l),
(166,0,l),
(166,624,l),
(474,624,l),
(474,621,l),
(466,611,o),
(458,600,o),
(448,580,cs),
(330,370,l),
(330,357,l),
(489,384,o),
(576,307,o),
(576,204,cs),
(576,116,o),
(521,63,o),
(413,63,cs),
(379,63,o),
(356,66,o),
(322,78,c),
(322,3,l),
(345,-9,o),
(379,-13,o),
(410,-13,cs)
);
}
);
};
hints = (
{
horizontal = 1;
origin = (0,32);
target = (0,25);
type = Stem;
},
{
horizontal = 1;
origin = (0,9);
target = (0,13);
type = Stem;
},
{
horizontal = 1;
origin = (0,11);
target = up;
type = BottomGhost;
},
{
origin = (0,10);
target = (0,12);
type = Stem;
},
{
origin = (0,22);
target = (0,2);
type = Stem;
}
);
layerId = m006;
shapes = (
{
closed = 1;
nodes = (
(627,-13,o),
(721,103,o),
(721,218,cs),
(721,293,o),
(687,396,o),
(567,418,c),
(567,422,l),
(730,706,l),
(730,721,l),
(84,721,l),
(84,0,l),
(229,0,l),
(229,582,l),
(508,582,l),
(508,580,l),
(496,569,o),
(488,554,o),
(479,538,cs),
(378,359,l),
(378,351,l),
(528,363,o),
(583,288,o),
(583,221,cs),
(583,144,o),
(526,111,o),
(468,111,cs),
(429,111,o),
(396,119,o),
(371,127,c),
(371,4,l),
(396,-8,o),
(445,-13,o),
(473,-13,cs)
);
}
);
width = 756;
}
);
metricLeft = H;
metricRight = R;
unicode = 7838;
},
{
glyphname = T;
kernLeft = T;
kernRight = T;
lastChange = "2026-03-03 00:51:57 +0000";
layers = (
{
anchors = (
{
name = bottom;
pos = (325,0);
},
{
name = center;
pos = (325,333);
},
{
name = ogonek;
pos = (299,0);
},
{
name = top;
pos = (325,721);
}
);
hints = (
{
horizontal = 1;
origin = (0,3);
target = up;
type = BottomGhost;
},
{
horizontal = 1;
origin = (1,2);
target = (1,3);
type = Stem;
},
{
origin = (0,3);
target = (0,1);
type = Stem;
}
);
layerId = m006;
shapes = (
{
closed = 1;
nodes = (
(398,0,l),
(398,654,l),
(253,654,l),
(253,0,l)
);
},
{
closed = 1;
nodes = (
(604,582,l),
(604,721,l),
(47,721,l),
(47,582,l)
);
}
);
width = 651;
},
{
anchors = (
{
name = bottom;
pos = (306,0);
},
{
name = center;
pos = (306,333);
},
{
name = ogonek;
pos = (348,0);
},
{
name = top;
pos = (306,721);
}
);
hints = (
{
horizontal = 1;
options = 4;
origin = (0,3);
type = TTSnap;
},
{
horizontal = 1;
options = 4;
origin = (1,2);
target = (1,0);
type = TTStem;
},
{
horizontal = 1;
origin = (0,3);
target = up;
type = BottomGhost;
},
{
horizontal = 1;
origin = (1,2);
target = (1,3);
type = Stem;
},
{
origin = (0,3);
target = (0,1);
type = Stem;
}
);
layerId = "610C2E7D-EDB4-4EC2-BEB5-F0DB9FB0A101";
shapes = (
{
closed = 1;
nodes = (
(348,0,l),
(348,681,l),
(264,681,l),
(264,0,l)
);
},
{
closed = 1;
nodes = (
(561,643,l),
(561,721,l),
(49,721,l),
(49,643,l)
);
}
);
width = 611;
}
);
unicode = 84;
},
{
glyphname = U;
kernLeft = U;
kernRight = U;
lastChange = "2026-03-03 00:51:57 +0000";
layers = (
{
anchors = (
{
name = bottom;
pos = (366,0);
},
{
name = ogonek;
pos = (365,0);
},
{
name = top;
pos = (366,705);
},
{
name = top_ring;
pos = (366,666);
},
{
name = topright;
pos = (665,721);
}
);
hints = (
{
horizontal = 1;
origin = (0,17);
target = (0,8);
type = Stem;
},
{
horizontal = 1;
origin = (0,13);
target = down;
type = TopGhost;
},
{
origin = (0,12);
target = (0,14);
type = Stem;
},
{
origin = (0,3);
target = (0,5);
type = Stem;
}
);
layerId = m006;
shapes = (
{
closed = 1;
nodes = (
(542,-13,o),
(657,102,o),
(657,267,cs),
(657,721,l),
(513,721,l),
(513,282,ls),
(513,180,o),
(464,121,o),
(366,121,cs),
(267,121,o),
(218,180,o),
(218,282,cs),
(218,721,l),
(74,721,l),
(74,267,ls),
(74,102,o),
(189,-13,o),
(366,-13,cs)
);
}
);
width = 731;
},
{
anchors = (
{
name = bottom;
pos = (360,0);
},
{
name = ogonek;
pos = (377,0);
},
{
name = top;
pos = (360,705);
},
{
name = top_ring;
pos = (360,666);
},
{
name = topright;
pos = (660,721);
}
);
hints = (
{
horizontal = 1;
origin = (0,17);
target = (0,8);
type = Stem;
},
{
horizontal = 1;
origin = (0,13);
target = down;
type = TopGhost;
},
{
origin = (0,12);
target = (0,14);
type = Stem;
},
{
origin = (0,3);
target = (0,5);
type = Stem;
}
);
layerId = "610C2E7D-EDB4-4EC2-BEB5-F0DB9FB0A101";
shapes = (
{
closed = 1;
nodes = (
(537,-13,o),
(646,103,o),
(646,274,cs),
(646,721,l),
(559,721,l),
(559,272,ls),
(559,140,o),
(487,66,o),
(360,66,cs),
(235,66,o),
(163,142,o),
(163,279,cs),
(163,721,l),
(76,721,l),
(76,267,ls),
(76,103,o),
(184,-13,o),
(360,-13,cs)
);
}
);
width = 722;
}
);
unicode = 85;
},
{
glyphname = V;
kernLeft = V;
kernRight = V;
lastChange = "2026-03-03 00:58:59 +0000";
layers = (
{
anchors = (
{
name = bottom;
pos = (373,0);
},
{
name = ogonek;
pos = (443,0);
},
{
name = top;
pos = (373,721);
}
);
background = {
shapes = (
{
closed = 1;
nodes = (
(524,700,l),
(464,534,l),
(449,493,l),
(367,273,ls),
(350,227,o),
(340,191,o),
(335,171,c),
(327,171,l),
(322,191,o),
(310,227,o),
(293,273,cs),
(211,493,l),
(196,534,l),
(136,700,l),
(-16,700,l),
(269,0,l),
(390,0,l),
(676,700,l)
);
},
{
closed = 1;
nodes = (
(147,561,l),
(147,451,l),
(526,451,l),
(526,561,l)
);
}
);
};
hints = (
{
horizontal = 1;
origin = (0,13);
target = up;
type = BottomGhost;
},
{
horizontal = 1;
origin = (0,12);
target = down;
type = TopGhost;
},
{
horizontal = 1;
origin = (0,13);
target = (0,7);
type = Stem;
}
);
layerId = m006;
shapes = (
{
closed = 1;
nodes = (
(443,0,l),
(728,721,l),
(568,721,l),
(403,263,ls),
(396,243,o),
(381,202,o),
(377,176,c),
(369,176,l),
(365,202,o),
(349,243,o),
(342,263,cs),
(177,721,l),
(13,721,l),
(301,0,l)
);
}
);
width = 741;
},
{
anchors = (
{
name = bottom;
pos = (359,0);
},
{
name = ogonek;
pos = (391,0);
},
{
name = top;
pos = (359,721);
}
);
background = {
shapes = (
{
closed = 1;
nodes = (
(401,0,l),
(677,700,l),
(588,700,l),
(398,196,ls),
(381,153,o),
(374,127,o),
(367,100,c),
(362,100,l),
(355,127,o),
(347,155,o),
(331,196,cs),
(141,700,l),
(51,700,l),
(328,0,l)
);
},
{
closed = 1;
nodes = (
(451,0,l),
(451,289,l),
(681,700,l),
(586,700,l),
(478,493,ls),
(436,414,o),
(418,366,o),
(414,354,c),
(411,354,l),
(408,366,o),
(388,409,o),
(343,492,cs),
(229,700,l),
(134,700,l),
(367,290,l),
(367,0,l)
);
},
{
ref = O;
}
);
};
hints = (
{
horizontal = 1;
origin = (0,13);
target = up;
type = BottomGhost;
},
{
horizontal = 1;
origin = (0,12);
target = down;
type = TopGhost;
},
{
horizontal = 1;
origin = (0,13);
target = (0,7);
type = Stem;
}
);
layerId = "610C2E7D-EDB4-4EC2-BEB5-F0DB9FB0A101";
shapes = (
{
closed = 1;
nodes = (
(391,0,l),
(697,721,l),
(595,721,l),
(393,212,ls),
(376,167,o),
(368,141,o),
(359,113,c),
(354,113,l),
(346,141,o),
(337,170,o),
(320,212,cs),
(118,721,l),
(15,721,l),
(322,0,l)
);
}
);
width = 713;
}
);
metricLeft = "=A+2";
metricRight = "=A+2";
unicode = 86;
},
{
glyphname = W;
kernLeft = W;
kernRight = W;
lastChange = "2026-03-03 00:58:59 +0000";
layers = (
{
anchors = (
{
name = bottom;
pos = (570,0);
},
{
name = top;
pos = (570,721);
}
);
hints = (
{
horizontal = 1;
origin = (0,33);
target = up;
type = BottomGhost;
},
{
horizontal = 1;
origin = (0,32);
target = down;
type = TopGhost;
},
{
horizontal = 1;
origin = (0,33);
target = (0,27);
type = Stem;
}
);
layerId = m006;
shapes = (
{
closed = 1;
nodes = (
(393,0,l),
(540,407,ls),
(559,461,o),
(562,489,o),
(567,516,c),
(571,516,l),
(575,489,o),
(580,462,o),
(599,407,cs),
(746,0,l),
(876,0,l),
(1117,721,l),
(952,721,l),
(836,313,ls),
(819,258,o),
(815,231,o),
(810,204,c),
(805,204,l),
(800,231,o),
(797,258,o),
(778,313,cs),
(635,721,l),
(505,721,l),
(362,313,ls),
(344,258,o),
(339,231,o),
(334,204,c),
(330,204,l),
(324,231,o),
(318,256,o),
(303,313,cs),
(187,721,l),
(23,721,l),
(264,0,l)
);
}
);
width = 1140;
},
{
anchors = (
{
name = bottom;
pos = (532,0);
},
{
name = top;
pos = (532,721);
}
);
background = {
shapes = (
{
closed = 1;
nodes = (
(330,0,l),
(330,289,l),
(560,700,l),
(465,700,l),
(357,493,ls),
(315,414,o),
(297,366,o),
(293,354,c),
(290,354,l),
(287,366,o),
(267,409,o),
(222,492,cs),
(108,700,l),
(13,700,l),
(246,290,l),
(246,0,l)
);
},
{
closed = 1;
nodes = (
(780,0,l),
(780,289,l),
(1010,700,l),
(915,700,l),
(807,493,ls),
(765,414,o),
(747,366,o),
(743,354,c),
(740,354,l),
(737,366,o),
(717,409,o),
(672,492,cs),
(558,700,l),
(463,700,l),
(696,290,l),
(696,0,l)
);
},
{
closed = 1;
nodes = (
(322,0,l),
(487,488,ls),
(505,541,o),
(509,564,o),
(514,591,c),
(518,591,l),
(523,564,o),
(526,542,o),
(544,488,cs),
(706,0,l),
(775,0,l),
(1008,700,l),
(928,700,l),
(768,213,ls),
(751,160,o),
(748,135,o),
(743,109,c),
(739,109,l),
(734,135,o),
(731,159,o),
(713,213,cs),
(555,700,l),
(483,700,l),
(319,213,ls),
(301,160,o),
(298,135,o),
(293,109,c),
(289,109,l),
(284,135,o),
(280,159,o),
(263,213,cs),
(108,700,l),
(24,700,l),
(253,0,l)
);
}
);
};
hints = (
{
horizontal = 1;
origin = (0,33);
target = (0,27);
type = Stem;
},
{
horizontal = 1;
origin = (0,32);
target = (0,5);
type = Stem;
}
);
layerId = "610C2E7D-EDB4-4EC2-BEB5-F0DB9FB0A101";
shapes = (
{
closed = 1;
nodes = (
(339,0,l),
(502,503,ls),
(520,557,o),
(524,581,o),
(529,609,c),
(534,609,l),
(539,581,o),
(542,558,o),
(560,503,cs),
(721,0,l),
(805,0,l),
(1038,721,l),
(946,721,l),
(791,219,ls),
(774,165,o),
(770,139,o),
(765,112,c),
(761,112,l),
(756,139,o),
(753,164,o),
(734,219,cs),
(579,721,l),
(491,721,l),
(329,219,ls),
(310,165,o),
(307,139,o),
(302,112,c),
(298,112,l),
(293,139,o),
(288,164,o),
(271,219,cs),
(122,721,l),
(25,721,l),
(254,0,l)
);
}
);
width = 1064;
}
);
metricLeft = "=V+10";
metricRight = "=V+10";
unicode = 87;
},
{
glyphname = X;
lastChange = "2026-03-03 00:51:57 +0000";
layers = (
{
anchors = (
{
name = bottom;
pos = (345,0);
},
{
name = top;
pos = (345,721);
}
);
background = {
shapes = (
{
closed = 1;
nodes = (
(157,0,l),
(309,236,l),
(305,236,l),
(453,0,l),
(622,0,l),
(357,401,l),
(371,314,l),
(611,700,l),
(448,700,l),
(305,466,l),
(308,466,l),
(169,700,l),
(2,700,l),
(244,314,l),
(254,401,l),
(-9,0,l)
);
}
);
};
hints = (
{
horizontal = 1;
origin = (0,13);
target = up;
type = BottomGhost;
},
{
horizontal = 1;
origin = (0,11);
target = down;
type = TopGhost;
}
);
layerId = m006;
shapes = (
{
closed = 1;
nodes = (
(193,0,l),
(345,242,l),
(349,242,l),
(497,0,l),
(672,0,l),
(435,358,l),
(660,721,l),
(492,721,l),
(349,479,l),
(345,479,l),
(205,721,l),
(33,721,l),
(259,362,l),
(22,0,l)
);
}
);
width = 690;
},
{
anchors = (
{
name = bottom;
pos = (334,0);
},
{
name = top;
pos = (334,721);
}
);
hints = (
{
horizontal = 1;
origin = (0,13);
target = up;
type = BottomGhost;
},
{
horizontal = 1;
origin = (0,11);
target = down;
type = TopGhost;
}
);
layerId = "610C2E7D-EDB4-4EC2-BEB5-F0DB9FB0A101";
shapes = (
{
closed = 1;
nodes = (
(130,0,l),
(334,293,l),
(338,293,l),
(538,0,l),
(646,0,l),
(390,358,l),
(634,721,l),
(532,721,l),
(338,427,l),
(334,427,l),
(142,721,l),
(35,721,l),
(281,362,l),
(24,0,l)
);
}
);
width = 666;
}
);
unicode = 88;
},
{
glyphname = Y;
kernLeft = Y;
kernRight = Y;
lastChange = "2026-03-03 00:51:57 +0000";
layers = (
{
anchors = (
{
name = bottom;
pos = (322,0);
},
{
name = top;
pos = (322,721);
},
{
name = topleft;
pos = (21,721);
}
);
background = {
shapes = (
{
closed = 1;
nodes = (
(351,0,l),
(351,278,l),
(588,700,l),
(435,700,l),
(330,499,ls),
(311,463,o),
(291,424,o),
(283,397,c),
(288,397,l),
(280,424,o),
(257,464,o),
(238,499,cs),
(128,700,l),
(-26,700,l),
(211,281,l),
(211,0,l)
);
}
);
};
hints = (
{
horizontal = 1;
origin = (0,15);
target = up;
type = BottomGhost;
},
{
horizontal = 1;
origin = (0,13);
target = down;
type = TopGhost;
},
{
origin = (0,15);
target = (0,4);
type = Stem;
},
{
origin = (0,15);
target = (0,8);
type = Stem;
}
);
layerId = m006;
shapes = (
{
closed = 1;
nodes = (
(392,0,l),
(392,286,l),
(637,721,l),
(479,721,l),
(392,555,ls),
(349,474,o),
(331,419,o),
(327,407,c),
(323,407,l),
(320,419,o),
(301,469,o),
(254,554,cs),
(163,721,l),
(4,721,l),
(248,289,l),
(248,0,l)
);
}
);
width = 641;
},
{
anchors = (
{
name = bottom;
pos = (289,0);
},
{
name = top;
pos = (290,721);
},
{
name = topleft;
pos = (21,721);
}
);
hints = (
{
horizontal = 1;
origin = (0,15);
target = up;
type = BottomGhost;
},
{
horizontal = 1;
origin = (0,13);
target = down;
type = TopGhost;
},
{
origin = (0,15);
target = (0,1);
type = Stem;
},
{
origin = (0,15);
target = (0,8);
type = Stem;
}
);
layerId = "610C2E7D-EDB4-4EC2-BEB5-F0DB9FB0A101";
shapes = (
{
closed = 1;
nodes = (
(332,0,l),
(332,298,l),
(570,721,l),
(471,721,l),
(358,508,ls),
(315,425,o),
(297,377,o),
(293,365,c),
(289,365,l),
(286,377,o),
(265,421,o),
(219,507,cs),
(105,721,l),
(6,721,l),
(247,299,l),
(247,0,l)
);
}
);
width = 576;
}
);
unicode = 89;
},
{
glyphname = Z;
kernLeft = Z;
kernRight = Z;
lastChange = "2026-03-03 00:51:57 +0000";
layers = (
{
anchors = (
{
name = bottom;
pos = (335,0);
},
{
name = center;
pos = (335,361);
},
{
name = top;
pos = (335,721);
}
);
background = {
shapes = (
{
closed = 1;
nodes = (
(175,400,l),
(175,523,l),
(-185,523,l),
(-185,502,l),
(-168,519,o),
(-154,537,o),
(-143,555,cs),
(175,1085,l),
(175,1100,l),
(-370,1100,l),
(-370,977,l),
(-29,977,l),
(-29,998,l),
(-46,981,o),
(-60,963,o),
(-71,945,cs),
(-389,415,l),
(-389,400,l)
);
},
{
closed = 1;
nodes = (
(605,0,l),
(605,123,l),
(257,123,l),
(257,125,l),
(274,139,o),
(286,152,o),
(304,181,cs),
(605,685,l),
(605,700,l),
(60,700,l),
(60,577,l),
(389,577,l),
(389,575,l),
(372,561,o),
(360,547,o),
(345,523,cs),
(41,15,l),
(41,0,l)
);
}
);
};
hints = (
{
horizontal = 1;
origin = (0,17);
target = (0,2);
type = Stem;
},
{
horizontal = 1;
origin = (0,9);
target = (0,11);
type = Stem;
}
);
layerId = m006;
shapes = (
{
closed = 1;
nodes = (
(623,0,l),
(623,137,l),
(277,137,l),
(277,139,l),
(291,153,o),
(303,169,o),
(313,186,cs),
(623,706,l),
(623,721,l),
(62,721,l),
(62,582,l),
(387,582,l),
(387,580,l),
(375,569,o),
(366,555,o),
(355,539,cs),
(42,15,l),
(42,0,l)
);
}
);
width = 669;
},
{
anchors = (
{
name = bottom;
pos = (331,0);
},
{
name = center;
pos = (331,361);
},
{
name = top;
pos = (331,721);
}
);
hints = (
{
horizontal = 1;
origin = (0,17);
target = (0,2);
type = Stem;
},
{
horizontal = 1;
origin = (0,9);
target = (0,11);
type = Stem;
}
);
layerId = "610C2E7D-EDB4-4EC2-BEB5-F0DB9FB0A101";
shapes = (
{
closed = 1;
nodes = (
(612,0,l),
(612,78,l),
(174,78,l),
(174,81,l),
(187,91,o),
(201,106,o),
(229,145,cs),
(612,706,l),
(612,721,l),
(64,721,l),
(64,643,l),
(475,643,l),
(475,640,l),
(461,630,o),
(448,615,o),
(422,577,cs),
(44,15,l),
(44,0,l)
);
}
);
width = 660;
}
);
unicode = 90;
},
{
glyphname = Saltillo;
lastChange = "2026-03-03 00:51:57 +0000";
layers = (
{
background = {
shapes = (
{
pos = (12,0);
ref = exclam;
}
);
};
hints = (
{
horizontal = 1;
origin = (0,3);
target = down;
type = TopGhost;
},
{
origin = (0,2);
target = (0,4);
type = Stem;
}
);
layerId = "610C2E7D-EDB4-4EC2-BEB5-F0DB9FB0A101";
shapes = (
{
closed = 1;
nodes = (
(147,199,l),
(171,594,l),
(171,721,l),
(78,721,l),
(78,594,l),
(102,199,l)
);
}
);
width = 249;
},
{
hints = (
{
horizontal = 1;
origin = (0,3);
target = down;
type = TopGhost;
},
{
origin = (0,2);
target = (0,4);
type = Stem;
}
);
layerId = m006;
shapes = (
{
closed = 1;
nodes = (
(199,199,l),
(222,594,l),
(222,721,l),
(78,721,l),
(78,594,l),
(102,199,l)
);
}
);
width = 301;
}
);
unicode = 42891;
},
{
glyphname = G.ss02;
kernLeft = O;
kernRight = G.ss02;
lastChange = "2026-03-03 00:58:59 +0000";
layers = (
{
anchors = (
{
name = bottom;
pos = (409,0);
},
{
name = ogonek;
pos = (540,9);
},
{
name = top;
pos = (409,721);
}
);
background = {
shapes = (
{
pos = (1,0);
ref = O;
},
{
pos = (1,0);
ref = C;
},
{
closed = 1;
nodes = (
(493,-13,o),
(584,6,o),
(686,98,c),
(686,367,l),
(364,367,l),
(364,295,l),
(634,296,l),
(610,318,l),
(610,95,l),
(634,152,l),
(552,83,o),
(495,63,o),
(398,63,cs),
(240,63,o),
(129,187,o),
(129,349,cs),
(129,511,o),
(231,637,o),
(398,637,cs),
(481,637,o),
(550,608,o),
(595,550,c),
(656,603,l),
(589,680,o),
(511,713,o),
(397,713,cs),
(188,713,o),
(42,555,o),
(42,349,cs),
(42,144,o),
(192,-13,o),
(397,-13,cs)
);
},
{
closed = 1;
nodes = (
(192,713,o),
(42,556,o),
(42,351,cs),
(42,145,o),
(188,-13,o),
(397,-13,cs),
(479,-13,o),
(562,11,o),
(639,57,c),
(597,127,l),
(536,85,o),
(481,63,o),
(398,63,cs),
(231,63,o),
(129,189,o),
(129,351,cs),
(129,513,o),
(240,637,o),
(398,637,cs),
(469,637,o),
(526,624,o),
(604,587,c),
(580,618,l),
(580,382,l),
(624,404,l),
(364,405,l),
(364,333,l),
(656,333,l),
(656,641,l),
(554,700,o),
(493,713,o),
(397,713,cs)
);
}
);
};
hints = (
{
horizontal = 1;
origin = (0,31);
target = (0,12);
type = Stem;
},
{
horizontal = 1;
origin = (0,6);
target = (0,4);
type = Stem;
},
{
horizontal = 1;
origin = (0,25);
target = (0,18);
type = Stem;
},
{
origin = (0,28);
target = (0,15);
type = Stem;
},
{
origin = (0,8);
target = (0,3);
type = Stem;
}
);
layerId = "610C2E7D-EDB4-4EC2-BEB5-F0DB9FB0A101";
shapes = (
{
closed = 1;
nodes = (
(524,-13,o),
(615,29,o),
(687,101,c),
(687,378,l),
(375,378,l),
(375,302,l),
(643,303,l),
(605,328,l),
(605,84,l),
(628,156,l),
(565,96,o),
(505,65,o),
(410,65,cs),
(247,65,o),
(133,193,o),
(133,359,cs),
(133,526,o),
(238,656,o),
(410,656,cs),
(488,656,o),
(558,633,o),
(611,568,c),
(674,621,l),
(609,698,o),
(520,734,o),
(409,734,cs),
(194,734,o),
(43,572,o),
(43,359,cs),
(43,148,o),
(198,-13,o),
(409,-13,cs)
);
}
);
width = 757;
},
{
anchors = (
{
name = bottom;
pos = (422,0);
},
{
name = ogonek;
pos = (546,9);
},
{
name = top;
pos = (412,721);
}
);
background = {
shapes = (
{
pos = (1,0);
ref = O;
},
{
pos = (1,0);
ref = C;
},
{
closed = 1;
nodes = (
(629,-13,o),
(776,149,o),
(776,349,cs),
(776,550,o),
(629,713,o),
(421,713,cs),
(307,713,o),
(226,682,o),
(152,601,c),
(252,506,l),
(299,555,o),
(342,575,o),
(418,575,cs),
(544,575,o),
(631,477,o),
(631,349,cs),
(631,221,o),
(544,125,o),
(418,125,cs),
(353,125,o),
(298,142,o),
(256,175,c),
(256,285,l),
(237,272,l),
(474,272,l),
(474,390,l),
(114,390,l),
(113,122,l),
(184,33,o),
(289,-13,o),
(421,-13,cs)
);
},
{
pos = (1,0);
ref = G;
},
{
pos = (38,0);
ref = E;
}
);
};
hints = (
{
horizontal = 1;
origin = (0,31);
target = (0,12);
type = Stem;
},
{
horizontal = 1;
origin = (0,6);
target = (0,4);
type = Stem;
},
{
horizontal = 1;
origin = (0,25);
target = (0,18);
type = Stem;
},
{
origin = (0,28);
target = (0,15);
type = Stem;
},
{
origin = (0,8);
target = (0,3);
type = Stem;
}
);
layerId = m006;
shapes = (
{
closed = 1;
nodes = (
(544,-13,o),
(646,36,o),
(700,100,c),
(700,418,l),
(376,418,l),
(376,284,l),
(619,284,l),
(557,304,l),
(557,121,l),
(596,196,l),
(556,151,o),
(484,129,o),
(423,129,cs),
(289,129,o),
(194,228,o),
(194,359,cs),
(194,497,o),
(283,592,o),
(424,592,cs),
(494,592,o),
(541,567,o),
(584,521,c),
(687,619,l),
(619,699,o),
(524,734,o),
(420,734,cs),
(212,734,o),
(44,562,o),
(44,359,cs),
(44,146,o),
(202,-13,o),
(420,-13,cs)
);
}
);
width = 767;
}
);
metricLeft = O;
metricRight = "=H*0.8";
},
{
glyphname = C.ss10;
kernLeft = O;
kernRight = C.ss10;
lastChange = "2026-03-03 00:51:57 +0000";
layers = (
{
anchors = (
{
name = bottom;
pos = (412,0);
},
{
name = ogonek;
pos = (518,0);
},
{
name = top;
pos = (412,721);
}
);
background = {
anchors = (
{
name = bottom;
pos = (400,0);
},
{
name = ogonek;
pos = (503,0);
},
{
name = top;
pos = (400,700);
}
);
shapes = (
{
closed = 1;
nodes = (
(514,-13,o),
(602,29,o),
(662,102,c),
(602,151,l),
(551,93,o),
(493,63,o),
(403,63,cs),
(252,63,o),
(129,182,o),
(129,349,cs),
(129,515,o),
(242,637,o),
(400,637,cs),
(476,637,o),
(544,615,o),
(595,551,c),
(656,603,l),
(593,678,o),
(507,713,o),
(400,713,cs),
(196,713,o),
(42,553,o),
(42,349,cs),
(42,145,o),
(198,-13,o),
(400,-13,cs)
);
},
{
closed = 1;
nodes = (
(461,-13,o),
(509,-5,o),
(555,19,c),
(566,178,l),
(522,142,o),
(470,126,o),
(408,126,cs),
(273,126,o),
(188,221,o),
(188,349,cs),
(188,475,o),
(267,574,o),
(406,574,cs),
(468,574,o),
(522,555,o),
(565,511,c),
(565,673,l),
(525,699,o),
(467,713,o),
(406,713,cs),
(190,713,o),
(43,550,o),
(43,349,cs),
(43,149,o),
(198,-13,o),
(406,-13,cs)
);
}
);
};
hints = (
{
horizontal = 1;
origin = (0,25);
target = (0,6);
type = Stem;
},
{
horizontal = 1;
origin = (0,19);
target = (0,12);
type = Stem;
},
{
origin = (0,22);
target = (0,9);
type = Stem;
}
);
layerId = "610C2E7D-EDB4-4EC2-BEB5-F0DB9FB0A101";
shapes = (
{
closed = 1;
nodes = (
(473,-13,o),
(525,-2,o),
(572,20,c),
(578,119,l),
(535,85,o),
(484,69,o),
(415,69,cs),
(260,69,o),
(133,187,o),
(133,359,cs),
(133,530,o),
(249,652,o),
(412,652,cs),
(476,652,o),
(534,637,o),
(582,595,c),
(582,694,l),
(532,722,o),
(476,734,o),
(412,734,cs),
(202,734,o),
(43,570,o),
(43,359,cs),
(43,149,o),
(204,-13,o),
(412,-13,cs)
);
}
);
width = 605;
},
{
anchors = (
{
name = bottom;
pos = (422,0);
},
{
name = ogonek;
pos = (528,0);
},
{
name = top;
pos = (422,721);
}
);
background = {
shapes = (
{
closed = 1;
nodes = (
(532,-13,o),
(617,36,o),
(670,100,c),
(567,190,l),
(528,147,o),
(472,125,o),
(413,125,cs),
(273,125,o),
(188,221,o),
(188,349,cs),
(188,477,o),
(273,575,o),
(410,575,cs),
(482,575,o),
(527,550,o),
(569,506,c),
(669,601,l),
(603,679,o),
(511,713,o),
(410,713,cs),
(194,713,o),
(45,550,o),
(45,349,cs),
(45,149,o),
(202,-13,o),
(410,-13,cs)
);
}
);
};
hints = (
{
horizontal = 1;
origin = (0,25);
target = (0,6);
type = Stem;
},
{
horizontal = 1;
origin = (0,19);
target = (0,12);
type = Stem;
},
{
origin = (0,22);
target = (0,9);
type = Stem;
}
);
layerId = m006;
shapes = (
{
closed = 1;
nodes = (
(475,-13,o),
(524,-5,o),
(572,20,c),
(583,186,l),
(538,149,o),
(484,133,o),
(420,133,cs),
(281,133,o),
(194,228,o),
(194,359,cs),
(194,489,o),
(275,588,o),
(418,588,cs),
(482,588,o),
(538,569,o),
(582,523,c),
(582,693,l),
(541,720,o),
(481,734,o),
(418,734,cs),
(196,734,o),
(44,567,o),
(44,359,cs),
(44,153,o),
(204,-13,o),
(418,-13,cs)
);
}
);
width = 607;
}
);
metricLeft = O;
metricRight = "=O-20";
},
{
glyphname = Eng.ss10;
kernLeft = H;
kernRight = H;
lastChange = "2026-03-03 01:05:55 +0000";
layers = (
{
hints = (
{
horizontal = 1;
origin = (1,1);
target = up;
type = BottomGhost;
},
{
origin = (1,2);
target = (1,3);
type = Stem;
}
);
layerId = "610C2E7D-EDB4-4EC2-BEB5-F0DB9FB0A101";
shapes = (
{
pos = (3,0);
ref = N;
},
{
closed = 1;
nodes = (
(616,-230,l),
(699,-230,l),
(699,0,l),
(616,67,l)
);
}
);
width = 783;
},
{
hints = (
{
horizontal = 1;
origin = (1,1);
target = up;
type = BottomGhost;
},
{
origin = (1,2);
target = (1,3);
type = Stem;
}
);
layerId = m006;
shapes = (
{
pos = (3,0);
ref = N;
},
{
closed = 1;
nodes = (
(588,-230,l),
(722,-230,l),
(722,0,l),
(588,201,l)
);
}
);
width = 804;
}
);
},
{
glyphname = a;
kernLeft = a;
kernRight = n;
lastChange = "2026-03-03 00:51:57 +0000";
layers = (
{
anchors = (
{
name = bottom;
pos = (282,0);
},
{
name = ogonek;
pos = (388,0);
},
{
name = top;
pos = (287,530);
}
);
background = {
shapes = (
{
closed = 1;
nodes = (
(203,101,o),
(176,119,o),
(176,154,cs),
(176,187,o),
(217,207,o),
(295,212,cs),
(398,219,l),
(366,251,l),
(366,213,ls),
(366,152,o),
(325,101,o),
(256,101,cs)
);
},
{
closed = 1;
nodes = (
(280,-17,o),
(331,23,o),
(354,60,c),
(360,60,l),
(360,-5,l),
(491,-5,l),
(491,500,l),
(356,500,l),
(356,210,ls),
(356,143,o),
(318,101,o),
(262,101,cs),
(204,101,o),
(165,143,o),
(165,210,cs),
(165,500,l),
(30,500,l),
(30,177,ls),
(30,66,o),
(116,-17,o),
(208,-17,cs)
);
}
);
};
hints = (
{
horizontal = 1;
options = 4;
origin = (0,28);
target = (1,11);
type = TTStem;
},
{
horizontal = 1;
options = 4;
origin = (0,5);
target = (1,11);
type = TTStem;
},
{
horizontal = 1;
origin = (0,28);
target = (1,11);
type = Stem;
},
{
horizontal = 1;
place = (225.5,107.5);
type = Stem;
},
{
horizontal = 1;
origin = (0,16);
target = (0,9);
type = Stem;
},
{
horizontal = 1;
origin = (0,5);
target = (1,11);
type = Stem;
},
{
origin = (0,25);
target = (1,2);
type = Stem;
},
{
origin = (0,4);
target = (0,6);
type = Stem;
},
{
origin = (1,8);
target = (0,6);
type = Stem;
}
);
layerId = m006;
shapes = (
{
closed = 1;
nodes = (
(309,-13,o),
(362,28,o),
(382,68,c),
(388,68,l),
(388,0,l),
(526,0,l),
(526,338,ls),
(526,452,o),
(454,544,o),
(282,544,cs),
(181,544,o),
(109,504,o),
(56,443,c),
(149,354,l),
(179,390,o),
(226,415,o),
(287,415,cs),
(352,415,o),
(384,380,o),
(384,338,cs),
(384,299,l),
(418,338,l),
(296,330,ls),
(118,317,o),
(49,249,o),
(49,155,cs),
(49,58,o),
(123,-13,o),
(224,-13,cs)
);
},
{
closed = 1;
nodes = (
(219,104,o),
(191,127,o),
(191,160,cs),
(191,194,o),
(223,217,o),
(310,223,cs),
(418,230,l),
(384,264,l),
(384,224,ls),
(384,155,o),
(334,104,o),
(269,104,cs)
);
}
);
width = 597;
},
{
anchors = (
{
name = bottom;
pos = (267,0);
},
{
name = ogonek;
pos = (404,0);
},
{
name = top;
pos = (271,515);
}
);
background = {
shapes = (
{
pos = (477,0);
ref = s;
scale = (-1,1);
}
);
};
hints = (
{
horizontal = 1;
options = 4;
place = (222,66);
type = TTStem;
},
{
horizontal = 1;
options = 4;
origin = (0,5);
type = TTSnap;
},
{
horizontal = 1;
origin = (0,28);
target = (1,11);
type = Stem;
},
{
horizontal = 1;
origin = (0,16);
target = (0,9);
type = Stem;
},
{
horizontal = 1;
origin = (0,5);
target = up;
type = BottomGhost;
},
{
origin = (0,25);
target = (1,2);
type = Stem;
},
{
origin = (1,8);
target = (0,6);
type = Stem;
},
{
origin = (0,4);
target = (0,6);
type = Stem;
}
);
layerId = "610C2E7D-EDB4-4EC2-BEB5-F0DB9FB0A101";
shapes = (
{
closed = 1;
nodes = (
(332,-14,o),
(377,40,o),
(400,78,c),
(406,78,l),
(406,0,l),
(486,0,l),
(486,337,ls),
(486,462,o),
(377,528,o),
(275,528,cs),
(177,528,o),
(115,499,o),
(55,434,c),
(111,375,l),
(156,425,o),
(206,450,o),
(271,450,cs),
(337,450,o),
(402,415,o),
(402,339,cs),
(402,295,l),
(416,307,l),
(298,299,ls),
(142,290,o),
(51,238,o),
(51,135,cs),
(51,50,o),
(126,-14,o),
(226,-14,cs)
);
},
{
closed = 1;
nodes = (
(171,58,o),
(135,86,o),
(135,140,cs),
(135,196,o),
(191,223,o),
(304,230,cs),
(414,237,l),
(402,253,l),
(402,213,ls),
(402,130,o),
(342,58,o),
(240,58,cs)
);
}
);
width = 560;
}
);
metricRight = n;
unicode = 97;
},
{
glyphname = ae;
kernLeft = a;
kernRight = e;
lastChange = "2026-03-03 00:51:57 +0000";
layers = (
{
anchors = (
{
name = bottom;
pos = (445,0);
},
{
name = ogonek;
pos = (662,0);
},
{
name = top;
pos = (445,515);
}
);
background = {
shapes = (
{
closed = 1;
nodes = (
(316,-13,o),
(359,38,o),
(381,74,c),
(387,74,l),
(387,0,l),
(463,0,l),
(463,321,ls),
(463,440,o),
(359,503,o),
(262,503,cs),
(169,503,o),
(110,475,o),
(52,413,c),
(106,357,l),
(149,405,o),
(196,429,o),
(258,429,cs),
(321,429,o),
(383,395,o),
(383,323,cs),
(383,281,l),
(396,292,l),
(284,285,ls),
(135,276,o),
(49,227,o),
(49,129,cs),
(49,48,o),
(120,-13,o),
(215,-13,cs)
);
},
{
closed = 1;
nodes = (
(163,55,o),
(129,82,o),
(129,133,cs),
(129,187,o),
(182,212,o),
(290,219,cs),
(394,226,l),
(383,241,l),
(383,203,ls),
(383,124,o),
(326,55,o),
(229,55,cs)
);
},
{
closed = 1;
nodes = (
(343,-13,o),
(394,13,o),
(452,70,c),
(398,126,l),
(355,81,o),
(320,59,o),
(265,59,cs),
(207,59,o),
(161,83,o),
(161,132,cs),
(161,173,o),
(196,195,o),
(277,214,cs),
(380,239,o),
(430,285,o),
(430,360,cs),
(430,442,o),
(353,503,o),
(257,503,cs),
(176,503,o),
(124,477,o),
(81,415,c),
(142,370,l),
(170,415,o),
(206,435,o),
(252,435,cs),
(305,435,o),
(349,406,o),
(349,367,cs),
(349,327,o),
(328,305,o),
(244,286,cs),
(129,260,o),
(80,215,o),
(80,139,cs),
(80,43,o),
(165,-13,o),
(261,-13,cs)
);
},
{
closed = 1;
nodes = (
(721,-13,o),
(794,19,o),
(840,80,c),
(783,129,l),
(748,81,o),
(702,61,o),
(634,61,cs),
(540,61,o),
(465,129,o),
(463,233,c),
(463,245,l),
(462,362,o),
(529,429,o),
(630,429,cs),
(736,429,o),
(792,352,o),
(788,245,c),
(816,284,l),
(422,284,l),
(422,214,l),
(866,214,l),
(868,223,o),
(868,236,o),
(868,246,cs),
(868,397,o),
(779,503,o),
(632,503,cs),
(486,503,o),
(383,392,o),
(383,246,cs),
(383,96,o),
(484,-13,o),
(633,-13,cs)
);
}
);
};
hints = (
{
horizontal = 1;
options = 4;
origin = (0,59);
target = (0,0);
type = TTStem;
},
{
horizontal = 1;
options = 4;
place = (222,66);
type = TTStem;
},
{
horizontal = 1;
options = 4;
origin = (0,40);
target = (0,47);
type = TTStem;
},
{
horizontal = 1;
options = 4;
origin = (0,3);
type = TTSnap;
},
{
horizontal = 1;
origin = (0,59);
target = (1,11);
type = Stem;
},
{
horizontal = 1;
origin = (0,27);
target = (0,25);
type = Stem;
},
{
horizontal = 1;
origin = (0,47);
target = (0,40);
type = Stem;
},
{
horizontal = 1;
place = (230.5,73.5);
type = Stem;
},
{
origin = (0,56);
target = (1,2);
type = Stem;
},
{
origin = (1,8);
target = (0,26);
type = Stem;
},
{
origin = (0,23,0,25);
target = (0,30);
type = Stem;
}
);
layerId = "610C2E7D-EDB4-4EC2-BEB5-F0DB9FB0A101";
shapes = (
{
closed = 1;
nodes = (
(331,-14,o),
(405,35,o),
(440,109,c),
(444,109,l),
(489,33,o),
(568,-14,o),
(664,-14,cs),
(756,-14,o),
(833,20,o),
(881,84,c),
(821,135,l),
(784,85,o),
(736,64,o),
(665,64,cs),
(566,64,o),
(487,135,o),
(485,245,c),
(485,257,l),
(484,380,o),
(554,450,o),
(660,450,cs),
(772,450,o),
(830,379,o),
(826,267,c),
(856,308,l),
(456,308,l),
(485,234,l),
(908,234,l),
(910,244,o),
(910,257,o),
(910,268,cs),
(910,426,o),
(817,528,o),
(662,528,cs),
(560,528,o),
(491,476,o),
(462,428,c),
(456,428,l),
(422,491,o),
(355,528,o),
(274,528,cs),
(181,528,o),
(115,500,o),
(55,434,c),
(111,375,l),
(156,425,o),
(195,450,o),
(269,450,cs),
(368,450,o),
(402,380,o),
(402,336,cs),
(402,269,l),
(416,309,l),
(275,300,ls),
(131,292,o),
(51,230,o),
(51,139,cs),
(51,44,o),
(140,-14,o),
(242,-14,cs)
);
},
{
closed = 1;
nodes = (
(181,64,o),
(135,90,o),
(135,143,cs),
(135,190,o),
(178,221,o),
(280,227,cs),
(414,235,l),
(402,253,l),
(402,222,ls),
(402,131,o),
(341,64,o),
(252,64,cs)
);
}
);
width = 950;
},
{
anchors = (
{
name = bottom;
pos = (443,0);
},
{
name = ogonek;
pos = (658,-14);
},
{
name = top;
pos = (456,530);
}
);
background = {
shapes = (
{
closed = 1;
nodes = (
(294,-12,o),
(345,27,o),
(364,65,c),
(370,65,l),
(370,0,l),
(501,0,l),
(501,326,ls),
(501,430,o),
(418,518,o),
(269,518,cs),
(174,518,o),
(106,480,o),
(55,422,c),
(144,337,l),
(173,371,o),
(215,395,o),
(273,395,cs),
(337,395,o),
(366,362,o),
(366,332,cs),
(366,285,l),
(398,322,l),
(282,314,ls),
(112,302,o),
(47,237,o),
(47,144,cs),
(47,55,o),
(117,-12,o),
(210,-12,cs)
);
},
{
closed = 1;
nodes = (
(206,104,o),
(176,122,o),
(176,153,cs),
(176,195,o),
(238,207,o),
(295,211,cs),
(398,218,l),
(366,250,l),
(366,212,ls),
(366,151,o),
(325,104,o),
(256,104,cs)
);
},
{
closed = 1;
nodes = (
(710,-13,o),
(789,26,o),
(832,75,c),
(743,165,l),
(717,129,o),
(669,107,o),
(619,107,cs),
(532,107,o),
(490,174,o),
(484,239,c),
(483,260,l),
(480,357,o),
(532,409,o),
(607,409,cs),
(687,409,o),
(722,357,o),
(719,265,c),
(759,316,l),
(429,316,l),
(429,216,l),
(851,216,l),
(854,225,o),
(855,245,o),
(855,262,cs),
(855,416,o),
(757,518,o),
(609,518,cs),
(461,518,o),
(348,419,o),
(348,249,cs),
(348,99,o),
(454,-13,o),
(616,-13,cs)
);
}
);
};
hints = (
{
horizontal = 1;
options = 4;
origin = (0,59);
target = (0,3);
type = TTStem;
},
{
horizontal = 1;
options = 4;
origin = (0,0);
target = (0,0);
type = TTStem;
},
{
horizontal = 1;
options = 4;
origin = (0,40);
target = (0,47);
type = TTStem;
},
{
horizontal = 1;
options = 4;
origin = (0,3);
type = TTStem;
},
{
horizontal = 1;
origin = (0,59);
target = (1,11);
type = Stem;
},
{
horizontal = 1;
origin = (1,6);
target = (0,25);
type = Stem;
},
{
horizontal = 1;
origin = (0,47);
target = (0,40);
type = Stem;
},
{
origin = (0,56);
target = (1,2);
type = Stem;
}
);
layerId = m006;
shapes = (
{
closed = 1;
nodes = (
(349,-14,o),
(406,24,o),
(442,80,c),
(447,80,l),
(477,24,o),
(566,-14,o),
(646,-14,cs),
(736,-14,o),
(819,27,o),
(864,79,c),
(771,173,l),
(743,135,o),
(693,112,o),
(640,112,cs),
(560,112,o),
(503,183,o),
(509,251,c),
(508,273,l),
(508,375,o),
(560,415,o),
(628,415,cs),
(712,415,o),
(749,375,o),
(745,278,c),
(787,332,l),
(484,332,l),
(508,227,l),
(884,227,l),
(887,236,o),
(888,257,o),
(888,275,cs),
(888,437,o),
(785,544,o),
(630,544,cs),
(555,544,o),
(494,518,o),
(456,478,c),
(448,478,l),
(410,518,o),
(354,544,o),
(282,544,cs),
(188,544,o),
(121,513,o),
(58,443,c),
(151,354,l),
(187,397,o),
(228,415,o),
(287,415,cs),
(350,415,o),
(383,380,o),
(383,350,cs),
(383,299,l),
(409,334,l),
(336,331,ls),
(128,323,o),
(49,249,o),
(49,151,cs),
(49,58,o),
(127,-14,o),
(254,-14,cs)
);
},
{
closed = 1;
nodes = (
(216,112,o),
(185,130,o),
(185,163,cs),
(185,207,o),
(260,222,o),
(350,225,cs),
(409,227,l),
(383,263,l),
(383,221,ls),
(383,169,o),
(346,112,o),
(262,112,cs)
);
}
);
width = 932;
}
);
metricRight = e;
unicode = 230;
},
{
glyphname = b;
kernLeft = l;
kernRight = o;
lastChange = "2026-03-03 00:58:00 +0000";
layers = (
{
anchors = (
{
name = bottom;
pos = (378,0);
},
{
name = ogonek;
pos = (467,0);
},
{
name = top;
pos = (148,721);
}
);
hints = (
{
horizontal = 1;
origin = (0,18);
target = (1,11);
type = Stem;
},
{
horizontal = 1;
origin = (1,5);
target = (0,5);
type = Stem;
},
{
horizontal = 1;
origin = (0,11);
target = down;
type = TopGhost;
},
{
horizontal = 1;
origin = (0,13);
target = up;
type = BottomGhost;
},
{
origin = (0,12);
target = (1,2);
type = Stem;
},
{
origin = (1,8);
target = (0,2);
type = Stem;
},
{
origin = (0,12);
target = (0,14);
type = Stem;
}
);
layerId = m006;
shapes = (
{
closed = 1;
nodes = (
(543,-14,o),
(649,118,o),
(649,265,cs),
(649,413,o),
(543,544,o),
(386,544,cs),
(315,544,o),
(246,508,o),
(226,450,c),
(219,450,l),
(219,721,l),
(78,721,l),
(78,0,l),
(215,0,l),
(215,78,l),
(221,78,l),
(241,22,o),
(311,-14,o),
(386,-14,cs)
);
},
{
closed = 1;
nodes = (
(280,116,o),
(219,180,o),
(219,265,cs),
(219,351,o),
(280,415,o),
(363,415,cs),
(446,415,o),
(507,351,o),
(507,266,cs),
(507,180,o),
(446,116,o),
(363,116,cs)
);
}
);
width = 693;
},
{
anchors = (
{
name = bottom;
pos = (346,0);
},
{
name = ogonek;
pos = (437,0);
},
{
name = top;
pos = (346,515);
}
);
hints = (
{
horizontal = 1;
origin = (0,18);
target = (1,11);
type = Stem;
},
{
horizontal = 1;
origin = (0,5);
target = (1,5);
type = Stem;
},
{
horizontal = 1;
origin = (0,11);
target = down;
type = TopGhost;
},
{
horizontal = 1;
origin = (0,13);
target = up;
type = BottomGhost;
},
{
origin = (0,12);
target = (0,10);
type = Stem;
},
{
origin = (1,8);
target = (0,2);
type = Stem;
}
);
layerId = "610C2E7D-EDB4-4EC2-BEB5-F0DB9FB0A101";
shapes = (
{
closed = 1;
nodes = (
(500,-14,o),
(607,97,o),
(607,256,cs),
(607,416,o),
(500,527,o),
(349,527,cs),
(264,527,o),
(199,480,o),
(170,419,c),
(164,419,l),
(164,721,l),
(80,721,l),
(80,0,l),
(159,0,l),
(159,99,l),
(166,99,l),
(195,36,o),
(258,-14,o),
(349,-14,cs)
);
},
{
closed = 1;
nodes = (
(232,64,o),
(163,149,o),
(163,256,cs),
(163,368,o),
(232,449,o),
(341,449,cs),
(457,449,o),
(523,370,o),
(523,257,cs),
(523,147,o),
(457,64,o),
(341,64,cs)
);
}
);
width = 646;
}
);
metricRight = o;
unicode = 98;
},
{
glyphname = c;
kernLeft = o;
kernRight = c;
lastChange = "2026-03-03 00:58:54 +0000";
layers = (
{
anchors = (
{
name = bottom;
pos = (322,0);
},
{
name = ogonek;
pos = (422,0);
},
{
name = top;
pos = (325,530);
}
);
background = {
hints = (
{
horizontal = 1;
origin = (0,11);
target = (1,11);
type = Stem;
},
{
horizontal = 1;
origin = (0,5);
target = (1,5);
type = Stem;
},
{
origin = (0,8);
target = (1,2);
type = Stem;
},
{
origin = (1,8);
target = (0,2);
type = Stem;
}
);
shapes = (
{
closed = 1;
nodes = (
(462,-13,o),
(576,101,o),
(576,252,cs),
(576,404,o),
(462,518,o),
(309,518,cs),
(156,518,o),
(42,404,o),
(42,252,cs),
(42,101,o),
(156,-13,o),
(309,-13,cs)
);
},
{
closed = 1;
nodes = (
(233,110,o),
(177,165,o),
(177,252,cs),
(177,340,o),
(233,395,o),
(309,395,cs),
(385,395,o),
(441,340,o),
(441,252,cs),
(441,165,o),
(385,110,o),
(309,110,cs)
);
},
{
closed = 1;
nodes = (
(-101,487,o),
(-35,517,o),
(20,571,c),
(-77,656,l),
(-99,628,o),
(-133,610,o),
(-182,610,cs),
(-267,610,o),
(-320,666,o),
(-320,754,cs),
(-320,841,o),
(-268,895,o),
(-185,895,cs),
(-135,895,o),
(-97,878,o),
(-75,843,c),
(23,928,l),
(-26,982,o),
(-101,1019,o),
(-187,1018,cs),
(-359,1016,o),
(-455,898,o),
(-455,754,cs),
(-455,611,o),
(-356,487,o),
(-194,487,cs)
);
},
{
closed = 1;
nodes = (
(-123,-13,o),
(-51,24,o),
(-2,87,c),
(-100,172,l),
(-127,136,o),
(-161,110,o),
(-213,110,cs),
(-299,110,o),
(-358,179,o),
(-358,260,cs),
(-358,341,o),
(-302,410,o),
(-216,410,cs),
(-170,410,o),
(-130,387,o),
(-106,351,c),
(-2,436,l),
(-46,497,o),
(-123,534,o),
(-218,533,cs),
(-377,532,o),
(-493,411,o),
(-493,260,cs),
(-493,109,o),
(-374,-13,o),
(-225,-13,cs)
);
}
);
};
hints = (
{
horizontal = 1;
origin = (0,25);
target = (0,6);
type = Stem;
},
{
horizontal = 1;
origin = (0,12);
target = (0,19);
type = Stem;
},
{
origin = (0,22);
target = (0,9);
type = Stem;
}
);
layerId = m006;
shapes = (
{
closed = 1;
nodes = (
(434,-14,o),
(504,26,o),
(555,92,c),
(448,176,l),
(424,144,o),
(385,116,o),
(334,116,cs),
(246,116,o),
(186,175,o),
(186,267,cs),
(186,357,o),
(244,415,o),
(331,415,cs),
(391,415,o),
(431,385,o),
(449,351,c),
(555,435,l),
(505,505,o),
(424,545,o),
(318,544,cs),
(148,542,o),
(44,418,o),
(44,267,cs),
(44,117,o),
(151,-14,o),
(321,-14,cs)
);
}
);
width = 592;
},
{
anchors = (
{
name = bottom;
pos = (309,0);
},
{
name = ogonek;
pos = (389,0);
},
{
name = top;
pos = (309,515);
}
);
background = {
shapes = (
{
closed = 1;
nodes = (
(142,1202,o),
(41,1090,o),
(41,945,cs),
(41,801,o),
(143,691,o),
(291,689,cs),
(377,688,o),
(443,722,o),
(491,787,c),
(432,832,l),
(395,786,o),
(358,763,o),
(291,763,cs),
(191,763,o),
(121,839,o),
(121,945,cs),
(121,1051,o),
(195,1128,o),
(295,1128,cs),
(358,1128,o),
(396,1107,o),
(431,1064,c),
(490,1110,l),
(443,1170,o),
(375,1202,o),
(291,1202,cs)
);
},
{
attr = {
strokePos = 1;
strokeWidth = 74;
};
closed = 0;
nodes = (
(426,130,l),
(398,87,o),
(351,61,o),
(289,61,cs),
(183,61,o),
(121,141,o),
(121,244,cs),
(121,349,o),
(183,427,o),
(289,427,cs),
(352,427,o),
(399,399,o),
(428,355,c)
);
}
);
};
hints = (
{
horizontal = 1;
origin = (0,25);
target = (0,6);
type = Stem;
},
{
horizontal = 1;
origin = (0,19);
target = (0,12);
type = Stem;
},
{
origin = (0,22);
target = (0,9);
type = Stem;
}
);
layerId = "610C2E7D-EDB4-4EC2-BEB5-F0DB9FB0A101";
shapes = (
{
closed = 1;
nodes = (
(391,-14,o),
(462,21,o),
(511,84,c),
(452,134,l),
(417,86,o),
(373,64,o),
(307,64,cs),
(198,64,o),
(124,147,o),
(124,257,cs),
(124,365,o),
(194,449,o),
(302,449,cs),
(367,449,o),
(410,426,o),
(451,377,c),
(512,425,l),
(462,492,o),
(388,528,o),
(299,527,cs),
(148,525,o),
(40,403,o),
(40,257,cs),
(40,110,o),
(150,-14,o),
(302,-14,cs)
);
}
);
width = 544;
}
);
metricRight = "=o-7";
unicode = 99;
},
{
glyphname = d;
kernLeft = o;
kernRight = l;
lastChange = "2026-03-03 00:58:18 +0000";
layers = (
{
anchors = (
{
name = bar;
pos = (512,639);
},
{
name = bottom;
pos = (314,0);
},
{
name = center;
pos = (330,266);
},
{
name = top;
pos = (314,530);
},
{
name = topright;
pos = (687,721);
}
);
background = {
shapes = (
{
closed = 1;
nodes = (
(364,-13,o),
(424,28,o),
(446,74,c),
(451,74,l),
(451,0,l),
(586,0,l),
(586,740,l),
(451,740,l),
(451,414,l),
(446,414,l),
(424,460,o),
(364,501,o),
(292,501,cs),
(149,501,o),
(52,393,o),
(52,243,cs),
(52,93,o),
(149,-13,o),
(292,-13,cs)
);
},
{
closed = 1;
nodes = (
(232,109,o),
(187,165,o),
(187,244,cs),
(187,325,o),
(232,379,o),
(318,379,cs),
(396,379,o),
(445,321,o),
(445,243,cs),
(445,166,o),
(396,109,o),
(318,109,cs)
);
}
);
};
hints = (
{
horizontal = 1;
origin = (0,18);
target = (1,11);
type = Stem;
},
{
horizontal = 1;
origin = (1,5);
target = (0,12);
type = Stem;
},
{
horizontal = 1;
origin = (0,7);
target = down;
type = TopGhost;
},
{
horizontal = 1;
origin = (0,5);
target = up;
type = BottomGhost;
},
{
origin = (0,15);
target = (1,2);
type = Stem;
},
{
origin = (1,8);
target = (0,6);
type = Stem;
},
{
origin = (0,4);
target = (0,6);
type = Stem;
}
);
layerId = m006;
shapes = (
{
closed = 1;
nodes = (
(382,-14,o),
(451,22,o),
(471,78,c),
(478,78,l),
(478,0,l),
(615,0,l),
(615,721,l),
(473,721,l),
(473,450,l),
(467,450,l),
(447,508,o),
(378,544,o),
(307,544,cs),
(150,544,o),
(44,413,o),
(44,265,cs),
(44,118,o),
(150,-14,o),
(307,-14,cs)
);
},
{
closed = 1;
nodes = (
(247,116,o),
(186,180,o),
(186,266,cs),
(186,351,o),
(247,415,o),
(330,415,cs),
(413,415,o),
(473,351,o),
(473,265,cs),
(473,180,o),
(413,116,o),
(330,116,cs)
);
}
);
width = 692;
},
{
anchors = (
{
name = bar;
pos = (492,615);
},
{
name = bottom;
pos = (289,0);
},
{
name = center;
pos = (294,257);
},
{
name = top;
pos = (290,491);
},
{
name = topright;
pos = (631,721);
}
);
hints = (
{
horizontal = 1;
options = 4;
origin = (0,18);
target = (1,11);
type = TTStem;
},
{
horizontal = 1;
options = 4;
origin = (0,12);
target = (1,5);
type = TTStem;
},
{
horizontal = 1;
options = 4;
origin = (0,7);
type = TTSnap;
},
{
horizontal = 1;
options = 4;
origin = (0,5);
type = TTSnap;
},
{
horizontal = 1;
origin = (0,18);
target = (1,11);
type = Stem;
},
{
horizontal = 1;
origin = (1,5);
target = (0,12);
type = Stem;
},
{
horizontal = 1;
origin = (0,7);
target = down;
type = TopGhost;
},
{
horizontal = 1;
origin = (0,5);
target = up;
type = BottomGhost;
},
{
origin = (0,15);
target = (1,2);
type = Stem;
},
{
origin = (0,8);
target = (0,6);
type = Stem;
}
);
layerId = "610C2E7D-EDB4-4EC2-BEB5-F0DB9FB0A101";
shapes = (
{
closed = 1;
nodes = (
(376,-14,o),
(436,34,o),
(469,99,c),
(476,99,l),
(476,0,l),
(555,0,l),
(555,721,l),
(471,721,l),
(471,419,l),
(464,419,l),
(434,480,o),
(371,528,o),
(286,528,cs),
(135,528,o),
(28,417,o),
(28,256,cs),
(28,97,o),
(135,-14,o),
(286,-14,cs)
);
},
{
closed = 1;
nodes = (
(178,64,o),
(112,147,o),
(112,257,cs),
(112,371,o),
(178,450,o),
(294,450,cs),
(403,450,o),
(472,368,o),
(472,256,cs),
(472,149,o),
(403,64,o),
(294,64,cs)
);
}
);
width = 634;
}
);
metricRight = l;
unicode = 100;
},
{
glyphname = eth;
kernLeft = o;
kernRight = eth;
lastChange = "2026-03-03 00:58:54 +0000";
layers = (
{
background = {
anchors = (
{
name = bottom;
pos = (286,0);
},
{
name = center;
pos = (286,244);
},
{
name = ogonek;
pos = (292,0);
},
{
name = top;
pos = (286,490);
},
{
name = topright;
pos = (453,490);
}
);
hints = (
{
horizontal = 1;
origin = (0,11);
target = (1,11);
type = Stem;
},
{
horizontal = 1;
origin = (0,5);
target = (1,5);
type = Stem;
},
{
origin = (0,8);
target = (1,2);
type = Stem;
},
{
origin = (1,8);
target = (0,2);
type = Stem;
}
);
shapes = (
{
closed = 1;
nodes = (
(-169,587,o),
(-65,695,o),
(-65,846,cs),
(-65,996,o),
(-169,1103,o),
(-314,1103,cs),
(-458,1103,o),
(-562,995,o),
(-562,844,cs),
(-562,694,o),
(-458,587,o),
(-314,587,cs)
);
},
{
closed = 1;
nodes = (
(-417,661,o),
(-482,741,o),
(-482,845,cs),
(-482,951,o),
(-417,1029,o),
(-314,1029,cs),
(-211,1029,o),
(-145,949,o),
(-145,845,cs),
(-145,739,o),
(-211,661,o),
(-314,661,cs)
);
},
{
closed = 1;
nodes = (
(-79,1184,l),
(-109,1279,l),
(-274,1234,l),
(-329,1198,l),
(-455,1176,l),
(-424,1088,l)
);
},
{
closed = 1;
nodes = (
(-409,-338,o),
(-476,-258,o),
(-476,-165,cs),
(-476,-71,o),
(-409,9,o),
(-305,9,cs),
(-202,9,o),
(-135,-71,o),
(-135,-165,cs),
(-135,-258,o),
(-200,-338,o),
(-305,-338,cs)
);
},
{
closed = 1;
nodes = (
(-389,710,o),
(-445,765,o),
(-445,852,cs),
(-445,940,o),
(-389,995,o),
(-313,995,cs),
(-237,995,o),
(-181,940,o),
(-181,852,cs),
(-181,765,o),
(-237,710,o),
(-313,710,cs)
);
},
{
closed = 1;
nodes = (
(-263,1095,l),
(-289,1106,o),
(-317,1111,o),
(-344,1111,cs),
(-461,1111,o),
(-580,1006,o),
(-580,852,cs),
(-580,701,o),
(-470,587,o),
(-323,587,cs),
(-161,587,o),
(-46,701,o),
(-46,852,cs),
(-46,1042,o),
(-181,1262,o),
(-379,1425,c),
(-476,1334,l),
(-377,1256,o),
(-314,1191,o),
(-257,1099,c)
);
},
{
closed = 1;
nodes = (
(-96,1216,l),
(-96,1311,l),
(-257,1282,l),
(-312,1260,l),
(-457,1235,l),
(-457,1144,l)
);
},
{
closed = 1;
nodes = (
(122,438,o),
(82,354,o),
(115,280,cs),
(155,190,o),
(254,181,o),
(393,232,cs),
(499,272,l),
(482,277,l),
(499,239,ls),
(528,173,o),
(485,116,o),
(429,91,cs),
(372,66,o),
(319,68,o),
(260,95,c),
(233,23,l),
(312,-11,o),
(377,-13,o),
(462,26,cs),
(550,64,o),
(620,164,o),
(571,274,cs),
(442,566,l),
(371,535,l),
(402,468,l),
(397,466,l),
(362,489,o),
(301,518,o),
(209,477,cs)
);
},
{
closed = 1;
nodes = (
(338,461,o),
(417,420,o),
(450,348,cs),
(466,313,l),
(470,331,l),
(372,296,ls),
(271,259,o),
(212,260,o),
(190,309,cs),
(169,356,o),
(188,394,o),
(250,421,cs)
);
},
{
closed = 1;
nodes = (
(329,604,o),
(388,674,o),
(503,770,c),
(447,825,l),
(271,687,o),
(128,445,o),
(128,254,cs),
(128,87,o),
(238,-13,o),
(383,-13,cs),
(534,-13,o),
(630,98,o),
(630,235,cs),
(630,388,o),
(527,503,o),
(389,503,cs),
(349,503,o),
(300,493,o),
(259,451,c),
(254,454,l)
);
},
{
pos = (2,0);
ref = o;
}
);
};
hints = (
{
horizontal = 1;
origin = (0,9);
target = (1,11);
type = Stem;
},
{
horizontal = 1;
origin = (1,5);
target = (0,3);
type = Stem;
},
{
horizontal = 1;
origin = (0,15,2,2);
target = down;
type = TopGhost;
},
{
origin = (0,6);
target = (1,2);
type = Stem;
},
{
origin = (1,8);
target = (0,12);
type = Stem;
}
);
layerId = "610C2E7D-EDB4-4EC2-BEB5-F0DB9FB0A101";
shapes = (
{
closed = 1;
nodes = (
(429,474,l),
(386,518,o),
(335,528,o),
(293,528,cs),
(148,528,o),
(40,407,o),
(40,247,cs),
(40,103,o),
(141,-14,o),
(299,-14,cs),
(451,-14,o),
(567,91,o),
(567,267,cs),
(567,467,o),
(417,721,o),
(232,866,c),
(173,809,l),
(294,708,o),
(356,634,o),
(435,477,c)
);
},
{
closed = 1;
nodes = (
(192,64,o),
(124,148,o),
(124,257,cs),
(124,368,o),
(199,450,o),
(300,450,cs),
(408,450,o),
(478,366,o),
(478,257,cs),
(478,146,o),
(408,64,o),
(300,64,cs)
);
},
{
closed = 1;
nodes = (
(521,699,l),
(521,772,l),
(350,709,l),
(313,696,l),
(175,646,l),
(175,573,l)
);
}
);
width = 606;
},
{
background = {
anchors = (
{
name = bottom;
pos = (309,0);
},
{
name = center;
pos = (309,260);
},
{
name = ogonek;
pos = (377,-5);
},
{
name = top;
pos = (309,505);
},
{
name = topright;
pos = (474,505);
}
);
hints = (
{
horizontal = 1;
origin = (3,11);
target = (4,11);
type = Stem;
},
{
horizontal = 1;
origin = (3,5);
target = (4,5);
type = Stem;
},
{
origin = (3,8);
target = (4,2);
type = Stem;
},
{
origin = (4,8);
target = (3,2);
type = Stem;
}
);
shapes = (
{
closed = 1;
nodes = (
(1374,-13,o),
(1482,89,o),
(1482,263,cs),
(1482,376,o),
(1423,470,o),
(1358,545,cs),
(1186,743,l),
(1075,657,l),
(1222,509,ls),
(1261,469,o),
(1298,449,o),
(1320,372,c),
(1337,363,l),
(1317,418,o),
(1283,479,o),
(1186,479,cs),
(1085,479,o),
(962,393,o),
(962,241,cs),
(962,101,o),
(1070,-13,o),
(1225,-13,cs)
);
},
{
closed = 1;
nodes = (
(1148,114,o),
(1099,173,o),
(1099,241,cs),
(1099,311,o),
(1148,369,o),
(1225,369,cs),
(1302,369,o),
(1351,311,o),
(1351,241,cs),
(1351,171,o),
(1303,114,o),
(1225,114,cs)
);
},
{
closed = 1;
nodes = (
(422,681,l),
(365,746,l),
(172,578,l),
(230,513,l)
);
},
{
closed = 1;
nodes = (
(462,-13,o),
(576,101,o),
(576,252,cs),
(576,404,o),
(462,518,o),
(309,518,cs),
(156,518,o),
(42,404,o),
(42,252,cs),
(42,101,o),
(156,-13,o),
(309,-13,cs)
);
},
{
closed = 1;
nodes = (
(233,110,o),
(177,165,o),
(177,252,cs),
(177,340,o),
(233,395,o),
(309,395,cs),
(385,395,o),
(441,340,o),
(441,252,cs),
(441,165,o),
(385,110,o),
(309,110,cs)
);
},
{
closed = 1;
nodes = (
(464,261,l),
(579,333,l),
(246,865,l),
(131,793,l)
);
}
);
};
hints = (
{
horizontal = 1;
origin = (0,9);
target = (1,11);
type = Stem;
},
{
horizontal = 1;
origin = (0,3);
target = (1,5);
type = Stem;
},
{
origin = (0,6);
target = (1,2);
type = Stem;
},
{
origin = (1,8);
target = (0,12);
type = Stem;
}
);
layerId = m006;
shapes = (
{
closed = 1;
nodes = (
(377,520,l),
(350,531,o),
(320,537,o),
(292,537,cs),
(169,537,o),
(44,426,o),
(44,265,cs),
(44,106,o),
(160,-14,o),
(314,-14,cs),
(484,-14,o),
(605,106,o),
(605,265,cs),
(605,464,o),
(463,695,o),
(255,866,c),
(153,771,l),
(257,689,o),
(323,621,o),
(383,524,c)
);
},
{
closed = 1;
nodes = (
(245,116,o),
(186,173,o),
(186,265,cs),
(186,357,o),
(245,415,o),
(324,415,cs),
(404,415,o),
(463,357,o),
(463,265,cs),
(463,173,o),
(404,116,o),
(324,116,cs)
);
},
{
closed = 1;
nodes = (
(542,669,l),
(542,792,l),
(373,740,l),
(315,711,l),
(163,669,l),
(163,553,l)
);
}
);
width = 649;
}
);
metricRight = o;
unicode = 240;
},
{
glyphname = e;
kernLeft = o;
kernRight = e;
lastChange = "2026-03-03 00:58:54 +0000";
layers = (
{
anchors = (
{
name = bottom;
pos = (328,0);
},
{
name = ogonek;
pos = (375,27);
},
{
name = top;
pos = (318,530);
}
);
hints = (
{
horizontal = 1;
origin = (0,32);
target = (0,6);
type = Stem;
},
{
horizontal = 1;
origin = (0,13);
target = (0,26);
type = Stem;
},
{
origin = (0,16,0,18);
target = (0,23);
type = Stem;
}
);
layerId = m006;
shapes = (
{
closed = 1;
nodes = (
(424,-14,o),
(507,27,o),
(552,79,c),
(459,173,l),
(431,135,o),
(381,112,o),
(329,112,cs),
(237,112,o),
(192,183,o),
(186,251,c),
(186,273,l),
(186,374,o),
(237,429,o),
(316,429,cs),
(400,429,o),
(437,375,o),
(434,278,c),
(476,317,l),
(116,321,l),
(116,216,l),
(572,216,l),
(574,232,o),
(576,255,o),
(576,275,cs),
(576,437,o),
(473,544,o),
(318,544,cs),
(163,544,o),
(44,440,o),
(44,261,cs),
(44,104,o),
(155,-14,o),
(325,-14,cs)
);
}
);
width = 620;
},
{
anchors = (
{
name = bottom;
pos = (302,0);
},
{
name = ogonek;
pos = (329,4);
},
{
name = top;
pos = (300,515);
}
);
hints = (
{
horizontal = 1;
origin = (0,32);
target = (0,6);
type = Stem;
},
{
horizontal = 1;
origin = (0,20);
target = (0,18);
type = Stem;
},
{
horizontal = 1;
origin = (0,13);
target = (0,26);
type = Stem;
},
{
origin = (0,29);
target = (0,9,0,20);
type = Stem;
},
{
origin = (0,3);
target = (0,23);
type = Stem;
}
);
layerId = "610C2E7D-EDB4-4EC2-BEB5-F0DB9FB0A101";
shapes = (
{
closed = 1;
nodes = (
(395,-14,o),
(471,20,o),
(520,84,c),
(460,135,l),
(423,85,o),
(375,64,o),
(303,64,cs),
(205,64,o),
(126,135,o),
(124,245,c),
(124,257,l),
(123,376,o),
(190,450,o),
(297,450,cs),
(402,450,o),
(465,376,o),
(461,257,c),
(490,298,l),
(86,298,l),
(86,225,l),
(543,225,l),
(545,234,o),
(545,248,o),
(545,258,cs),
(545,417,o),
(454,528,o),
(299,528,cs),
(146,528,o),
(40,412,o),
(40,258,cs),
(40,101,o),
(146,-14,o),
(302,-14,cs)
);
}
);
width = 584;
}
);
metricRight = "=o";
unicode = 101;
},
{
glyphname = f;
kernLeft = f;
kernRight = f;
lastChange = "2026-03-03 00:51:58 +0000";
layers = (
{
background = {
shapes = (
{
closed = 1;
nodes = (
(193,750,o),
(115,680,o),
(115,574,cs),
(115,107,l),
(250,93,l),
(250,563,ls),
(250,614,o),
(287,635,o),
(324,635,cs),
(352,635,o),
(376,632,o),
(394,627,c),
(394,741,l),
(365,747,o),
(345,750,o),
(303,750,cs)
);
},
{
closed = 1;
nodes = (
(22,232,l),
(394,232,l),
(394,340,l),
(22,340,l)
);
},
{
closed = 1;
nodes = (
(250,0,l),
(250,526,ls),
(250,577,o),
(288,598,o),
(332,598,cs),
(356,598,o),
(375,596,o),
(394,590,c),
(394,705,l),
(365,711,o),
(345,713,o),
(306,713,cs),
(193,713,o),
(115,643,o),
(115,528,cs),
(115,0,l)
);
}
);
};
layerId = m006;
shapes = (
{
ref = fpart.comb;
},
{
pos = (5,0);
ref = partstroke.comb;
}
);
width = 440;
},
{
background = {
shapes = (
{
closed = 1;
nodes = (
(199,0,l),
(199,544,ls),
(199,601,o),
(228,640,o),
(297,640,cs),
(325,640,o),
(347,639,o),
(369,632,c),
(369,703,l),
(337,711,o),
(320,713,o),
(285,713,cs),
(187,713,o),
(119,647,o),
(119,549,cs),
(119,0,l)
);
},
{
closed = 1;
nodes = (
(369,418,l),
(369,490,l),
(19,490,l),
(19,418,l)
);
}
);
};
layerId = "610C2E7D-EDB4-4EC2-BEB5-F0DB9FB0A101";
shapes = (
{
ref = fpart.comb;
},
{
pos = (5,0);
ref = partstroke.comb;
}
);
width = 412;
}
);
unicode = 102;
},
{
glyphname = g;
kernLeft = o;
kernRight = g;
lastChange = "2026-03-03 01:07:46 +0000";
layers = (
{
anchors = (
{
name = bottom;
pos = (337,-231);
},
{
name = ogonek;
pos = (428,-231);
},
{
name = top;
pos = (326,530);
}
);
background = {
shapes = (
{
pos = (-8,0);
ref = a.ss01;
}
);
};
hints = (
{
horizontal = 1;
options = 4;
origin = (0,30);
target = (0,23);
type = TTStem;
},
{
horizontal = 1;
options = 4;
origin = (0,15);
target = (1,11);
type = TTStem;
},
{
horizontal = 1;
options = 4;
origin = (0,9);
target = (1,5);
type = TTStem;
},
{
horizontal = 1;
options = 4;
origin = (0,4);
target = (1,5);
type = TTStem;
},
{
horizontal = 1;
origin = (0,30);
target = (0,23);
type = Stem;
},
{
horizontal = 1;
origin = (0,15);
target = (1,11);
type = Stem;
},
{
horizontal = 1;
origin = (1,5);
target = (0,9);
type = Stem;
},
{
horizontal = 1;
origin = (0,4);
target = down;
type = TopGhost;
},
{
origin = (0,12);
target = (1,2);
type = Stem;
},
{
origin = (0,3);
target = (1,8);
type = Stem;
}
);
layerId = m006;
shapes = (
{
closed = 1;
nodes = (
(481,-243,o),
(615,-148,o),
(615,21,cs),
(615,530,l),
(478,530,l),
(478,450,l),
(471,450,l),
(451,508,o),
(382,544,o),
(307,544,cs),
(150,544,o),
(44,413,o),
(44,265,cs),
(44,118,o),
(150,-14,o),
(307,-14,cs),
(378,-14,o),
(447,22,o),
(467,78,c),
(473,78,l),
(473,29,ls),
(473,-59,o),
(406,-111,o),
(331,-111,cs),
(253,-111,o),
(209,-82,o),
(178,-20,c),
(61,-101,l),
(136,-222,o),
(221,-243,o),
(336,-243,cs)
);
},
{
closed = 1;
nodes = (
(247,116,o),
(186,180,o),
(186,266,cs),
(186,351,o),
(247,415,o),
(330,415,cs),
(413,415,o),
(473,351,o),
(473,265,cs),
(473,180,o),
(413,116,o),
(330,116,cs)
);
}
);
width = 693;
},
{
anchors = (
{
name = bottom;
pos = (299,-231);
},
{
name = ogonek;
pos = (395,-231);
},
{
name = top;
pos = (309,515);
}
);
background = {
shapes = (
{
closed = 1;
nodes = (
(161,-140,o),
(106,-81,o),
(98,-45,qs),
(97,-41,l),
(179,-41,l),
(181,-45,ls),
(193,-71,o),
(260,-102,o),
(310,-102,qs),
(375,-102,o),
(445,-35,o),
(445,22,qs),
(445,84,l),
(443,84,l),
(429,57,o),
(383,17,o),
(323,-5,o),
(287,-5,qs),
(226,-5,o),
(132,58,o),
(80,171,o),
(80,248,qs),
(80,248,ls),
(80,324,o),
(133,437,o),
(227,499,o),
(289,499,qs),
(324,499,o),
(383,476,o),
(428,434,o),
(443,407,q),
(445,407,l),
(445,490,l),
(527,490,l),
(527,14,ls),
(527,-43,o),
(474,-128,o),
(377,-174,o),
(311,-174,qs),
(251,-174,o)
);
},
{
closed = 1;
nodes = (
(410,113,o),
(445,194,o),
(445,248,qs),
(445,248,ls),
(445,302,o),
(410,382,o),
(347,427,o),
(305,427,qs),
(262,427,o),
(198,383,o),
(164,303,o),
(164,248,qs),
(164,248,ls),
(164,192,o),
(198,112,o),
(262,68,o),
(305,68,qs),
(347,68,o)
);
},
{
closed = 1;
nodes = (
(-308,490,l),
(-217,490,l),
(-99,306,l),
(-97,306,l),
(19,490,l),
(110,490,l),
(-55,248,l),
(108,0,l),
(17,0,l),
(-100,186,l),
(-102,186,l),
(-220,0,l),
(-311,0,l),
(-144,245,l)
);
}
);
};
hints = (
{
horizontal = 1;
origin = (0,30);
target = (0,23);
type = Stem;
},
{
horizontal = 1;
origin = (0,15);
target = (1,11);
type = Stem;
},
{
horizontal = 1;
origin = (1,5);
target = (0,9);
type = Stem;
},
{
horizontal = 1;
origin = (0,4);
target = down;
type = TopGhost;
},
{
origin = (0,12);
target = (1,2);
type = Stem;
},
{
origin = (0,3);
target = (0,20);
type = Stem;
},
{
origin = (0,3);
target = (0,5);
type = Stem;
},
{
origin = (0,3);
target = (1,8);
type = Stem;
}
);
layerId = "610C2E7D-EDB4-4EC2-BEB5-F0DB9FB0A101";
shapes = (
{
closed = 1;
nodes = (
(466,-239,o),
(583,-144,o),
(583,30,cs),
(583,515,l),
(503,515,l),
(503,418,l),
(497,418,l),
(462,481,o),
(400,528,o),
(305,528,cs),
(155,528,o),
(40,413,o),
(40,258,cs),
(40,104,o),
(155,-9,o),
(305,-9,cs),
(397,-9,o),
(461,39,o),
(492,102,c),
(499,102,l),
(499,28,ls),
(500,-88,o),
(417,-164,o),
(304,-164,cs),
(224,-164,o),
(168,-141,o),
(112,-80,c),
(49,-132,l),
(119,-218,o),
(210,-244,o),
(299,-243,cs)
);
},
{
closed = 1;
nodes = (
(196,68,o),
(124,154,o),
(124,259,cs),
(124,366,o),
(196,450,o),
(314,450,cs),
(434,450,o),
(498,363,o),
(498,258,cs),
(498,153,o),
(434,68,o),
(314,68,cs)
);
}
);
width = 662;
}
);
unicode = 103;
},
{
glyphname = h;
kernLeft = l;
kernRight = n;
lastChange = "2026-03-03 00:59:55 +0000";
layers = (
{
anchors = (
{
name = bar;
pos = (149,623);
},
{
name = bottom;
pos = (324,0);
},
{
name = ogonek;
pos = (429,0);
},
{
name = top;
pos = (149,721);
}
);
background = {
shapes = (
{
closed = 1;
nodes = (
(221,-15,l),
(221,270,ls),
(221,360,o),
(272,399,o),
(329,399,cs),
(396,399,o),
(441,360,o),
(441,270,cs),
(441,-15,l),
(576,-15,l),
(576,303,ls),
(576,434,o),
(490,517,o),
(379,517,cs),
(305,517,o),
(250,491,o),
(219,440,c),
(219,440,l),
(219,505,l),
(86,505,l),
(86,-15,l)
);
}
);
};
hints = (
{
horizontal = 1;
options = 4;
origin = (0,20);
target = (0,8);
type = TTShift;
},
{
horizontal = 1;
origin = (0,20);
target = up;
type = BottomGhost;
},
{
horizontal = 1;
origin = (0,4);
target = (0,13);
type = Stem;
},
{
horizontal = 1;
origin = (0,19);
target = down;
type = TopGhost;
},
{
origin = (0,20);
target = (0,18);
type = Stem;
},
{
origin = (0,8);
target = (0,10);
type = Stem;
}
);
layerId = m006;
shapes = (
{
closed = 1;
nodes = (
(219,0,l),
(219,306,ls),
(219,376,o),
(259,420,o),
(322,420,cs),
(388,420,o),
(429,376,o),
(429,306,cs),
(429,0,l),
(571,0,l),
(571,340,ls),
(571,457,o),
(481,544,o),
(379,544,cs),
(303,544,o),
(250,502,o),
(226,463,c),
(219,463,l),
(219,721,l),
(78,721,l),
(78,0,l)
);
}
);
width = 642;
},
{
anchors = (
{
name = bar;
pos = (122,610);
},
{
name = bottom;
pos = (309,0);
},
{
name = ogonek;
pos = (437,0);
},
{
name = top;
pos = (122,721);
}
);
background = {
shapes = (
{
attr = {
strokeHeight = 73;
strokeWidth = 80;
};
closed = 1;
nodes = (
(354,1688,o),
(405,1733,o),
(429,1795,c),
(428,1794,l),
(436,1794,l),
(435,1795,l),
(435,1700,l),
(515,1700,l),
(515,2021,ls),
(515,2140,o),
(418,2203,o),
(316,2203,cs),
(228,2203,o),
(169,2175,o),
(111,2113,c),
(165,2058,l),
(208,2106,o),
(255,2130,o),
(312,2130,cs),
(380,2130,o),
(435,2095,o),
(435,2023,cs),
(435,1986,l),
(456,2003,l),
(217,2030,o),
(108,1961,o),
(108,1837,cs),
(108,1752,o),
(178,1688,o),
(265,1688,cs)
);
},
{
attr = {
strokeHeight = 73;
strokeWidth = 80;
};
closed = 1;
nodes = (
(229,1756,o),
(186,1789,o),
(186,1844,cs),
(186,1927,o),
(278,1945,o),
(365,1945,cs),
(399,1945,o),
(435,1942,o),
(454,1937,c),
(435,1966,l),
(435,1923,ls),
(435,1824,o),
(385,1756,o),
(294,1756,cs)
);
},
{
attr = {
strokeHeight = 73;
strokeWidth = 80;
};
closed = 1;
nodes = (
(467,1687,o),
(571,1795,o),
(571,1945,cs),
(571,2094,o),
(467,2201,o),
(322,2201,cs),
(178,2201,o),
(74,2093,o),
(74,1943,cs),
(74,1794,o),
(178,1687,o),
(322,1687,cs)
);
},
{
attr = {
strokeHeight = 73;
strokeWidth = 80;
};
closed = 1;
nodes = (
(216,1761,o),
(154,1841,o),
(154,1944,cs),
(154,2049,o),
(216,2127,o),
(322,2127,cs),
(428,2127,o),
(491,2047,o),
(491,1944,cs),
(491,1839,o),
(428,1761,o),
(322,1761,cs)
);
},
{
attr = {
strokeHeight = 73;
strokeWidth = 80;
};
closed = 1;
nodes = (
(164,1700,l),
(164,1955,ls),
(164,2060,o),
(225,2129,o),
(318,2129,cs),
(411,2129,o),
(467,2062,o),
(467,1955,cs),
(467,1700,l),
(547,1700,l),
(547,1973,ls),
(547,2104,o),
(459,2202,o),
(344,2202,cs),
(263,2202,o),
(189,2152,o),
(169,2095,c),
(171,2096,l),
(162,2096,l),
(163,2095,l),
(163,2450,l),
(84,2450,l),
(84,1700,l)
);
},
{
attr = {
strokeHeight = 73;
strokePos = 1;
strokeWidth = 80;
};
closed = 0;
nodes = (
(164,800,l),
(164,1085,ls),
(164,1170,o),
(225,1229,o),
(318,1229,cs),
(393,1229,o),
(447,1173,o),
(447,1085,cs),
(447,800,l)
);
},
{
closed = 1;
nodes = (
(156,0,l),
(156,296,ls),
(156,378,o),
(211,429,o),
(298,429,cs),
(370,429,o),
(416,378,o),
(416,296,cs),
(416,0,l),
(496,0,l),
(496,314,ls),
(496,431,o),
(420,503,o),
(310,503,cs),
(227,503,o),
(183,463,o),
(156,416,c),
(151,416,l),
(151,490,l),
(76,490,l),
(76,0,l)
);
}
);
};
hints = (
{
horizontal = 1;
options = 4;
origin = (0,20);
target = (0,8);
type = TTShift;
},
{
horizontal = 1;
origin = (0,20);
target = up;
type = BottomGhost;
},
{
horizontal = 1;
origin = (0,4);
target = (0,13);
type = Stem;
},
{
horizontal = 1;
origin = (0,19);
target = down;
type = TopGhost;
},
{
origin = (0,20);
target = (0,18);
type = Stem;
},
{
origin = (0,8);
target = (0,10);
type = Stem;
}
);
layerId = "610C2E7D-EDB4-4EC2-BEB5-F0DB9FB0A101";
shapes = (
{
closed = 1;
nodes = (
(164,0,l),
(164,311,ls),
(164,397,o),
(222,450,o),
(315,450,cs),
(391,450,o),
(437,397,o),
(437,311,cs),
(437,0,l),
(521,0,l),
(521,330,ls),
(521,453,o),
(443,528,o),
(327,528,cs),
(246,528,o),
(198,486,o),
(170,437,c),
(164,437,l),
(164,721,l),
(80,721,l),
(80,0,l)
);
}
);
width = 595;
}
);
metricRight = n;
unicode = 104;
},
{
glyphname = idotless;
kernLeft = n;
kernRight = u;
lastChange = "2026-03-03 00:51:57 +0000";
layers = (
{
anchors = (
{
name = bottom;
pos = (149,0);
},
{
name = ogonek;
pos = (127,0);
},
{
name = top;
pos = (149,530);
}
);
hints = (
{
horizontal = 1;
origin = (0,3);
target = up;
type = BottomGhost;
},
{
horizontal = 1;
origin = (0,2);
target = down;
type = TopGhost;
},
{
origin = (0,3);
target = (0,1);
type = Stem;
}
);
layerId = m006;
shapes = (
{
closed = 1;
nodes = (
(219,0,l),
(219,530,l),
(78,530,l),
(78,0,l)
);
}
);
width = 297;
},
{
anchors = (
{
name = bottom;
pos = (122,0);
},
{
name = ogonek;
pos = (82,0);
},
{
name = top;
pos = (122,515);
}
);
hints = (
{
horizontal = 1;
origin = (0,3);
target = up;
type = BottomGhost;
},
{
horizontal = 1;
origin = (0,2);
target = down;
type = TopGhost;
},
{
origin = (0,3);
target = (0,1);
type = Stem;
}
);
layerId = "610C2E7D-EDB4-4EC2-BEB5-F0DB9FB0A101";
shapes = (
{
closed = 1;
nodes = (
(164,0,l),
(164,515,l),
(80,515,l),
(80,0,l)
);
}
);
width = 243;
}
);
unicode = 305;
},
{
glyphname = jdotless;
kernLeft = n;
kernRight = u;
lastChange = "2026-03-03 01:06:17 +0000";
layers = (
{
anchors = (
{
name = bottom;
pos = (46,-245);
},
{
name = ogonek;
pos = (61,-245);
},
{
name = top;
pos = (142,530);
}
);
hints = (
{
horizontal = 1;
origin = (0,15);
target = (0,8);
type = Stem;
},
{
horizontal = 1;
origin = (0,4);
target = down;
type = TopGhost;
},
{
horizontal = 1;
origin = (0,12);
target = up;
type = BottomGhost;
},
{
origin = (0,3);
target = (0,5);
type = Stem;
}
);
layerId = m006;
shapes = (
{
closed = 1;
nodes = (
(154,-245,o),
(213,-178,o),
(213,-70,cs),
(213,530,l),
(72,530,l),
(72,-63,ls),
(72,-98,o),
(55,-115,o),
(23,-115,cs),
(9,-115,o),
(-5,-113,o),
(-19,-108,c),
(-39,-234,l),
(-12,-241,o),
(15,-245,o),
(46,-245,cs)
);
}
);
width = 291;
},
{
anchors = (
{
name = bottom;
pos = (20,-243);
},
{
name = ogonek;
pos = (35,-243);
},
{
name = top;
pos = (115,515);
}
);
hints = (
{
horizontal = 1;
origin = (0,15);
target = (0,8);
type = Stem;
},
{
horizontal = 1;
origin = (0,4);
target = down;
type = TopGhost;
},
{
horizontal = 1;
origin = (0,12);
target = up;
type = BottomGhost;
},
{
origin = (0,3);
target = (0,5);
type = Stem;
}
);
layerId = "610C2E7D-EDB4-4EC2-BEB5-F0DB9FB0A101";
shapes = (
{
closed = 1;
nodes = (
(94,-243,o),
(157,-194,o),
(157,-86,cs),
(157,515,l),
(73,515,l),
(73,-83,ls),
(73,-147,o),
(40,-168,o),
(-4,-168,cs),
(-21,-168,o),
(-32,-166,o),
(-52,-160,c),
(-66,-233,l),
(-41,-239,o),
(-19,-243,o),
(4,-243,cs)
);
}
);
width = 236;
}
);
unicode = 567;
},
{
glyphname = k;
kernLeft = l;
kernRight = k;
lastChange = "2026-03-03 01:00:03 +0000";
layers = (
{
anchors = (
{
name = bottom;
pos = (307,0);
},
{
name = top;
pos = (307,721);
}
);
background = {
shapes = (
{
closed = 1;
nodes = (
(540,0,l),
(251,327,l),
(269,222,l),
(539,490,l),
(358,490,l),
(82,193,l),
(97,324,l),
(371,0,l)
);
},
{
closed = 1;
nodes = (
(537,740,l),
(402,740,l),
(402,310,l),
(397,310,l),
(227,505,l),
(45,505,l),
(253,288,l),
(44,0,l),
(213,0,l),
(397,250,l),
(402,250,l),
(402,0,l),
(537,0,l)
);
}
);
};
hints = (
{
horizontal = 1;
origin = (0,6);
target = up;
type = BottomGhost;
},
{
horizontal = 1;
origin = (0,9);
target = down;
type = TopGhost;
},
{
horizontal = 1;
origin = (0,12);
target = down;
type = TopGhost;
},
{
horizontal = 1;
origin = (0,5);
target = up;
type = BottomGhost;
},
{
horizontal = 1;
origin = (0,4);
target = (0,11);
type = Stem;
},
{
origin = (0,1);
target = (0,12);
type = Stem;
}
);
layerId = m006;
shapes = (
{
closed = 1;
nodes = (
(78,721,l),
(78,0,l),
(219,0,l),
(219,263,l),
(225,263,l),
(418,0,l),
(585,1,l),
(365,302,l),
(584,530,l),
(403,530,l),
(225,326,l),
(219,326,l),
(219,721,l)
);
}
);
width = 612;
},
{
anchors = (
{
name = bottom;
pos = (280,0);
},
{
name = top;
pos = (280,721);
}
);
background = {
shapes = (
{
closed = 1;
nodes = (
(158,0,l),
(158,254,l),
(161,254,l),
(391,0,l),
(502,0,l),
(250,273,l),
(488,490,l),
(372,490,l),
(161,284,l),
(158,284,l),
(158,740,l),
(76,740,l),
(76,0,l)
);
}
);
};
hints = (
{
horizontal = 1;
origin = (0,6);
target = up;
type = BottomGhost;
},
{
horizontal = 1;
origin = (0,4);
target = (0,11);
type = Stem;
},
{
horizontal = 1;
origin = (0,9);
target = down;
type = TopGhost;
},
{
horizontal = 1;
origin = (0,12);
target = down;
type = TopGhost;
},
{
origin = (0,1);
target = (0,12);
type = Stem;
}
);
layerId = "610C2E7D-EDB4-4EC2-BEB5-F0DB9FB0A101";
shapes = (
{
closed = 1;
nodes = (
(80,721,l),
(80,0,l),
(166,0,l),
(166,267,l),
(169,267,l),
(410,0,l),
(527,0,l),
(262,287,l),
(512,515,l),
(390,515,l),
(169,298,l),
(166,298,l),
(166,721,l)
);
}
);
width = 556;
}
);
unicode = 107;
},
{
glyphname = kgreenlandic;
kernLeft = n;
kernRight = k;
lastChange = "2026-03-03 00:51:57 +0000";
layers = (
{
hints = (
{
horizontal = 1;
origin = (0,12);
target = up;
type = BottomGhost;
},
{
horizontal = 1;
origin = (0,2);
target = (0,9);
type = Stem;
},
{
horizontal = 1;
origin = (0,11);
target = down;
type = TopGhost;
},
{
origin = (0,12);
target = (0,10);
type = Stem;
}
);
layerId = "610C2E7D-EDB4-4EC2-BEB5-F0DB9FB0A101";
shapes = (
{
closed = 1;
nodes = (
(166,0,l),
(166,267,l),
(169,267,l),
(410,0,l),
(527,0,l),
(262,287,l),
(512,515,l),
(390,515,l),
(169,298,l),
(166,298,l),
(166,515,l),
(80,515,l),
(80,0,l)
);
}
);
width = 556;
},
{
background = {
shapes = (
{
closed = 1;
nodes = (
(597,0,l),
(290,344,l),
(309,233,l),
(596,520,l),
(404,520,l),
(111,202,l),
(127,341,l),
(418,0,l)
);
}
);
};
hints = (
{
horizontal = 1;
origin = (0,12);
target = up;
type = BottomGhost;
},
{
horizontal = 1;
origin = (0,2);
target = (0,9);
type = Stem;
},
{
horizontal = 1;
origin = (0,11);
target = down;
type = TopGhost;
},
{
origin = (0,12);
target = (0,10);
type = Stem;
}
);
layerId = m006;
shapes = (
{
closed = 1;
nodes = (
(219,0,l),
(219,248,l),
(225,248,l),
(418,0,l),
(585,0,l),
(365,288,l),
(584,530,l),
(403,530,l),
(225,311,l),
(219,311,l),
(219,530,l),
(78,530,l),
(78,0,l)
);
}
);
width = 612;
}
);
metricRight = k;
unicode = 312;
},
{
glyphname = l;
kernLeft = l;
kernRight = l;
lastChange = "2026-03-03 01:00:11 +0000";
layers = (
{
anchors = (
{
name = bottom;
pos = (149,0);
},
{
name = center;
pos = (149,413);
},
{
name = ogonek;
pos = (219,0);
},
{
name = top;
pos = (150,721);
},
{
name = topright;
pos = (273,721);
}
);
hints = (
{
horizontal = 1;
origin = (0,3);
target = up;
type = BottomGhost;
},
{
horizontal = 1;
origin = (0,4);
target = down;
type = TopGhost;
}
);
layerId = m006;
shapes = (
{
closed = 1;
nodes = (
(79,721,l),
(78,117,l),
(78,0,l),
(219,0,l),
(220,721,l)
);
}
);
width = 297;
},
{
anchors = (
{
name = bottom;
pos = (122,0);
},
{
name = center;
pos = (122,413);
},
{
name = ogonek;
pos = (164,0);
},
{
name = top;
pos = (122,721);
},
{
name = topright;
pos = (216,721);
}
);
hints = (
{
horizontal = 1;
options = 4;
origin = (0,2);
type = TTSnap;
},
{
horizontal = 1;
options = 4;
origin = (0,0);
type = TTSnap;
},
{
horizontal = 1;
origin = (0,3);
target = up;
type = BottomGhost;
},
{
horizontal = 1;
origin = (0,4);
target = down;
type = TopGhost;
},
{
origin = (0,2);
target = (0,4);
type = Stem;
}
);
layerId = "610C2E7D-EDB4-4EC2-BEB5-F0DB9FB0A101";
shapes = (
{
closed = 1;
nodes = (
(80,721,l),
(80,148,l),
(80,0,l),
(164,0,l),
(164,721,l)
);
}
);
width = 243;
}
);
unicode = 108;
},
{
glyphname = lslash;
kernLeft = l;
kernRight = l;
lastChange = "2026-03-03 00:51:57 +0000";
layers = (
{
background = {
shapes = (
{
closed = 1;
nodes = (
(216,0,l),
(216,740,l),
(81,740,l),
(81,111,l),
(81,0,l)
);
},
{
closed = 1;
nodes = (
(142,331,l),
(153,331,l),
(295,421,l),
(295,546,l),
(153,456,l),
(142,456,l),
(4,368,l),
(4,243,l)
);
}
);
};
hints = (
{
horizontal = 1;
origin = (1,1);
target = (1,5);
type = Stem;
},
{
horizontal = 1;
origin = (1,3);
target = down;
type = TopGhost;
},
{
origin = (1,3);
target = (1,7);
type = Stem;
}
);
layerId = "610C2E7D-EDB4-4EC2-BEB5-F0DB9FB0A101";
shapes = (
{
ref = l;
},
{
closed = 1;
nodes = (
(111,360,l),
(122,360,l),
(235,435,l),
(235,515,l),
(122,440,l),
(111,440,l),
(0,366,l),
(0,287,l)
);
}
);
width = 235;
},
{
background = {
shapes = (
{
closed = 1;
nodes = (
(143,283,l),
(153,283,l),
(282,373,l),
(282,499,l),
(153,397,l),
(143,409,l),
(17,321,l),
(17,195,l)
);
},
{
closed = 1;
nodes = (
(216,0,l),
(216,730,l),
(81,730,l),
(81,0,l)
);
}
);
};
hints = (
{
horizontal = 1;
origin = (1,1);
target = (1,5);
type = Stem;
},
{
origin = (1,7);
target = (1,3);
type = Stem;
}
);
layerId = m006;
shapes = (
{
pos = (12,0);
ref = l;
},
{
closed = 1;
nodes = (
(149,348,l),
(161,348,l),
(310,442,l),
(310,573,l),
(161,479,l),
(149,479,l),
(4,386,l),
(4,255,l)
);
}
);
width = 315;
}
);
unicode = 322;
},
{
glyphname = m;
kernLeft = n;
kernRight = n;
lastChange = "2026-03-03 00:51:57 +0000";
layers = (
{
anchors = (
{
name = bottom;
pos = (500,0);
},
{
name = ogonek;
pos = (771,0);
},
{
name = top;
pos = (504,530);
}
);
background = {
shapes = (
{
attr = {
strokeHeight = 123;
strokePos = 1;
strokeWidth = 135;
};
closed = 0;
nodes = (
(209,0,l),
(209,290,ls),
(209,357,o),
(247,399,o),
(307,399,cs),
(370,399,o),
(409,357,o),
(409,290,cs),
(409,0,l),
(544,0,l),
(544,290,ls),
(544,357,o),
(581,399,o),
(640,399,cs),
(698,399,o),
(734,357,o),
(734,290,cs),
(734,0,l)
);
},
{
closed = 1;
nodes = (
(-491,700,l),
(-491,990,ls),
(-491,1057,o),
(-453,1099,o),
(-393,1099,cs),
(-330,1099,o),
(-291,1057,o),
(-291,990,cs),
(-291,700,l),
(-156,700,l),
(-156,990,ls),
(-156,1057,o),
(-119,1099,o),
(-60,1099,cs),
(-2,1099,o),
(34,1057,o),
(34,990,cs),
(34,700,l),
(169,700,l),
(169,1023,ls),
(169,1134,o),
(83,1218,o),
(-19,1218,cs),
(-124,1218,o),
(-158,1171,o),
(-182,1133,c),
(-188,1133,l),
(-209,1171,o),
(-270,1218,o),
(-344,1218,cs),
(-411,1218,o),
(-452,1186,o),
(-485,1137,c),
(-491,1137,l),
(-491,1205,l),
(-626,1205,l),
(-626,700,l)
);
},
{
closed = 1;
nodes = (
(209,0,l),
(209,290,ls),
(209,357,o),
(247,399,o),
(307,399,cs),
(370,399,o),
(409,357,o),
(409,290,cs),
(409,0,l),
(544,0,l),
(544,323,ls),
(544,434,o),
(458,517,o),
(361,517,cs),
(283,517,o),
(232,477,o),
(209,440,c),
(203,440,l),
(203,505,l),
(74,505,l),
(74,0,l)
);
}
);
};
guides = (
{
pos = (206,437);
}
);
hints = (
{
horizontal = 1;
options = 4;
origin = (0,36);
target = (0,8);
type = TTShift;
},
{
horizontal = 1;
options = 4;
origin = (0,8);
target = (0,17);
type = TTShift;
},
{
horizontal = 1;
origin = (0,36);
target = up;
type = BottomGhost;
},
{
horizontal = 1;
origin = (0,13);
target = (0,29);
type = Stem;
},
{
horizontal = 1;
origin = (0,35);
target = (0,13);
type = Stem;
},
{
origin = (0,36);
target = (0,1);
type = Stem;
},
{
origin = (0,8);
target = (0,10);
type = Stem;
},
{
origin = (0,17);
target = (0,19);
type = Stem;
},
{
origin = (0,36);
target = (0,34);
type = Stem;
}
);
layerId = m006;
shapes = (
{
closed = 1;
nodes = (
(219,0,l),
(219,305,ls),
(219,375,o),
(259,419,o),
(322,419,cs),
(388,419,o),
(429,375,o),
(429,305,cs),
(429,0,l),
(571,0,l),
(571,305,ls),
(571,375,o),
(610,419,o),
(672,419,cs),
(733,419,o),
(771,375,o),
(771,305,cs),
(771,0,l),
(912,0,l),
(912,339,ls),
(912,456,o),
(827,544,o),
(715,544,cs),
(640,544,o),
(572,509,o),
(537,455,c),
(531,455,l),
(502,509,o),
(441,544,o),
(374,544,cs),
(312,544,o),
(252,511,o),
(221,459,c),
(215,459,l),
(215,530,l),
(78,530,l),
(78,0,l)
);
}
);
width = 983;
},
{
anchors = (
{
name = bottom;
pos = (463,0);
},
{
name = ogonek;
pos = (772,0);
},
{
name = top;
pos = (471,515);
}
);
background = {
hints = (
{
horizontal = 1;
options = 4;
type = TTSnap;
},
{
horizontal = 1;
options = 4;
place = (503,74);
type = TTStem;
},
{
horizontal = 1;
options = 4;
type = TTSnap;
},
{
horizontal = 1;
place = (0,21);
target = up;
type = BottomGhost;
},
{
horizontal = 1;
place = (503,74);
type = Stem;
},
{
horizontal = 1;
place = (490,-20);
target = down;
type = TopGhost;
},
{
place = (72,80);
type = Stem;
},
{
horizontal = 1;
options = 4;
place = (0,0);
type = TTShift;
}
);
shapes = (
{
closed = 1;
nodes = (
(156,600,l),
(156,896,ls),
(156,978,o),
(210,1029,o),
(298,1029,cs),
(371,1029,o),
(416,978,o),
(416,896,cs),
(416,600,l),
(496,600,l),
(496,914,ls),
(496,1031,o),
(420,1103,o),
(310,1103,cs),
(232,1103,o),
(189,1063,o),
(162,1016,c),
(156,1016,l),
(156,1090,l),
(76,1090,l),
(76,600,l)
);
},
{
closed = 1;
nodes = (
(487,600,l),
(487,896,ls),
(487,978,o),
(541,1029,o),
(629,1029,cs),
(702,1029,o),
(747,978,o),
(747,896,cs),
(747,600,l),
(827,600,l),
(827,914,ls),
(827,1031,o),
(751,1103,o),
(641,1103,cs),
(563,1103,o),
(520,1063,o),
(493,1016,c),
(487,1016,l),
(487,1090,l),
(407,1090,l),
(407,600,l)
);
},
{
attr = {
strokeHeight = 74;
strokePos = 1;
strokeWidth = 80;
};
closed = 0;
nodes = (
(156,0,l),
(156,307,ls),
(156,381,o),
(205,429,o),
(282,429,cs),
(359,429,o),
(407,381,o),
(407,307,cs),
(407,0,l),
(487,0,l),
(487,314,ls),
(487,384,o),
(535,429,o),
(611,429,cs),
(687,429,o),
(735,381,o),
(735,307,cs),
(735,0,l)
);
},
{
closed = 1;
nodes = (
(-444,600,l),
(-444,907,ls),
(-444,981,o),
(-395,1029,o),
(-318,1029,cs),
(-241,1029,o),
(-193,981,o),
(-193,907,cs),
(-193,600,l),
(-113,600,l),
(-113,914,ls),
(-113,984,o),
(-65,1029,o),
(11,1029,cs),
(87,1029,o),
(135,981,o),
(135,907,cs),
(135,600,l),
(215,600,l),
(215,926,ls),
(215,1032,o),
(126,1103,o),
(25,1103,cs),
(-58,1103,o),
(-105,1055,o),
(-123,1008,c),
(-129,1008,l),
(-148,1055,o),
(-210,1103,o),
(-296,1103,cs),
(-373,1103,o),
(-419,1055,o),
(-439,1024,c),
(-444,1024,l),
(-444,1090,l),
(-524,1090,l),
(-524,600,l)
);
},
{
closed = 1;
nodes = (
(146,0,l),
(146,296,ls),
(146,378,o),
(200,429,o),
(288,429,cs),
(361,429,o),
(406,378,o),
(406,296,cs),
(406,0,l),
(486,0,l),
(486,314,ls),
(486,431,o),
(410,503,o),
(300,503,cs),
(222,503,o),
(179,463,o),
(152,416,c),
(146,416,l),
(146,490,l),
(66,490,l),
(66,0,l)
);
}
);
};
hints = (
{
horizontal = 1;
options = 4;
origin = (0,36);
target = (0,8);
type = TTShift;
},
{
horizontal = 1;
options = 4;
origin = (0,8);
target = (0,17);
type = TTShift;
},
{
horizontal = 1;
origin = (0,36);
target = up;
type = BottomGhost;
},
{
horizontal = 1;
origin = (0,13);
target = (0,29);
type = Stem;
},
{
horizontal = 1;
origin = (0,35);
target = (0,13);
type = Stem;
},
{
origin = (0,36);
target = (0,1);
type = Stem;
},
{
origin = (0,8);
target = (0,10);
type = Stem;
},
{
origin = (0,17);
target = (0,19);
type = Stem;
},
{
origin = (0,36);
target = (0,34);
type = Stem;
}
);
layerId = "610C2E7D-EDB4-4EC2-BEB5-F0DB9FB0A101";
shapes = (
{
closed = 1;
nodes = (
(164,0,l),
(164,322,ls),
(164,400,o),
(215,450,o),
(296,450,cs),
(386,450,o),
(427,400,o),
(427,322,cs),
(427,0,l),
(511,0,l),
(511,330,ls),
(511,403,o),
(562,450,o),
(641,450,cs),
(721,450,o),
(772,400,o),
(772,322,cs),
(772,0,l),
(856,0,l),
(856,342,ls),
(856,448,o),
(771,528,o),
(656,528,cs),
(574,528,o),
(507,492,o),
(485,437,c),
(479,437,l),
(454,492,o),
(395,528,o),
(319,528,cs),
(253,528,o),
(193,497,o),
(166,445,c),
(159,445,l),
(159,515,l),
(80,515,l),
(80,0,l)
);
}
);
width = 930;
}
);
metricRight = n;
unicode = 109;
},
{
glyphname = n;
kernLeft = n;
kernRight = n;
lastChange = "2026-03-03 00:51:57 +0000";
layers = (
{
anchors = (
{
name = bottom;
pos = (322,0);
},
{
name = ogonek;
pos = (429,0);
},
{
name = top;
pos = (345,530);
}
);
background = {
shapes = (
{
closed = 1;
nodes = (
(221,-15,l),
(221,270,ls),
(221,360,o),
(272,399,o),
(329,399,cs),
(396,399,o),
(441,360,o),
(441,270,cs),
(441,-15,l),
(576,-15,l),
(576,303,ls),
(576,434,o),
(490,517,o),
(379,517,cs),
(305,517,o),
(250,491,o),
(219,440,c),
(219,440,l),
(219,505,l),
(86,505,l),
(86,-15,l)
);
}
);
};
hints = (
{
horizontal = 1;
options = 4;
origin = (0,20);
target = (0,8);
type = TTShift;
},
{
horizontal = 1;
origin = (0,20);
target = up;
type = BottomGhost;
},
{
horizontal = 1;
origin = (0,13);
target = (0,4);
type = Stem;
},
{
horizontal = 1;
origin = (0,19);
target = (0,4);
type = Stem;
},
{
origin = (0,20);
target = (0,1);
type = Stem;
},
{
origin = (0,8);
target = (0,10);
type = Stem;
},
{
origin = (0,20);
target = (0,18);
type = Stem;
}
);
layerId = m006;
shapes = (
{
closed = 1;
nodes = (
(219,0,l),
(219,305,ls),
(219,375,o),
(259,419,o),
(322,419,cs),
(388,419,o),
(429,375,o),
(429,305,cs),
(429,0,l),
(571,0,l),
(571,339,ls),
(571,456,o),
(481,543,o),
(379,543,cs),
(299,543,o),
(246,501,o),
(221,462,c),
(215,462,l),
(215,530,l),
(78,530,l),
(78,0,l)
);
}
);
width = 642;
},
{
anchors = (
{
name = bottom;
pos = (306,0);
},
{
name = ogonek;
pos = (437,0);
},
{
name = top;
pos = (318,515);
}
);
background = {
shapes = (
{
closed = 1;
nodes = (
(156,0,l),
(156,296,ls),
(156,378,o),
(210,429,o),
(298,429,cs),
(371,429,o),
(416,378,o),
(416,296,cs),
(416,0,l),
(496,0,l),
(496,314,ls),
(496,431,o),
(420,503,o),
(310,503,cs),
(232,503,o),
(189,463,o),
(162,416,c),
(156,416,l),
(156,740,l),
(76,740,l),
(76,0,l)
);
}
);
};
hints = (
{
horizontal = 1;
options = 4;
type = TTSnap;
},
{
horizontal = 1;
options = 4;
place = (503,-74);
type = TTStem;
},
{
horizontal = 1;
options = 4;
type = TTSnap;
},
{
horizontal = 1;
options = 4;
place = (0,0);
type = TTShift;
},
{
horizontal = 1;
origin = (0,20);
target = up;
type = BottomGhost;
},
{
horizontal = 1;
origin = (0,4);
target = (0,13);
type = Stem;
},
{
horizontal = 1;
origin = (0,19);
target = down;
type = TopGhost;
},
{
origin = (0,20);
target = (0,1);
type = Stem;
},
{
origin = (0,8);
target = (0,10);
type = Stem;
},
{
origin = (0,20);
target = (0,18);
type = Stem;
}
);
layerId = "610C2E7D-EDB4-4EC2-BEB5-F0DB9FB0A101";
shapes = (
{
closed = 1;
nodes = (
(164,0,l),
(164,311,ls),
(164,397,o),
(221,450,o),
(313,450,cs),
(388,450,o),
(437,397,o),
(437,311,cs),
(437,0,l),
(521,0,l),
(521,330,ls),
(521,453,o),
(441,528,o),
(325,528,cs),
(240,528,o),
(194,486,o),
(166,437,c),
(159,437,l),
(159,515,l),
(80,515,l),
(80,0,l)
);
}
);
width = 595;
}
);
unicode = 110;
},
{
glyphname = eng;
kernLeft = n;
kernRight = j;
lastChange = "2026-03-03 01:04:05 +0000";
layers = (
{
hints = (
{
horizontal = 1;
options = 4;
type = TTSnap;
},
{
horizontal = 1;
options = 4;
place = (503,-74);
type = TTStem;
},
{
horizontal = 1;
options = 4;
type = TTSnap;
},
{
horizontal = 1;
options = 4;
place = (0,0);
type = TTShift;
},
{
horizontal = 1;
origin = (0,18);
target = (0,11);
type = Stem;
},
{
horizontal = 1;
origin = (0,32);
target = up;
type = BottomGhost;
},
{
horizontal = 1;
origin = (0,4);
target = (0,25);
type = Stem;
},
{
horizontal = 1;
origin = (0,15);
target = up;
type = BottomGhost;
},
{
horizontal = 1;
origin = (0,31);
target = down;
type = TopGhost;
},
{
origin = (0,32);
target = (0,1);
type = Stem;
},
{
origin = (0,8);
target = (0,22);
type = Stem;
},
{
origin = (0,32);
target = (0,30);
type = Stem;
}
);
layerId = "610C2E7D-EDB4-4EC2-BEB5-F0DB9FB0A101";
shapes = (
{
closed = 1;
nodes = (
(164,0,l),
(164,311,ls),
(164,397,o),
(221,450,o),
(313,450,cs),
(388,450,o),
(437,397,o),
(437,311,cs),
(437,-85,ls),
(437,-149,o),
(404,-170,o),
(360,-170,cs),
(343,-170,o),
(332,-168,o),
(312,-162,c),
(298,-235,l),
(323,-241,o),
(345,-245,o),
(368,-245,cs),
(458,-245,o),
(521,-196,o),
(521,-88,cs),
(521,330,ls),
(521,453,o),
(441,528,o),
(325,528,cs),
(240,528,o),
(194,486,o),
(166,437,c),
(159,437,l),
(159,515,l),
(80,515,l),
(80,0,l)
);
}
);
width = 595;
},
{
hints = (
{
horizontal = 1;
options = 4;
origin = (0,32);
target = (0,0);
type = TTShift;
},
{
horizontal = 1;
origin = (0,15);
target = up;
type = BottomGhost;
},
{
horizontal = 1;
origin = (0,32);
target = up;
type = BottomGhost;
},
{
horizontal = 1;
origin = (0,25);
target = (0,4);
type = Stem;
},
{
horizontal = 1;
origin = (0,18);
target = (0,11);
type = Stem;
},
{
horizontal = 1;
origin = (0,31);
target = (0,4);
type = Stem;
},
{
origin = (0,32);
target = (0,1);
type = Stem;
},
{
origin = (0,8);
target = (0,22);
type = Stem;
}
);
layerId = m006;
shapes = (
{
closed = 1;
nodes = (
(219,0,l),
(219,305,ls),
(219,375,o),
(259,419,o),
(322,419,cs),
(388,419,o),
(429,375,o),
(429,305,cs),
(429,-61,ls),
(429,-96,o),
(412,-113,o),
(381,-113,cs),
(366,-113,o),
(353,-111,o),
(339,-106,c),
(319,-232,l),
(345,-239,o),
(373,-243,o),
(404,-243,cs),
(512,-243,o),
(571,-176,o),
(571,-68,cs),
(571,339,ls),
(571,456,o),
(481,543,o),
(379,543,cs),
(299,543,o),
(246,501,o),
(221,462,c),
(215,462,l),
(215,530,l),
(78,530,l),
(78,0,l)
);
}
);
width = 642;
}
);
metricRight = n;
unicode = 331;
},
{
glyphname = o;
kernLeft = o;
kernRight = o;
lastChange = "2026-03-03 00:51:57 +0000";
layers = (
{
anchors = (
{
name = bottom;
pos = (324,0);
},
{
name = center;
pos = (324,273);
},
{
name = ogonek;
pos = (396,-5);
},
{
name = top;
pos = (324,530);
},
{
name = topright;
pos = (498,530);
}
);
background = {
shapes = (
{
closed = 1;
nodes = (
(472,-13,o),
(576,99,o),
(576,242,cs),
(576,385,o),
(472,498,o),
(319,498,cs),
(166,498,o),
(62,385,o),
(62,242,cs),
(62,99,o),
(166,-13,o),
(319,-13,cs)
);
},
{
closed = 1;
nodes = (
(241,110,o),
(197,168,o),
(197,242,cs),
(197,316,o),
(241,375,o),
(319,375,cs),
(397,375,o),
(441,316,o),
(441,242,cs),
(441,168,o),
(397,110,o),
(319,110,cs)
);
}
);
};
hints = (
{
horizontal = 1;
origin = (0,11);
target = (1,11);
type = Stem;
},
{
horizontal = 1;
origin = (1,5);
target = (0,5);
type = Stem;
},
{
origin = (0,8);
target = (1,2);
type = Stem;
},
{
origin = (1,8);
target = (0,2);
type = Stem;
}
);
layerId = m006;
shapes = (
{
closed = 1;
nodes = (
(485,-14,o),
(605,106,o),
(605,265,cs),
(605,424,o),
(485,544,o),
(324,544,cs),
(164,544,o),
(44,424,o),
(44,265,cs),
(44,106,o),
(164,-14,o),
(324,-14,cs)
);
},
{
closed = 1;
nodes = (
(245,116,o),
(186,173,o),
(186,265,cs),
(186,357,o),
(245,415,o),
(324,415,cs),
(404,415,o),
(463,357,o),
(463,265,cs),
(463,173,o),
(404,116,o),
(324,116,cs)
);
}
);
width = 649;
},
{
anchors = (
{
name = bottom;
pos = (300,0);
},
{
name = center;
pos = (300,256);
},
{
name = ogonek;
pos = (307,0);
},
{
name = top;
pos = (300,515);
},
{
name = topright;
pos = (476,515);
}
);
background = {
shapes = (
{
pos = (-14,0);
ref = n;
}
);
};
hints = (
{
horizontal = 1;
origin = (0,11);
target = (1,11);
type = Stem;
},
{
horizontal = 1;
origin = (1,5);
target = (0,5);
type = Stem;
},
{
origin = (0,8);
target = (1,2);
type = Stem;
},
{
origin = (1,8);
target = (0,2);
type = Stem;
}
);
layerId = "610C2E7D-EDB4-4EC2-BEB5-F0DB9FB0A101";
shapes = (
{
closed = 1;
nodes = (
(452,-14,o),
(562,100,o),
(562,258,cs),
(562,416,o),
(452,528,o),
(300,528,cs),
(149,528,o),
(40,415,o),
(40,256,cs),
(40,99,o),
(149,-14,o),
(300,-14,cs)
);
},
{
closed = 1;
nodes = (
(192,64,o),
(124,148,o),
(124,257,cs),
(124,369,o),
(192,450,o),
(300,450,cs),
(408,450,o),
(478,366,o),
(478,257,cs),
(478,146,o),
(408,64,o),
(300,64,cs)
);
}
);
width = 601;
}
);
unicode = 111;
},
{
glyphname = oe;
kernLeft = o;
kernRight = e;
lastChange = "2026-03-03 00:58:54 +0000";
layers = (
{
anchors = (
{
name = bottom;
pos = (519,0);
},
{
name = top;
pos = (519,515);
}
);
hints = (
{
horizontal = 1;
origin = (2,32);
target = (2,6);
type = Stem;
},
{
horizontal = 1;
origin = (2,20);
target = (2,18);
type = Stem;
},
{
horizontal = 1;
origin = (2,13);
target = (2,26);
type = Stem;
},
{
origin = (0,8);
target = (1,2);
type = Stem;
},
{
origin = (2,29);
target = (2,9,2,20);
type = Stem;
},
{
origin = (2,16,2,18);
target = (2,23);
type = Stem;
}
);
layerId = "610C2E7D-EDB4-4EC2-BEB5-F0DB9FB0A101";
shapes = (
{
closed = 1;
nodes = (
(452,-14,o),
(559,100,o),
(559,258,cs),
(559,416,o),
(452,528,o),
(300,528,cs),
(149,528,o),
(40,415,o),
(40,256,cs),
(40,99,o),
(149,-14,o),
(300,-14,cs)
);
},
{
closed = 1;
nodes = (
(192,64,o),
(124,148,o),
(124,257,cs),
(124,369,o),
(192,450,o),
(300,450,cs),
(408,450,o),
(478,366,o),
(478,257,cs),
(478,146,o),
(408,64,o),
(300,64,cs)
);
},
{
closed = 1;
nodes = (
(829,-14,o),
(906,20,o),
(954,84,c),
(895,135,l),
(858,85,o),
(809,64,o),
(738,64,cs),
(639,64,o),
(561,135,o),
(559,245,c),
(559,257,l),
(557,380,o),
(628,450,o),
(734,450,cs),
(845,450,o),
(904,370,o),
(900,257,c),
(929,298,l),
(515,298,l),
(515,225,l),
(982,225,l),
(984,234,o),
(984,248,o),
(984,258,cs),
(984,417,o),
(890,528,o),
(736,528,cs),
(583,528,o),
(478,412,o),
(478,258,cs),
(478,101,o),
(581,-14,o),
(737,-14,cs)
);
},
{
closed = 1;
nodes = (
(501,100,l),
(535,100,l),
(535,415,l),
(501,415,l)
);
}
);
width = 1023;
},
{
anchors = (
{
name = bottom;
pos = (531,0);
},
{
name = top;
pos = (531,530);
}
);
hints = (
{
horizontal = 1;
origin = (2,32);
target = (1,11);
type = Stem;
},
{
horizontal = 1;
origin = (2,20);
target = (2,18);
type = Stem;
},
{
horizontal = 1;
origin = (2,13);
target = (2,26);
type = Stem;
},
{
horizontal = 1;
origin = (2,32);
target = (2,6);
type = Stem;
},
{
horizontal = 1;
origin = (1,5);
target = (2,26);
type = Stem;
},
{
origin = (0,8);
target = (1,2);
type = Stem;
}
);
layerId = m006;
shapes = (
{
closed = 1;
nodes = (
(485,-14,o),
(590,106,o),
(590,265,cs),
(590,424,o),
(485,544,o),
(324,544,cs),
(164,544,o),
(44,424,o),
(44,265,cs),
(44,106,o),
(164,-14,o),
(324,-14,cs)
);
},
{
closed = 1;
nodes = (
(245,116,o),
(186,173,o),
(186,265,cs),
(186,357,o),
(245,415,o),
(324,415,cs),
(404,415,o),
(463,357,o),
(463,265,cs),
(463,173,o),
(404,116,o),
(324,116,cs)
);
},
{
closed = 1;
nodes = (
(842,-14,o),
(925,27,o),
(970,79,c),
(877,173,l),
(849,135,o),
(799,112,o),
(746,112,cs),
(655,112,o),
(611,183,o),
(605,251,c),
(604,273,l),
(604,375,o),
(655,429,o),
(734,429,cs),
(818,429,o),
(855,375,o),
(851,278,c),
(893,332,l),
(547,332,l),
(547,227,l),
(990,227,l),
(993,236,o),
(994,257,o),
(994,275,cs),
(994,437,o),
(891,544,o),
(736,544,cs),
(581,544,o),
(477,440,o),
(477,261,cs),
(477,104,o),
(573,-14,o),
(743,-14,cs)
);
},
{
closed = 1;
nodes = (
(501,79,l),
(557,79,l),
(557,453,l),
(501,453,l)
);
}
);
width = 1038;
}
);
metricRight = e;
unicode = 339;
},
{
glyphname = p;
kernLeft = p;
kernRight = o;
lastChange = "2026-03-03 01:08:32 +0000";
layers = (
{
anchors = (
{
name = bottom;
pos = (396,0);
},
{
name = ogonek;
pos = (470,0);
},
{
name = top;
pos = (377,530);
}
);
hints = (
{
horizontal = 1;
origin = (0,13);
target = up;
type = BottomGhost;
},
{
horizontal = 1;
origin = (0,18);
target = (1,11);
type = Stem;
},
{
horizontal = 1;
origin = (1,5);
target = (0,5);
type = Stem;
},
{
horizontal = 1;
origin = (0,11);
target = down;
type = TopGhost;
},
{
origin = (0,12);
target = (1,2);
type = Stem;
},
{
origin = (1,8);
target = (0,2);
type = Stem;
},
{
origin = (0,12);
target = (0,10);
type = Stem;
}
);
layerId = m006;
shapes = (
{
closed = 1;
nodes = (
(543,-14,o),
(649,118,o),
(649,265,cs),
(649,413,o),
(543,544,o),
(386,544,cs),
(311,544,o),
(241,508,o),
(221,450,c),
(215,450,l),
(215,530,l),
(78,530,l),
(78,-230,l),
(219,-230,l),
(219,78,l),
(226,78,l),
(246,22,o),
(315,-14,o),
(386,-14,cs)
);
},
{
closed = 1;
nodes = (
(280,116,o),
(219,180,o),
(219,265,cs),
(219,351,o),
(280,415,o),
(363,415,cs),
(446,415,o),
(507,351,o),
(507,266,cs),
(507,180,o),
(446,116,o),
(363,116,cs)
);
}
);
width = 693;
},
{
anchors = (
{
name = bottom;
pos = (349,0);
},
{
name = ogonek;
pos = (437,0);
},
{
name = top;
pos = (349,515);
}
);
hints = (
{
horizontal = 1;
origin = (0,13);
target = up;
type = BottomGhost;
},
{
horizontal = 1;
origin = (0,18);
target = (1,11);
type = Stem;
},
{
horizontal = 1;
origin = (0,5);
target = (1,5);
type = Stem;
},
{
horizontal = 1;
origin = (0,11);
target = down;
type = TopGhost;
},
{
origin = (0,12);
target = (0,14);
type = Stem;
},
{
origin = (1,8);
target = (0,2);
type = Stem;
}
);
layerId = "610C2E7D-EDB4-4EC2-BEB5-F0DB9FB0A101";
shapes = (
{
closed = 1;
nodes = (
(500,-14,o),
(607,97,o),
(607,256,cs),
(607,416,o),
(500,527,o),
(349,527,cs),
(260,527,o),
(195,480,o),
(166,419,c),
(159,419,l),
(159,515,l),
(80,515,l),
(80,-230,l),
(164,-230,l),
(164,99,l),
(170,99,l),
(199,36,o),
(262,-14,o),
(349,-14,cs)
);
},
{
closed = 1;
nodes = (
(232,64,o),
(162,149,o),
(162,256,cs),
(162,368,o),
(232,449,o),
(341,449,cs),
(457,449,o),
(523,370,o),
(523,257,cs),
(523,147,o),
(457,64,o),
(341,64,cs)
);
}
);
width = 646;
}
);
metricRight = o;
unicode = 112;
},
{
glyphname = thorn;
kernLeft = p;
kernRight = o;
lastChange = "2026-03-03 01:09:34 +0000";
layers = (
{
anchors = (
{
name = bottom;
pos = (324,0);
},
{
name = top;
pos = (324,721);
}
);
hints = (
{
horizontal = 1;
origin = (0,13);
target = up;
type = BottomGhost;
},
{
horizontal = 1;
origin = (0,18);
target = (1,11);
type = Stem;
},
{
horizontal = 1;
origin = (0,5);
target = (1,5);
type = Stem;
},
{
horizontal = 1;
origin = (0,11);
target = down;
type = TopGhost;
},
{
origin = (0,12);
target = (0,14);
type = Stem;
},
{
origin = (1,8);
target = (0,2);
type = Stem;
}
);
layerId = "610C2E7D-EDB4-4EC2-BEB5-F0DB9FB0A101";
shapes = (
{
closed = 1;
nodes = (
(500,-14,o),
(607,97,o),
(607,256,cs),
(607,416,o),
(500,527,o),
(349,527,cs),
(260,527,o),
(199,480,o),
(170,419,c),
(164,419,l),
(164,721,l),
(80,721,l),
(80,-231,l),
(164,-231,l),
(164,99,l),
(170,99,l),
(199,36,o),
(262,-14,o),
(349,-14,cs)
);
},
{
closed = 1;
nodes = (
(232,64,o),
(162,149,o),
(162,256,cs),
(162,368,o),
(232,449,o),
(341,449,cs),
(457,449,o),
(523,370,o),
(523,257,cs),
(523,147,o),
(457,64,o),
(341,64,cs)
);
}
);
width = 646;
},
{
anchors = (
{
name = bottom;
pos = (347,0);
},
{
name = top;
pos = (347,721);
}
);
hints = (
{
horizontal = 1;
origin = (0,13);
target = up;
type = BottomGhost;
},
{
horizontal = 1;
origin = (0,18);
target = (1,11);
type = Stem;
},
{
horizontal = 1;
origin = (1,5);
target = (0,5);
type = Stem;
},
{
horizontal = 1;
origin = (0,11);
target = down;
type = TopGhost;
},
{
origin = (0,12);
target = (1,2);
type = Stem;
},
{
origin = (1,8);
target = (0,2);
type = Stem;
}
);
layerId = m006;
shapes = (
{
closed = 1;
nodes = (
(543,-14,o),
(649,118,o),
(649,265,cs),
(649,413,o),
(543,544,o),
(386,544,cs),
(311,544,o),
(246,508,o),
(226,450,c),
(219,450,l),
(219,721,l),
(78,721,l),
(78,-230,l),
(219,-230,l),
(219,78,l),
(226,78,l),
(246,22,o),
(315,-14,o),
(386,-14,cs)
);
},
{
closed = 1;
nodes = (
(280,116,o),
(219,180,o),
(219,265,cs),
(219,351,o),
(280,415,o),
(363,415,cs),
(446,415,o),
(507,351,o),
(507,266,cs),
(507,180,o),
(446,116,o),
(363,116,cs)
);
}
);
width = 693;
}
);
metricLeft = l;
metricRight = o;
unicode = 254;
},
{
glyphname = q;
kernLeft = o;
kernRight = q;
lastChange = "2026-03-03 01:08:36 +0000";
layers = (
{
anchors = (
{
name = bottom;
pos = (313,0);
},
{
name = ogonek;
pos = (382,0);
},
{
name = top;
pos = (313,530);
}
);
hints = (
{
horizontal = 1;
origin = (0,5);
target = up;
type = BottomGhost;
},
{
horizontal = 1;
origin = (0,18);
target = (1,11);
type = Stem;
},
{
horizontal = 1;
origin = (1,5);
target = (0,12);
type = Stem;
},
{
horizontal = 1;
origin = (0,7);
target = down;
type = TopGhost;
},
{
origin = (0,15);
target = (1,2);
type = Stem;
},
{
origin = (0,6);
target = (1,8);
type = Stem;
},
{
origin = (0,6);
target = (0,8);
type = Stem;
}
);
layerId = m006;
shapes = (
{
closed = 1;
nodes = (
(378,-14,o),
(447,22,o),
(467,78,c),
(473,78,l),
(473,-230,l),
(615,-230,l),
(615,530,l),
(479,530,l),
(479,450,l),
(472,450,l),
(452,508,o),
(383,544,o),
(307,544,cs),
(150,544,o),
(44,413,o),
(44,265,cs),
(44,118,o),
(150,-14,o),
(307,-14,cs)
);
},
{
closed = 1;
nodes = (
(247,116,o),
(186,180,o),
(186,266,cs),
(186,351,o),
(247,415,o),
(330,415,cs),
(413,415,o),
(473,351,o),
(473,265,cs),
(473,180,o),
(413,116,o),
(330,116,cs)
);
}
);
width = 681;
},
{
anchors = (
{
name = bottom;
pos = (525,-230);
},
{
name = ogonek;
pos = (370,0);
},
{
name = top;
pos = (298,515);
}
);
hints = (
{
horizontal = 1;
origin = (0,5);
target = up;
type = BottomGhost;
},
{
horizontal = 1;
origin = (0,18);
target = (1,11);
type = Stem;
},
{
horizontal = 1;
origin = (1,5);
target = (0,12);
type = Stem;
},
{
horizontal = 1;
origin = (0,7);
target = down;
type = TopGhost;
},
{
origin = (0,15);
target = (1,2);
type = Stem;
},
{
origin = (0,4);
target = (0,6);
type = Stem;
}
);
layerId = "610C2E7D-EDB4-4EC2-BEB5-F0DB9FB0A101";
shapes = (
{
closed = 1;
nodes = (
(384,-14,o),
(447,36,o),
(477,99,c),
(483,99,l),
(483,-230,l),
(567,-230,l),
(567,515,l),
(487,515,l),
(487,419,l),
(481,419,l),
(451,480,o),
(386,528,o),
(297,528,cs),
(150,528,o),
(40,416,o),
(40,256,cs),
(40,97,o),
(150,-14,o),
(297,-14,cs)
);
},
{
closed = 1;
nodes = (
(193,64,o),
(124,147,o),
(124,257,cs),
(124,370,o),
(193,450,o),
(305,450,cs),
(415,450,o),
(484,368,o),
(484,256,cs),
(484,149,o),
(415,64,o),
(305,64,cs)
);
}
);
width = 646;
}
);
unicode = 113;
},
{
glyphname = r;
kernLeft = n;
kernRight = r;
lastChange = "2026-03-03 00:51:57 +0000";
layers = (
{
anchors = (
{
name = bottom;
pos = (149,0);
},
{
name = top;
pos = (251,530);
}
);
background = {
shapes = (
{
closed = 1;
nodes = (
(285,518,o),
(234,479,o),
(215,441,c),
(209,441,l),
(209,506,l),
(74,506,l),
(74,180,ls),
(74,76,o),
(157,-12,o),
(306,-12,cs),
(404,-12,o),
(472,26,o),
(523,84,c),
(434,169,l),
(405,132,o),
(363,106,o),
(302,106,cs),
(231,106,o),
(209,138,o),
(209,174,cs),
(209,221,l),
(177,185,l),
(201,187,o),
(232,189,o),
(293,193,cs),
(463,204,o),
(528,269,o),
(528,362,cs),
(528,451,o),
(458,518,o),
(365,518,cs)
);
},
{
closed = 1;
nodes = (
(369,409,o),
(399,388,o),
(399,355,cs),
(399,309,o),
(337,296,o),
(280,293,cs),
(218,289,o),
(188,287,o),
(177,286,c),
(209,256,l),
(209,294,ls),
(209,357,o),
(250,409,o),
(319,409,cs)
);
}
);
};
hints = (
{
horizontal = 1;
origin = (0,16);
target = up;
type = BottomGhost;
},
{
horizontal = 1;
origin = (0,9);
target = (0,5);
type = Stem;
},
{
horizontal = 1;
origin = (0,15);
target = down;
type = TopGhost;
},
{
origin = (0,16);
target = (0,1);
type = Stem;
},
{
origin = (0,16);
target = (0,14);
type = Stem;
}
);
layerId = m006;
shapes = (
{
closed = 1;
nodes = (
(219,0,l),
(219,264,ls),
(219,355,o),
(288,404,o),
(390,404,cs),
(420,404,l),
(422,537,l),
(412,537,o),
(404,538,o),
(395,538,cs),
(296,538,o),
(238,507,o),
(220,444,c),
(215,444,l),
(215,530,l),
(78,530,l),
(78,0,l)
);
}
);
width = 431;
},
{
anchors = (
{
name = bottom;
pos = (122,0);
},
{
name = top;
pos = (219,515);
}
);
background = {
shapes = (
{
closed = 1;
nodes = (
(227,503,o),
(184,452,o),
(162,416,c),
(156,416,l),
(156,490,l),
(76,490,l),
(76,169,ls),
(76,50,o),
(180,-13,o),
(277,-13,cs),
(370,-13,o),
(429,15,o),
(487,77,c),
(433,133,l),
(390,85,o),
(343,61,o),
(281,61,cs),
(218,61,o),
(156,95,o),
(156,167,cs),
(156,209,l),
(143,198,l),
(152,199,o),
(207,202,o),
(255,205,cs),
(404,215,o),
(490,263,o),
(490,362,cs),
(490,438,o),
(420,503,o),
(324,503,cs)
);
},
{
closed = 1;
nodes = (
(369,435,o),
(410,401,o),
(410,355,cs),
(410,306,o),
(357,278,o),
(249,271,cs),
(199,268,o),
(159,265,o),
(145,264,c),
(156,249,l),
(156,287,ls),
(156,366,o),
(213,435,o),
(304,435,cs)
);
}
);
};
hints = (
{
horizontal = 1;
origin = (0,16);
target = up;
type = BottomGhost;
},
{
horizontal = 1;
origin = (0,9);
target = (0,5);
type = Stem;
},
{
horizontal = 1;
origin = (0,15);
target = down;
type = TopGhost;
},
{
origin = (0,16);
target = (0,1);
type = Stem;
},
{
origin = (0,16);
target = (0,14);
type = Stem;
}
);
layerId = "610C2E7D-EDB4-4EC2-BEB5-F0DB9FB0A101";
shapes = (
{
closed = 1;
nodes = (
(164,0,l),
(164,301,ls),
(164,393,o),
(228,437,o),
(326,437,cs),
(353,437,l),
(355,521,l),
(346,522,o),
(338,522,o),
(331,522,cs),
(239,522,o),
(188,486,o),
(166,436,c),
(159,436,l),
(159,515,l),
(80,515,l),
(80,0,l)
);
}
);
width = 365;
}
);
unicode = 114;
},
{
glyphname = s;
kernLeft = s;
kernRight = s;
lastChange = "2026-03-03 00:51:57 +0000";
layers = (
{
anchors = (
{
name = bottom;
pos = (269,0);
},
{
name = ogonek;
pos = (356,0);
},
{
name = top;
pos = (274,530);
}
);
background = {
shapes = (
{
closed = 1;
nodes = (
(376,-13,o),
(463,59,o),
(463,155,cs),
(463,233,o),
(428,289,o),
(277,328,cs),
(215,344,o),
(207,360,o),
(207,383,cs),
(207,406,o),
(234,424,o),
(269,424,cs),
(307,424,o),
(339,408,o),
(364,368,c),
(462,443,l),
(409,512,o),
(353,533,o),
(266,533,cs),
(157,533,o),
(75,465,o),
(75,374,cs),
(75,308,o),
(95,244,o),
(235,212,cs),
(317,193,o),
(330,178,o),
(330,151,cs),
(330,122,o),
(304,99,o),
(254,99,cs),
(210,99,o),
(170,120,o),
(136,161,c),
(45,78,l),
(102,17,o),
(173,-13,o),
(261,-13,cs)
);
}
);
};
hints = (
{
horizontal = 1;
origin = (0,37);
target = (0,30);
type = Stem;
},
{
horizontal = 1;
origin = (0,11);
target = (0,18);
type = Stem;
},
{
origin = (0,21);
target = (0,8);
type = Stem;
},
{
origin = (0,27);
target = (0,2);
type = Stem;
}
);
layerId = m006;
shapes = (
{
closed = 1;
nodes = (
(391,-14,o),
(478,56,o),
(478,161,cs),
(478,261,o),
(419,300,o),
(284,330,cs),
(233,342,o),
(206,355,o),
(206,382,cs),
(206,406,o),
(232,429,o),
(273,429,cs),
(315,429,o),
(344,412,o),
(374,368,c),
(476,447,l),
(427,507,o),
(381,544,o),
(273,544,cs),
(140,544,o),
(67,463,o),
(67,377,cs),
(67,276,o),
(129,229,o),
(245,207,cs),
(314,193,o),
(338,179,o),
(338,150,cs),
(338,121,o),
(310,103,o),
(263,103,cs),
(209,103,o),
(169,128,o),
(127,171,c),
(38,79,l),
(101,18,o),
(167,-14,o),
(268,-14,cs)
);
}
);
width = 526;
},
{
anchors = (
{
name = bottom;
pos = (245,0);
},
{
name = ogonek;
pos = (323,0);
},
{
name = top;
pos = (254,515);
}
);
background = {
shapes = (
{
closed = 1;
nodes = (
(-1214,587,o),
(-1131,653,o),
(-1131,753,cs),
(-1131,849,o),
(-1187,886,o),
(-1315,914,cs),
(-1364,926,o),
(-1390,938,o),
(-1390,964,cs),
(-1390,987,o),
(-1365,1009,o),
(-1326,1009,cs),
(-1286,1009,o),
(-1258,992,o),
(-1230,950,c),
(-1133,1026,l),
(-1179,1083,o),
(-1223,1118,o),
(-1326,1118,cs),
(-1453,1118,o),
(-1522,1041,o),
(-1522,959,cs),
(-1522,863,o),
(-1463,818,o),
(-1353,797,cs),
(-1287,784,o),
(-1264,770,o),
(-1264,743,cs),
(-1264,715,o),
(-1291,698,o),
(-1335,698,cs),
(-1387,698,o),
(-1425,722,o),
(-1465,763,c),
(-1550,675,l),
(-1490,617,o),
(-1427,587,o),
(-1331,587,cs)
);
},
{
closed = 1;
nodes = (
(-1213,587,o),
(-1111,692,o),
(-1111,844,cs),
(-1111,996,o),
(-1213,1102,o),
(-1356,1102,cs),
(-1437,1102,o),
(-1499,1057,o),
(-1527,999,c),
(-1533,999,l),
(-1533,1090,l),
(-1613,1090,l),
(-1613,390,l),
(-1535,390,l),
(-1535,694,l),
(-1529,694,l),
(-1501,634,o),
(-1439,587,o),
(-1356,587,cs)
);
},
{
closed = 1;
nodes = (
(-1464,661,o),
(-1529,742,o),
(-1529,844,cs),
(-1529,950,o),
(-1464,1028,o),
(-1360,1028,cs),
(-1250,1028,o),
(-1187,952,o),
(-1187,845,cs),
(-1187,740,o),
(-1250,661,o),
(-1360,661,cs)
);
},
{
closed = 1;
nodes = (
(-289,588,o),
(-221,620,o),
(-174,680,c),
(-230,728,l),
(-264,682,o),
(-306,662,o),
(-369,662,cs),
(-472,662,o),
(-543,740,o),
(-543,845,cs),
(-543,948,o),
(-476,1027,o),
(-373,1027,cs),
(-311,1027,o),
(-270,1006,o),
(-231,959,c),
(-173,1005,l),
(-221,1069,o),
(-291,1102,o),
(-376,1101,cs),
(-520,1099,o),
(-623,984,o),
(-623,845,cs),
(-623,705,o),
(-518,588,o),
(-373,588,cs)
);
},
{
closed = 1;
nodes = (
(294,-13,o),
(339,27,o),
(366,74,c),
(372,74,l),
(372,0,l),
(452,0,l),
(452,490,l),
(372,490,l),
(372,194,ls),
(372,112,o),
(316,61,o),
(228,61,cs),
(155,61,o),
(109,112,o),
(109,194,cs),
(109,490,l),
(29,490,l),
(29,176,ls),
(29,59,o),
(106,-13,o),
(216,-13,cs)
);
}
);
};
hints = (
{
horizontal = 1;
options = 4;
origin = (0,37);
target = (0,30);
type = TTStem;
},
{
horizontal = 1;
options = 4;
origin = (0,18);
target = (0,11);
type = TTStem;
},
{
horizontal = 1;
origin = (0,37);
target = (0,30);
type = Stem;
},
{
horizontal = 1;
origin = (0,11);
target = (0,18);
type = Stem;
},
{
origin = (0,21);
target = (0,8);
type = Stem;
},
{
origin = (0,27);
target = (0,2);
type = Stem;
}
);
layerId = "610C2E7D-EDB4-4EC2-BEB5-F0DB9FB0A101";
shapes = (
{
closed = 1;
nodes = (
(345,-14,o),
(435,45,o),
(435,146,cs),
(435,226,o),
(383,273,o),
(262,300,cs),
(174,320,o),
(152,343,o),
(152,385,cs),
(152,426,o),
(198,457,o),
(254,457,cs),
(302,457,o),
(340,436,o),
(370,389,c),
(434,436,l),
(388,501,o),
(334,528,o),
(249,528,cs),
(148,528,o),
(67,464,o),
(67,378,cs),
(67,299,o),
(120,251,o),
(228,225,cs),
(313,205,o),
(350,182,o),
(350,139,cs),
(350,87,o),
(301,62,o),
(240,62,cs),
(183,62,o),
(146,85,o),
(101,132,c),
(44,74,l),
(105,14,o),
(158,-14,o),
(245,-14,cs)
);
}
);
width = 491;
}
);
unicode = 115;
},
{
glyphname = germandbls;
kernLeft = l;
kernRight = B;
lastChange = "2026-03-03 01:00:54 +0000";
layers = (
{
background = {
shapes = (
{
closed = 1;
nodes = (
(330,20,ls),
(482,20,o),
(578,96,o),
(578,213,cs),
(578,331,o),
(476,385,o),
(422,391,c),
(422,397,l),
(475,408,o),
(539,441,o),
(539,536,cs),
(539,645,o),
(457,720,o),
(305,720,cs),
(69,720,l),
(69,20,l)
);
},
{
closed = 1;
nodes = (
(209,309,l),
(327,309,ls),
(393,309,o),
(436,286,o),
(436,231,cs),
(436,174,o),
(393,155,o),
(327,155,cs),
(209,155,l)
);
},
{
closed = 1;
nodes = (
(209,585,l),
(302,585,ls),
(368,585,o),
(397,565,o),
(397,513,cs),
(397,461,o),
(368,439,o),
(302,439,cs),
(209,439,l)
);
},
{
closed = 1;
nodes = (
(516,-13,o),
(597,100,o),
(597,212,cs),
(597,284,o),
(564,384,o),
(446,409,c),
(446,413,l),
(505,437,o),
(536,498,o),
(536,559,cs),
(536,659,o),
(446,753,o),
(312,753,cs),
(170,753,o),
(74,651,o),
(74,524,cs),
(74,0,l),
(209,0,l),
(209,524,ls),
(209,594,o),
(255,630,o),
(308,630,cs),
(360,630,o),
(402,592,o),
(402,544,cs),
(402,471,o),
(351,435,o),
(291,435,c),
(291,327,l),
(416,346,o),
(463,280,o),
(463,215,cs),
(463,140,o),
(408,108,o),
(362,108,cs),
(333,108,o),
(308,116,o),
(289,123,c),
(289,4,l),
(308,-8,o),
(345,-13,o),
(366,-13,cs)
);
}
);
};
hints = (
{
horizontal = 1;
origin = (0,41);
target = (0,34);
type = Stem;
},
{
horizontal = 1;
place = (326,110);
type = Stem;
},
{
horizontal = 1;
origin = (0,21);
target = (0,12);
type = Stem;
},
{
horizontal = 1;
origin = (0,17);
target = up;
type = BottomGhost;
},
{
origin = (0,16);
target = (0,18);
type = Stem;
},
{
origin = (0,31);
target = (0,2);
type = Stem;
},
{
origin = (0,28);
target = (0,6);
type = Stem;
},
{
origin = (0,24);
target = (0,9);
type = Stem;
}
);
layerId = m006;
shapes = (
{
closed = 1;
nodes = (
(542,-14,o),
(627,105,o),
(627,212,cs),
(627,277,o),
(592,382,o),
(468,408,c),
(468,413,l),
(530,438,o),
(563,492,o),
(563,545,cs),
(563,637,o),
(468,734,o),
(327,734,cs),
(178,734,o),
(78,629,o),
(78,509,cs),
(78,0,l),
(219,0,l),
(219,509,ls),
(219,569,o),
(268,605,o),
(323,605,cs),
(368,605,o),
(422,572,o),
(422,516,cs),
(422,464,o),
(382,436,o),
(305,436,c),
(305,322,l),
(437,342,o),
(486,273,o),
(486,215,cs),
(486,147,o),
(428,113,o),
(380,113,cs),
(349,113,o),
(323,122,o),
(303,129,c),
(303,4,l),
(323,-8,o),
(362,-14,o),
(384,-14,cs)
);
}
);
width = 679;
},
{
background = {
shapes = (
{
closed = 1;
nodes = (
(-270,600,ls),
(-131,600,o),
(-35,672,o),
(-35,791,cs),
(-35,894,o),
(-98,943,o),
(-203,962,c),
(-203,967,l),
(-106,990,o),
(-74,1048,o),
(-74,1116,cs),
(-74,1232,o),
(-156,1300,o),
(-295,1300,cs),
(-524,1300,l),
(-524,600,l)
);
},
{
closed = 1;
nodes = (
(-440,918,l),
(-279,918,ls),
(-187,918,o),
(-120,880,o),
(-120,798,cs),
(-120,715,o),
(-187,676,o),
(-279,676,cs),
(-440,676,l)
);
},
{
closed = 1;
nodes = (
(-440,1224,l),
(-304,1224,ls),
(-212,1224,o),
(-159,1188,o),
(-159,1107,cs),
(-159,1022,o),
(-212,990,o),
(-304,990,cs),
(-440,990,l)
);
},
{
closed = 1;
nodes = (
(-102,587,o),
(-31,700,o),
(-31,812,cs),
(-31,884,o),
(-66,980,o),
(-204,1005,c),
(-204,1009,l),
(-125,1033,o),
(-92,1098,o),
(-92,1169,cs),
(-92,1259,o),
(-167,1353,o),
(-301,1353,cs),
(-443,1353,o),
(-524,1251,o),
(-524,1134,cs),
(-524,600,l),
(-439,600,l),
(-439,1134,ls),
(-439,1229,o),
(-397,1277,o),
(-305,1277,cs),
(-253,1277,o),
(-176,1253,o),
(-176,1154,cs),
(-176,1071,o),
(-237,1035,o),
(-297,1035,c),
(-297,946,l),
(-194,962,o),
(-113,927,o),
(-113,794,cs),
(-113,693,o),
(-168,649,o),
(-230,649,cs),
(-269,649,o),
(-303,660,o),
(-329,670,c),
(-329,604,l),
(-310,592,o),
(-273,587,o),
(-252,587,cs)
);
},
{
closed = 1;
nodes = (
(-99,587,o),
(-18,700,o),
(-18,812,cs),
(-18,884,o),
(-51,984,o),
(-169,1009,c),
(-169,1013,l),
(-110,1037,o),
(-79,1098,o),
(-79,1159,cs),
(-79,1259,o),
(-164,1353,o),
(-298,1353,cs),
(-440,1353,o),
(-531,1251,o),
(-531,1124,cs),
(-531,600,l),
(-396,600,l),
(-396,1124,ls),
(-396,1194,o),
(-355,1230,o),
(-302,1230,cs),
(-250,1230,o),
(-213,1192,o),
(-213,1144,cs),
(-213,1071,o),
(-264,1035,o),
(-324,1035,c),
(-324,927,l),
(-199,946,o),
(-152,880,o),
(-152,815,cs),
(-152,740,o),
(-207,708,o),
(-253,708,cs),
(-282,708,o),
(-307,716,o),
(-326,723,c),
(-326,604,l),
(-307,592,o),
(-270,587,o),
(-249,587,cs)
);
},
{
closed = 1;
nodes = (
(158,0,l),
(158,556,ls),
(158,635,o),
(200,685,o),
(276,685,cs),
(358,685,o),
(394,635,o),
(394,556,c),
(474,556,l),
(474,669,o),
(398,753,o),
(276,753,cs),
(161,753,o),
(79,670,o),
(79,560,cs),
(79,0,l)
);
},
{
pos = (325,0);
ref = idotless;
},
{
closed = 1;
nodes = (
(491,-13,o),
(576,43,o),
(576,139,cs),
(576,215,o),
(527,260,o),
(412,286,cs),
(328,305,o),
(307,327,o),
(307,367,cs),
(307,406,o),
(351,435,o),
(404,435,cs),
(450,435,o),
(486,415,o),
(514,370,c),
(575,415,l),
(532,477,o),
(480,503,o),
(399,503,cs),
(303,503,o),
(226,442,o),
(226,360,cs),
(226,285,o),
(276,239,o),
(379,214,cs),
(460,195,o),
(495,173,o),
(495,132,cs),
(495,83,o),
(449,59,o),
(391,59,cs),
(336,59,o),
(301,81,o),
(258,126,c),
(204,70,l),
(262,13,o),
(313,-13,o),
(395,-13,cs)
);
},
{
closed = 1;
nodes = (
(498,-13,o),
(569,90,o),
(569,205,cs),
(569,319,o),
(484,404,o),
(370,404,c),
(370,408,l),
(449,428,o),
(508,494,o),
(508,569,cs),
(508,664,o),
(418,753,o),
(299,753,cs),
(172,753,o),
(76,659,o),
(76,534,cs),
(76,0,l),
(156,0,l),
(156,534,ls),
(156,622,o),
(213,677,o),
(295,677,cs),
(374,677,o),
(426,630,o),
(426,554,cs),
(426,476,o),
(358,434,o),
(254,423,c),
(254,357,l),
(388,380,o),
(489,319,o),
(489,196,cs),
(489,114,o),
(435,61,o),
(345,61,cs),
(311,61,o),
(288,64,o),
(254,76,c),
(254,3,l),
(277,-9,o),
(311,-13,o),
(342,-13,cs)
);
}
);
};
hints = (
{
horizontal = 1;
origin = (0,41);
target = (0,34);
type = Stem;
},
{
horizontal = 1;
place = (337,40);
type = Stem;
},
{
horizontal = 1;
origin = (0,21);
target = (0,12);
type = Stem;
},
{
horizontal = 1;
origin = (0,17);
target = up;
type = BottomGhost;
},
{
horizontal = 1;
place = (337,66);
type = Stem;
},
{
origin = (0,16);
target = (0,18);
type = Stem;
},
{
origin = (0,38);
target = (0,6);
type = Stem;
},
{
origin = (0,31);
target = (0,2);
type = Stem;
},
{
origin = (0,24);
target = (0,9);
type = Stem;
}
);
layerId = "610C2E7D-EDB4-4EC2-BEB5-F0DB9FB0A101";
shapes = (
{
closed = 1;
nodes = (
(523,-14,o),
(597,86,o),
(597,200,cs),
(597,290,o),
(508,377,o),
(388,377,c),
(388,381,l),
(471,402,o),
(533,456,o),
(533,550,cs),
(533,650,o),
(439,734,o),
(314,734,cs),
(180,734,o),
(80,645,o),
(80,514,cs),
(80,0,l),
(164,0,l),
(164,514,ls),
(164,606,o),
(223,654,o),
(310,654,cs),
(393,654,o),
(447,615,o),
(447,535,cs),
(447,437,o),
(376,408,o),
(267,403,c),
(267,334,l),
(407,352,o),
(513,290,o),
(513,193,cs),
(513,111,o),
(457,64,o),
(362,64,cs),
(326,64,o),
(302,67,o),
(267,80,c),
(267,3,l),
(291,-9,o),
(326,-14,o),
(359,-14,cs)
);
}
);
width = 647;
}
);
metricRight = B;
unicode = 223;
},
{
glyphname = t;
kernLeft = t;
kernRight = t;
lastChange = "2026-03-03 00:51:58 +0000";
layers = (
{
background = {
shapes = (
{
closed = 1;
nodes = (
(345,-9,o),
(377,-1,o),
(407,18,c),
(363,122,l),
(348,111,o),
(330,106,o),
(308,106,cs),
(274,106,o),
(250,124,o),
(250,165,cs),
(250,644,l),
(115,630,l),
(115,163,ls),
(115,41,o),
(187,-9,o),
(291,-9,cs)
);
},
{
closed = 1;
nodes = (
(345,-13,o),
(365,-10,o),
(394,-4,c),
(394,110,l),
(376,105,o),
(352,102,o),
(324,102,cs),
(287,102,o),
(250,123,o),
(250,174,cs),
(250,644,l),
(115,617,l),
(115,163,ls),
(115,57,o),
(193,-13,o),
(303,-13,cs)
);
},
{
closed = 1;
nodes = (
(394,385,l),
(394,505,l),
(22,505,l),
(22,385,l)
);
}
);
};
layerId = m006;
shapes = (
{
ref = tpart.comb;
},
{
pos = (5,0);
ref = partstroke.comb;
}
);
width = 440;
},
{
background = {
shapes = (
{
closed = 1;
nodes = (
(-171,488,o),
(-140,501,o),
(-103,527,c),
(-143,586,l),
(-162,568,o),
(-184,562,o),
(-214,562,cs),
(-258,562,o),
(-287,594,o),
(-287,650,cs),
(-287,1122,l),
(-367,1108,l),
(-367,645,ls),
(-367,543,o),
(-309,488,o),
(-219,488,cs)
);
},
{
closed = 1;
nodes = (
(331,60,o),
(365,94,o),
(365,136,cs),
(365,178,o),
(331,211,o),
(290,211,cs),
(247,211,o),
(214,178,o),
(214,136,cs),
(214,94,o),
(247,60,o),
(290,60,cs)
);
}
);
};
layerId = "610C2E7D-EDB4-4EC2-BEB5-F0DB9FB0A101";
shapes = (
{
ref = tpart.comb;
},
{
pos = (6,0);
ref = partstroke.comb;
}
);
width = 416;
}
);
unicode = 116;
},
{
glyphname = u;
kernLeft = u;
kernRight = u;
lastChange = "2026-03-03 00:51:57 +0000";
layers = (
{
anchors = (
{
name = bottom;
pos = (314,0);
},
{
name = ogonek;
pos = (418,0);
},
{
name = top;
pos = (313,530);
},
{
name = topright;
pos = (534,530);
}
);
background = {
shapes = (
{
closed = 1;
nodes = (
(998,-80,l),
(998,-365,ls),
(998,-455,o),
(947,-494,o),
(890,-494,cs),
(823,-494,o),
(778,-455,o),
(778,-365,cs),
(778,-80,l),
(643,-80,l),
(643,-398,ls),
(643,-529,o),
(729,-612,o),
(840,-612,cs),
(914,-612,o),
(969,-586,o),
(1000,-535,c),
(1000,-535,l),
(1000,-600,l),
(1133,-600,l),
(1133,-80,l)
);
},
{
closed = 1;
nodes = (
(398,505,l),
(398,215,ls),
(398,148,o),
(360,106,o),
(300,106,cs),
(237,106,o),
(198,148,o),
(198,215,cs),
(198,505,l),
(63,505,l),
(63,182,ls),
(63,71,o),
(149,-12,o),
(246,-12,cs),
(324,-12,o),
(375,28,o),
(398,65,c),
(404,65,l),
(404,0,l),
(533,0,l),
(533,505,l)
);
}
);
};
hints = (
{
horizontal = 1;
options = 4;
origin = (0,16);
target = (0,7);
type = TTShift;
},
{
horizontal = 1;
origin = (0,20);
target = (0,11);
type = Stem;
},
{
horizontal = 1;
origin = (0,16);
target = down;
type = TopGhost;
},
{
horizontal = 1;
origin = (0,5);
target = (0,11);
type = Stem;
},
{
origin = (0,15);
target = (0,17);
type = Stem;
},
{
origin = (0,6);
target = (0,8);
type = Stem;
},
{
origin = (0,4);
target = (0,6);
type = Stem;
}
);
layerId = m006;
shapes = (
{
closed = 1;
nodes = (
(334,-13,o),
(387,29,o),
(411,68,c),
(418,68,l),
(418,0,l),
(555,0,l),
(555,530,l),
(414,530,l),
(414,226,ls),
(414,155,o),
(374,111,o),
(315,111,cs),
(254,111,o),
(213,155,o),
(213,226,cs),
(213,530,l),
(71,530,l),
(71,191,ls),
(71,75,o),
(162,-13,o),
(258,-13,cs)
);
}
);
width = 633;
},
{
anchors = (
{
name = bottom;
pos = (279,0);
},
{
name = ogonek;
pos = (424,0);
},
{
name = top;
pos = (290,515);
},
{
name = topright;
pos = (506,515);
}
);
background = {
shapes = (
{
closed = 1;
nodes = (
(372,490,l),
(372,202,ls),
(372,124,o),
(318,61,o),
(225,61,cs),
(131,61,o),
(92,121,o),
(92,202,cs),
(92,490,l),
(13,490,l),
(13,184,ls),
(13,80,o),
(93,-12,o),
(209,-12,cs),
(290,-12,o),
(347,38,o),
(367,95,c),
(365,94,l),
(374,94,l),
(373,95,l),
(373,0,l),
(452,0,l),
(452,490,l)
);
}
);
};
hints = (
{
horizontal = 1;
options = 4;
place = (490,0);
type = TTShift;
},
{
horizontal = 1;
origin = (0,20);
target = (0,11);
type = Stem;
},
{
horizontal = 1;
origin = (0,16);
target = down;
type = TopGhost;
},
{
horizontal = 1;
origin = (0,5);
target = up;
type = BottomGhost;
},
{
origin = (0,15);
target = (0,17);
type = Stem;
},
{
origin = (0,6);
target = (0,8);
type = Stem;
},
{
origin = (0,4);
target = (0,6);
type = Stem;
}
);
layerId = "610C2E7D-EDB4-4EC2-BEB5-F0DB9FB0A101";
shapes = (
{
closed = 1;
nodes = (
(344,-14,o),
(391,28,o),
(420,78,c),
(426,78,l),
(426,0,l),
(506,0,l),
(506,515,l),
(422,515,l),
(422,204,ls),
(422,118,o),
(363,64,o),
(277,64,cs),
(207,64,o),
(158,118,o),
(158,204,cs),
(158,515,l),
(74,515,l),
(74,185,ls),
(74,62,o),
(155,-14,o),
(264,-14,cs)
);
}
);
width = 586;
}
);
metricRight = "=|n";
unicode = 117;
},
{
glyphname = v;
kernLeft = v;
kernRight = v;
lastChange = "2026-03-03 00:51:57 +0000";
layers = (
{
anchors = (
{
name = bottom;
pos = (312,0);
},
{
name = top;
pos = (312,530);
}
);
background = {
shapes = (
{
closed = 1;
nodes = (
(338,0,l),
(554,520,l),
(397,520,l),
(293,223,ls),
(283,194,o),
(274,159,o),
(269,129,c),
(264,129,l),
(259,159,o),
(250,194,o),
(240,223,cs),
(136,520,l),
(-24,520,l),
(193,0,l)
);
}
);
};
hints = (
{
horizontal = 1;
origin = (0,13);
target = (0,7);
type = Stem;
},
{
horizontal = 1;
origin = (0,12);
target = down;
type = TopGhost;
}
);
layerId = m006;
shapes = (
{
closed = 1;
nodes = (
(386,0,l),
(603,530,l),
(438,530,l),
(339,228,ls),
(332,207,o),
(321,170,o),
(316,138,c),
(308,138,l),
(302,170,o),
(291,207,o),
(283,228,cs),
(185,530,l),
(17,530,l),
(234,0,l)
);
}
);
width = 619;
},
{
anchors = (
{
name = bottom;
pos = (268,0);
},
{
name = top;
pos = (268,515);
}
);
hints = (
{
horizontal = 1;
origin = (0,13);
target = (0,7);
type = Stem;
},
{
horizontal = 1;
origin = (0,12);
target = down;
type = TopGhost;
}
);
layerId = "610C2E7D-EDB4-4EC2-BEB5-F0DB9FB0A101";
shapes = (
{
closed = 1;
nodes = (
(316,0,l),
(517,515,l),
(421,515,l),
(309,183,ls),
(298,153,o),
(282,108,o),
(274,71,c),
(266,71,l),
(257,108,o),
(239,152,o),
(229,183,cs),
(114,515,l),
(19,515,l),
(218,0,l)
);
}
);
width = 535;
}
);
unicode = 118;
},
{
glyphname = w;
kernLeft = w;
kernRight = w;
lastChange = "2026-03-03 00:51:57 +0000";
layers = (
{
anchors = (
{
name = bottom;
pos = (465,0);
},
{
name = top;
pos = (465,530);
}
);
background = {
shapes = (
{
closed = 1;
nodes = (
(303,0,l),
(509,490,l),
(352,490,l),
(258,211,ls),
(251,191,o),
(241,157,o),
(236,127,c),
(228,127,l),
(223,157,o),
(212,191,o),
(205,211,cs),
(111,490,l),
(-49,490,l),
(158,0,l)
);
},
{
closed = 1;
nodes = (
(341,490,l),
(135,0,l),
(292,0,l),
(386,279,ls),
(393,299,o),
(403,333,o),
(408,363,c),
(416,363,l),
(421,333,o),
(432,299,o),
(439,279,cs),
(533,0,l),
(693,0,l),
(486,490,l)
);
},
{
closed = 1;
nodes = (
(664,0,l),
(870,490,l),
(713,490,l),
(619,211,ls),
(612,191,o),
(602,157,o),
(597,127,c),
(589,127,l),
(584,157,o),
(573,191,o),
(566,211,cs),
(472,490,l),
(312,490,l),
(519,0,l)
);
}
);
};
hints = (
{
horizontal = 1;
origin = (0,33);
target = (0,27);
type = Stem;
},
{
horizontal = 1;
origin = (0,32);
target = (0,5);
type = Stem;
}
);
layerId = m006;
shapes = (
{
closed = 1;
nodes = (
(355,0,l),
(439,288,ls),
(448,321,o),
(455,355,o),
(460,393,c),
(468,393,l),
(474,355,o),
(481,321,o),
(491,288,cs),
(577,0,l),
(731,0,l),
(905,530,l),
(751,530,l),
(680,244,ls),
(672,211,o),
(663,175,o),
(658,138,c),
(650,138,l),
(646,175,o),
(637,212,o),
(628,245,cs),
(546,530,l),
(383,530,l),
(301,245,ls),
(292,211,o),
(285,175,o),
(279,138,c),
(271,138,l),
(266,175,o),
(257,211,o),
(250,244,cs),
(183,530,l),
(17,530,l),
(192,0,l)
);
}
);
width = 922;
},
{
anchors = (
{
name = bottom;
pos = (414,0);
},
{
name = top;
pos = (414,515);
}
);
hints = (
{
horizontal = 1;
origin = (0,33);
target = (0,27);
type = Stem;
},
{
horizontal = 1;
origin = (0,32);
target = (0,5);
type = Stem;
}
);
layerId = "610C2E7D-EDB4-4EC2-BEB5-F0DB9FB0A101";
shapes = (
{
closed = 1;
nodes = (
(287,0,l),
(385,321,ls),
(402,375,o),
(407,411,o),
(411,443,c),
(417,443,l),
(420,412,o),
(425,374,o),
(442,321,cs),
(543,0,l),
(640,0,l),
(807,515,l),
(716,515,l),
(621,193,ls),
(609,154,o),
(597,102,o),
(596,71,c),
(590,71,l),
(588,102,o),
(576,153,o),
(564,194,cs),
(464,515,l),
(364,515,l),
(266,194,ls),
(253,153,o),
(244,103,o),
(243,71,c),
(236,71,l),
(233,104,o),
(222,152,o),
(209,193,cs),
(114,515,l),
(19,515,l),
(186,0,l)
);
}
);
width = 826;
}
);
unicode = 119;
},
{
glyphname = x;
lastChange = "2026-03-03 00:51:57 +0000";
layers = (
{
anchors = (
{
name = bottom;
pos = (303,0);
},
{
name = top;
pos = (303,530);
}
);
background = {
shapes = (
{
closed = 1;
nodes = (
(142,0,l),
(259,156,l),
(260,156,l),
(258,156,l),
(259,156,l),
(372,0,l),
(536,0,l),
(341,243,l),
(526,490,l),
(368,490,l),
(258,335,l),
(259,335,l),
(257,335,l),
(258,335,l),
(152,490,l),
(-9,490,l),
(176,245,l),
(-19,0,l)
);
}
);
};
hints = (
{
horizontal = 1;
origin = (0,13);
target = up;
type = BottomGhost;
},
{
horizontal = 1;
origin = (0,11);
target = down;
type = TopGhost;
}
);
layerId = m006;
shapes = (
{
closed = 1;
nodes = (
(191,0,l),
(301,171,l),
(306,171,l),
(412,0,l),
(584,0,l),
(390,267,l),
(573,530,l),
(407,530,l),
(304,366,l),
(300,366,l),
(202,530,l),
(33,530,l),
(216,269,l),
(22,0,l)
);
}
);
width = 606;
},
{
anchors = (
{
name = bottom;
pos = (277,0);
},
{
name = top;
pos = (277,515);
}
);
hints = (
{
horizontal = 1;
origin = (0,13);
target = up;
type = BottomGhost;
},
{
horizontal = 1;
origin = (0,11);
target = down;
type = TopGhost;
}
);
layerId = "610C2E7D-EDB4-4EC2-BEB5-F0DB9FB0A101";
shapes = (
{
closed = 1;
nodes = (
(124,0,l),
(275,208,l),
(279,208,l),
(427,0,l),
(530,0,l),
(332,259,l),
(518,515,l),
(419,515,l),
(279,314,l),
(275,314,l),
(140,515,l),
(38,515,l),
(224,260,l),
(24,0,l)
);
}
);
width = 554;
}
);
unicode = 120;
},
{
glyphname = y;
kernLeft = y;
kernRight = v;
lastChange = "2026-03-03 00:51:57 +0000";
layers = (
{
anchors = (
{
name = bottom;
pos = (467,0);
},
{
name = ogonek;
pos = (188,-224);
},
{
name = top;
pos = (313,530);
},
{
name = top_hook;
pos = (314,466);
}
);
background = {
shapes = (
{
closed = 1;
nodes = (
(340,0,l),
(546,490,l),
(389,490,l),
(295,211,ls),
(288,191,o),
(278,157,o),
(273,127,c),
(265,127,l),
(260,157,o),
(249,191,o),
(242,211,cs),
(148,490,l),
(-12,490,l),
(195,0,l)
);
},
{
closed = 1;
nodes = (
(136,-208,l),
(260,-257,l),
(572,505,l),
(444,552,l)
);
}
);
};
hints = (
{
horizontal = 1;
options = 4;
origin = (0,26);
target = (0,19);
type = TTStem;
},
{
horizontal = 1;
options = 4;
origin = (0,14);
type = TTSnap;
},
{
horizontal = 1;
options = 4;
origin = (0,23);
type = TTSnap;
},
{
horizontal = 1;
origin = (0,26);
target = (0,19);
type = Stem;
},
{
horizontal = 1;
origin = (0,14);
target = down;
type = TopGhost;
},
{
horizontal = 1;
origin = (0,23);
target = up;
type = BottomGhost;
}
);
layerId = m006;
shapes = (
{
closed = 1;
nodes = (
(218,-237,o),
(301,-191,o),
(362,-46,cs),
(606,530,l),
(441,530,l),
(342,228,ls),
(335,206,o),
(322,169,o),
(317,137,c),
(312,137,l),
(307,169,o),
(294,206,o),
(287,228,cs),
(188,530,l),
(20,530,l),
(234,5,l),
(220,-26,ls),
(196,-83,o),
(152,-99,o),
(98,-99,cs),
(75,-99,o),
(59,-97,o),
(38,-90,c),
(17,-227,l),
(45,-234,o),
(69,-237,o),
(98,-237,cs)
);
}
);
width = 623;
},
{
anchors = (
{
name = bottom;
pos = (425,0);
},
{
name = ogonek;
pos = (146,-224);
},
{
name = top;
pos = (271,515);
},
{
name = top_hook;
pos = (272,450);
}
);
hints = (
{
horizontal = 1;
origin = (0,26);
target = (0,19);
type = Stem;
},
{
horizontal = 1;
origin = (0,14);
target = down;
type = TopGhost;
},
{
horizontal = 1;
origin = (0,23);
target = up;
type = BottomGhost;
}
);
layerId = "610C2E7D-EDB4-4EC2-BEB5-F0DB9FB0A101";
shapes = (
{
closed = 1;
nodes = (
(158,-237,o),
(228,-212,o),
(285,-77,cs),
(534,515,l),
(439,515,l),
(306,194,ls),
(293,164,o),
(274,111,o),
(266,74,c),
(258,74,l),
(250,111,o),
(228,165,o),
(216,194,cs),
(96,515,l),
(0,515,l),
(217,-7,l),
(196,-60,ls),
(165,-138,o),
(125,-157,o),
(81,-157,cs),
(56,-157,o),
(37,-154,o),
(15,-147,c),
(0,-225,l),
(22,-232,o),
(48,-237,o),
(83,-237,cs)
);
}
);
width = 534;
}
);
unicode = 121;
},
{
glyphname = z;
kernLeft = z;
kernRight = z;
lastChange = "2026-03-03 00:51:57 +0000";
layers = (
{
anchors = (
{
name = bottom;
pos = (296,0);
},
{
name = ogonek;
pos = (525,0);
},
{
name = top;
pos = (296,530);
}
);
background = {
shapes = (
{
closed = 0;
nodes = (
(475,505,l),
(475,520,l),
(27,520,l),
(27,408,l),
(272,408,l),
(272,406,l),
(261,398,o),
(248,382,o),
(230,353,cs)
);
},
{
closed = 1;
nodes = (
(500,0,l),
(500,112,l),
(260,112,l),
(260,114,l),
(270,121,o),
(281,136,o),
(298,162,cs),
(504,490,l),
(504,505,l),
(56,505,l),
(56,393,l),
(293,393,l),
(293,391,l),
(282,383,o),
(269,366,o),
(251,338,cs),
(46,15,l),
(46,0,l)
);
}
);
};
hints = (
{
horizontal = 1;
origin = (0,17);
target = (0,2);
type = Stem;
},
{
horizontal = 1;
origin = (0,9);
target = (0,11);
type = Stem;
}
);
layerId = m006;
shapes = (
{
closed = 1;
nodes = (
(525,0,l),
(525,126,l),
(279,126,l),
(279,128,l),
(290,135,o),
(295,143,o),
(313,170,cs),
(529,515,l),
(529,530,l),
(59,530,l),
(59,404,l),
(301,404,l),
(301,402,l),
(290,394,o),
(282,384,o),
(263,355,cs),
(48,16,l),
(48,0,l)
);
}
);
width = 583;
},
{
anchors = (
{
name = bottom;
pos = (270,0);
},
{
name = ogonek;
pos = (499,0);
},
{
name = top;
pos = (270,515);
}
);
background = {
shapes = (
{
closed = 1;
nodes = (
(475,0,l),
(475,71,l),
(182,71,l),
(182,73,l),
(195,83,o),
(204,96,o),
(222,121,cs),
(479,475,l),
(479,490,l),
(58,490,l),
(58,419,l),
(348,419,l),
(348,417,l),
(335,407,o),
(324,391,o),
(304,364,cs),
(48,15,l),
(48,0,l)
);
}
);
};
hints = (
{
horizontal = 1;
origin = (0,17);
target = (0,2);
type = Stem;
},
{
horizontal = 1;
origin = (0,9);
target = (0,11);
type = Stem;
}
);
layerId = "610C2E7D-EDB4-4EC2-BEB5-F0DB9FB0A101";
shapes = (
{
closed = 1;
nodes = (
(499,0,l),
(499,76,l),
(191,76,l),
(191,78,l),
(205,88,o),
(214,101,o),
(233,127,cs),
(503,499,l),
(503,515,l),
(61,515,l),
(61,439,l),
(365,439,l),
(365,437,l),
(352,426,o),
(340,411,o),
(319,382,cs),
(50,16,l),
(50,0,l)
);
}
);
width = 558;
}
);
unicode = 122;
},
{
glyphname = saltillo;
lastChange = "2026-03-03 00:51:57 +0000";
layers = (
{
background = {
shapes = (
{
pos = (17,0);
ref = exclam;
}
);
};
hints = (
{
horizontal = 1;
origin = (0,3);
target = down;
type = TopGhost;
},
{
origin = (0,4);
target = (0,2);
type = Stem;
}
);
layerId = "610C2E7D-EDB4-4EC2-BEB5-F0DB9FB0A101";
shapes = (
{
closed = 1;
nodes = (
(155,276,l),
(179,606,l),
(179,735,l),
(85,735,l),
(85,606,l),
(109,276,l)
);
}
);
width = 264;
},
{
hints = (
{
horizontal = 1;
origin = (0,3);
target = down;
type = TopGhost;
},
{
origin = (0,4);
target = (0,2);
type = Stem;
}
);
layerId = m006;
shapes = (
{
closed = 1;
nodes = (
(205,276,l),
(229,606,l),
(229,735,l),
(82,735,l),
(82,606,l),
(106,276,l)
);
}
);
width = 310;
}
);
unicode = 42892;
},
{
glyphname = a.ss01;
kernLeft = o;
kernRight = u;
lastChange = "2026-03-03 00:58:54 +0000";
layers = (
{
anchors = (
{
name = bottom;
pos = (330,0);
},
{
name = ogonek;
pos = (473,0);
},
{
name = top;
pos = (323,530);
}
);
background = {
shapes = (
{
closed = 1;
nodes = (
(476,-13,o),
(590,101,o),
(590,252,cs),
(590,404,o),
(476,518,o),
(323,518,cs),
(170,518,o),
(56,404,o),
(56,252,cs),
(56,101,o),
(170,-13,o),
(323,-13,cs)
);
},
{
closed = 1;
nodes = (
(242,110,o),
(191,165,o),
(191,252,cs),
(191,340,o),
(242,395,o),
(323,395,cs),
(404,395,o),
(455,340,o),
(455,252,cs),
(455,165,o),
(404,110,o),
(323,110,cs)
);
},
{
closed = 1;
nodes = (
(384,-13,o),
(431,26,o),
(459,85,c),
(459,85,l),
(459,0,l),
(590,0,l),
(590,520,l),
(456,520,l),
(456,438,l),
(456,438,l),
(428,494,o),
(381,531,o),
(291,531,cs),
(148,531,o),
(34,408,o),
(34,258,cs),
(34,108,o),
(148,-13,o),
(291,-13,cs)
);
},
{
closed = 1;
nodes = (
(227,109,o),
(169,180,o),
(169,259,cs),
(169,340,o),
(227,409,o),
(313,409,cs),
(402,409,o),
(459,339,o),
(459,258,cs),
(459,177,o),
(402,109,o),
(313,109,cs)
);
}
);
};
hints = (
{
horizontal = 1;
options = 4;
origin = (0,18);
target = (1,11);
type = TTStem;
},
{
horizontal = 1;
options = 4;
origin = (0,12);
target = (1,5);
type = TTStem;
},
{
horizontal = 1;
options = 4;
origin = (0,2);
target = (1,11);
type = TTStem;
},
{
horizontal = 1;
options = 4;
origin = (0,9);
target = (1,5);
type = TTStem;
},
{
horizontal = 1;
options = 4;
origin = (0,4);
target = (0,5);
type = TTShift;
},
{
horizontal = 1;
options = 4;
origin = (0,7);
target = (0,6);
type = TTShift;
},
{
horizontal = 1;
origin = (0,18);
target = (1,11);
type = Stem;
},
{
horizontal = 1;
origin = (1,5);
target = (0,12);
type = Stem;
},
{
horizontal = 1;
origin = (0,5);
target = up;
type = BottomGhost;
},
{
horizontal = 1;
origin = (0,7);
target = down;
type = TopGhost;
},
{
origin = (0,15);
target = (1,2);
type = Stem;
},
{
origin = (0,6);
target = (0,8);
type = Stem;
},
{
origin = (0,6);
target = (1,8);
type = Stem;
}
);
layerId = m006;
shapes = (
{
closed = 1;
nodes = (
(382,-14,o),
(451,22,o),
(471,78,c),
(478,78,l),
(478,0,l),
(615,0,l),
(615,530,l),
(478,530,l),
(478,450,l),
(471,450,l),
(451,508,o),
(382,544,o),
(307,544,cs),
(150,544,o),
(44,413,o),
(44,265,cs),
(44,118,o),
(150,-14,o),
(307,-14,cs)
);
},
{
closed = 1;
nodes = (
(247,116,o),
(186,180,o),
(186,266,cs),
(186,351,o),
(247,415,o),
(330,415,cs),
(413,415,o),
(473,351,o),
(473,265,cs),
(473,180,o),
(413,116,o),
(330,116,cs)
);
}
);
width = 693;
},
{
anchors = (
{
name = bottom;
pos = (310,0);
},
{
name = ogonek;
pos = (485,0);
},
{
name = top;
pos = (305,515);
}
);
background = {
shapes = (
{
closed = 1;
nodes = (
(364,1187,o),
(430,1221,o),
(449,1274,c),
(455,1274,l),
(455,1200,l),
(590,1200,l),
(590,1705,l),
(455,1705,l),
(455,1629,l),
(449,1629,l),
(430,1684,o),
(364,1718,o),
(296,1718,cs),
(147,1718,o),
(46,1593,o),
(46,1452,cs),
(46,1312,o),
(147,1187,o),
(296,1187,cs)
);
},
{
closed = 1;
nodes = (
(239,1310,o),
(181,1371,o),
(181,1453,cs),
(181,1534,o),
(239,1595,o),
(318,1595,cs),
(397,1595,o),
(455,1534,o),
(455,1452,cs),
(455,1371,o),
(397,1310,o),
(318,1310,cs)
);
},
{
closed = 1;
nodes = (
(1243,490,l),
(1163,490,l),
(1163,396,l),
(1157,396,l),
(1137,452,o),
(1099,503,o),
(1000,503,cs),
(884,503,o),
(804,410,o),
(804,298,cs),
(804,0,l),
(884,0,l),
(884,288,ls),
(884,369,o),
(922,429,o),
(1016,429,cs),
(1109,429,o),
(1163,366,o),
(1163,288,cs),
(1163,0,l),
(1243,0,l)
);
},
{
closed = 1;
nodes = (
(1163,490,l),
(1163,202,ls),
(1163,124,o),
(1109,61,o),
(1016,61,cs),
(922,61,o),
(884,121,o),
(884,202,cs),
(884,490,l),
(804,490,l),
(804,192,ls),
(804,80,o),
(884,-13,o),
(1000,-13,cs),
(1099,-13,o),
(1137,38,o),
(1157,94,c),
(1163,94,l),
(1163,0,l),
(1243,0,l),
(1243,490,l)
);
},
{
closed = 1;
nodes = (
(379,-713,o),
(439,-666,o),
(457,-606,c),
(463,-606,l),
(463,-700,l),
(543,-700,l),
(543,-210,l),
(463,-210,l),
(463,-301,l),
(457,-301,l),
(439,-243,o),
(377,-198,o),
(286,-198,cs),
(146,-198,o),
(41,-304,o),
(41,-456,cs),
(41,-608,o),
(146,-713,o),
(286,-713,cs)
);
},
{
closed = 1;
nodes = (
(187,-639,o),
(121,-560,o),
(121,-455,cs),
(121,-348,o),
(187,-272,o),
(294,-272,cs),
(398,-272,o),
(466,-360,o),
(466,-456,cs),
(466,-558,o),
(398,-639,o),
(294,-639,cs)
);
},
{
closed = 1;
nodes = (
(543,1290,l),
(463,1290,l),
(463,1196,l),
(457,1196,l),
(437,1252,o),
(399,1303,o),
(300,1303,cs),
(184,1303,o),
(104,1210,o),
(104,1098,cs),
(104,800,l),
(184,800,l),
(184,1088,ls),
(184,1169,o),
(222,1229,o),
(316,1229,cs),
(409,1229,o),
(463,1166,o),
(463,1088,cs),
(463,800,l),
(543,800,l)
);
},
{
closed = 1;
nodes = (
(463,1290,l),
(463,1002,ls),
(463,924,o),
(409,861,o),
(316,861,cs),
(222,861,o),
(184,921,o),
(184,1002,cs),
(184,1290,l),
(104,1290,l),
(104,992,ls),
(104,880,o),
(184,787,o),
(300,787,cs),
(399,787,o),
(437,838,o),
(457,894,c),
(463,894,l),
(463,800,l),
(543,800,l),
(543,1290,l)
);
},
{
attr = {
strokeHeight = 74;
strokePos = 1;
strokeWidth = 80;
};
closed = 1;
nodes = (
(187,61,o),
(121,140,o),
(121,245,cs),
(121,352,o),
(187,428,o),
(294,428,cs),
(398,428,o),
(466,340,o),
(466,244,cs),
(466,142,o),
(398,61,o),
(294,61,cs)
);
},
{
closed = 1;
nodes = (
(365,-13,o),
(422,32,o),
(454,94,c),
(460,94,l),
(460,0,l),
(540,0,l),
(540,740,l),
(460,740,l),
(460,399,l),
(453,399,l),
(424,457,o),
(364,503,o),
(283,503,cs),
(140,503,o),
(38,397,o),
(38,244,cs),
(38,92,o),
(140,-13,o),
(283,-13,cs)
);
},
{
closed = 1;
nodes = (
(181,61,o),
(118,140,o),
(118,245,cs),
(118,353,o),
(181,429,o),
(291,429,cs),
(395,429,o),
(461,350,o),
(461,244,cs),
(461,142,o),
(395,61,o),
(291,61,cs)
);
}
);
};
hints = (
{
horizontal = 1;
options = 4;
origin = (0,18);
target = (1,11);
type = TTStem;
},
{
horizontal = 1;
options = 4;
origin = (0,12);
target = (1,5);
type = TTStem;
},
{
horizontal = 1;
options = 4;
origin = (0,5);
type = TTSnap;
},
{
horizontal = 1;
options = 4;
origin = (0,7);
type = TTSnap;
},
{
horizontal = 1;
origin = (0,18);
target = (1,11);
type = Stem;
},
{
horizontal = 1;
origin = (1,5);
target = (0,12);
type = Stem;
},
{
horizontal = 1;
origin = (0,5);
target = up;
type = BottomGhost;
},
{
horizontal = 1;
origin = (0,7);
target = down;
type = TopGhost;
},
{
origin = (0,15);
target = (1,2);
type = Stem;
},
{
origin = (0,6);
target = (0,8);
type = Stem;
},
{
origin = (0,6);
target = (1,8);
type = Stem;
}
);
layerId = "610C2E7D-EDB4-4EC2-BEB5-F0DB9FB0A101";
shapes = (
{
closed = 1;
nodes = (
(394,-14,o),
(447,34,o),
(481,99,c),
(487,99,l),
(487,0,l),
(567,0,l),
(567,515,l),
(487,515,l),
(487,419,l),
(481,419,l),
(447,482,o),
(389,528,o),
(297,528,cs),
(150,528,o),
(40,416,o),
(40,256,cs),
(40,97,o),
(150,-14,o),
(297,-14,cs)
);
},
{
closed = 1;
nodes = (
(193,64,o),
(124,147,o),
(124,257,cs),
(124,370,o),
(193,449,o),
(305,449,cs),
(415,449,o),
(486,357,o),
(486,256,cs),
(486,149,o),
(415,64,o),
(305,64,cs)
);
}
);
width = 647;
}
);
metricLeft = o;
metricRight = "=|n";
},
{
glyphname = ae.ss01;
kernLeft = o;
kernRight = e;
lastChange = "2026-03-03 00:58:59 +0000";
layers = (
{
anchors = (
{
name = bottom;
pos = (528,0);
},
{
name = top;
pos = (528,515);
}
);
background = {
shapes = (
{
pos = (1000,0);
ref = a.ss01;
scale = (-1,1);
}
);
};
hints = (
{
horizontal = 1;
origin = (1,32);
target = (1,6);
type = Stem;
},
{
horizontal = 1;
origin = (1,20);
target = (1,18);
type = Stem;
},
{
horizontal = 1;
origin = (1,13);
target = (1,26);
type = Stem;
},
{
origin = (2,4);
target = (0,9,0,20);
type = Stem;
},
{
origin = (0,16,0,18);
target = (1,23);
type = Stem;
},
{
origin = (2,4);
target = (0,13,0,18);
type = Stem;
}
);
layerId = "610C2E7D-EDB4-4EC2-BEB5-F0DB9FB0A101";
shapes = (
{
ref = a.ss01;
},
{
closed = 1;
nodes = (
(837,-14,o),
(914,20,o),
(962,84,c),
(902,135,l),
(865,85,o),
(817,64,o),
(746,64,cs),
(663,64,o),
(568,135,o),
(566,245,c),
(566,257,l),
(565,380,o),
(663,450,o),
(741,450,cs),
(853,450,o),
(911,370,o),
(907,257,c),
(937,298,l),
(523,298,l),
(523,225,l),
(989,225,l),
(991,234,o),
(991,248,o),
(991,258,cs),
(991,417,o),
(898,528,o),
(743,528,cs),
(621,528,o),
(532,412,o),
(532,258,cs),
(532,101,o),
(618,-14,o),
(744,-14,cs)
);
},
{
closed = 1;
nodes = (
(504,99,l),
(579,99,l),
(549,264,l),
(579,419,l),
(504,419,l)
);
}
);
width = 1030;
},
{
anchors = (
{
name = bottom;
pos = (542,0);
},
{
name = top;
pos = (542,530);
}
);
background = {
shapes = (
{
pos = (1037,0);
ref = a.ss01;
scale = (-1,1);
}
);
};
hints = (
{
horizontal = 1;
origin = (1,32);
target = (1,6);
type = Stem;
},
{
horizontal = 1;
origin = (1,20);
target = (1,18);
type = Stem;
},
{
horizontal = 1;
origin = (1,13);
target = (1,26);
type = Stem;
},
{
origin = (2,4);
target = (0,9,0,20);
type = Stem;
},
{
origin = (2,4);
target = (0,13,0,18);
type = Stem;
}
);
layerId = m006;
shapes = (
{
ref = a.ss01;
},
{
closed = 1;
nodes = (
(874,-14,o),
(957,27,o),
(1002,79,c),
(908,173,l),
(881,135,o),
(820,112,o),
(768,112,cs),
(714,112,o),
(623,158,o),
(615,251,c),
(614,273,l),
(610,400,o),
(714,429,o),
(755,429,cs),
(839,429,o),
(886,375,o),
(883,278,c),
(925,332,l),
(558,332,l),
(558,227,l),
(1022,227,l),
(1025,236,o),
(1026,257,o),
(1026,275,cs),
(1026,437,o),
(923,544,o),
(796,544,cs),
(636,544,o),
(582,440,o),
(582,261,cs),
(582,104,o),
(632,-14,o),
(775,-14,cs)
);
},
{
closed = 1;
nodes = (
(482,78,l),
(634,78,l),
(582,275,l),
(634,450,l),
(482,450,l)
);
}
);
width = 1070;
}
);
metricLeft = a.ss01;
metricRight = e;
},
{
glyphname = y.ss06;
kernLeft = y;
kernRight = v;
lastChange = "2026-03-03 00:51:57 +0000";
layers = (
{
anchors = (
{
name = bottom;
pos = (425,0);
},
{
name = ogonek;
pos = (146,-224);
},
{
name = top;
pos = (271,515);
},
{
name = top_hook;
pos = (272,450);
}
);
background = {
shapes = (
{
closed = 1;
nodes = (
(150,-220,o),
(217,-202,o),
(271,-73,cs),
(509,490,l),
(418,490,l),
(298,174,ls),
(287,145,o),
(268,95,o),
(260,59,c),
(253,59,l),
(245,95,o),
(223,146,o),
(212,174,cs),
(91,490,l),
(0,490,l),
(207,-7,l),
(187,-57,ls),
(157,-131,o),
(126,-144,o),
(68,-144,cs),
(59,-144,o),
(26,-144,o),
(4,-144,c),
(4,-220,l),
(26,-220,o),
(68,-220,o),
(79,-220,cs)
);
},
{
closed = 1;
nodes = (
(130,-185,l),
(205,-216,l),
(507,490,l),
(433,521,l)
);
}
);
};
hints = (
{
horizontal = 1;
origin = (0,26);
target = (0,22);
type = Stem;
},
{
horizontal = 1;
origin = (0,14);
target = down;
type = TopGhost;
}
);
layerId = "610C2E7D-EDB4-4EC2-BEB5-F0DB9FB0A101";
shapes = (
{
closed = 1;
nodes = (
(158,-231,o),
(224,-209,o),
(281,-73,cs),
(534,515,l),
(439,515,l),
(306,194,ls),
(293,164,o),
(274,111,o),
(266,74,c),
(258,74,l),
(250,111,o),
(228,165,o),
(216,194,cs),
(96,515,l),
(0,515,l),
(217,-7,l),
(195,-59,ls),
(162,-136,o),
(132,-151,o),
(71,-151,cs),
(62,-151,o),
(23,-151,o),
(0,-151,c),
(0,-231,l),
(23,-231,o),
(62,-231,o),
(83,-231,cs)
);
}
);
width = 534;
},
{
anchors = (
{
name = bottom;
pos = (464,0);
},
{
name = ogonek;
pos = (185,-224);
},
{
name = top;
pos = (310,530);
},
{
name = top_hook;
pos = (311,466);
}
);
background = {
shapes = (
{
closed = 1;
nodes = (
(133,-208,l),
(257,-257,l),
(569,505,l),
(441,552,l)
);
}
);
};
hints = (
{
horizontal = 1;
origin = (0,26);
target = (0,22);
type = Stem;
},
{
horizontal = 1;
origin = (0,14);
target = down;
type = TopGhost;
}
);
layerId = m006;
shapes = (
{
closed = 1;
nodes = (
(215,-231,o),
(298,-191,o),
(359,-46,cs),
(603,530,l),
(438,530,l),
(339,228,ls),
(332,206,o),
(319,169,o),
(314,137,c),
(309,137,l),
(303,169,o),
(291,206,o),
(283,228,cs),
(185,530,l),
(17,530,l),
(231,6,l),
(217,-25,ls),
(186,-99,o),
(138,-100,o),
(83,-100,cs),
(58,-100,o),
(41,-100,o),
(17,-100,c),
(17,-231,l),
(41,-231,o),
(69,-231,o),
(94,-231,cs)
);
}
);
width = 619;
}
);
},
{
glyphname = c.ss10;
kernLeft = o;
kernRight = c.ss10;
lastChange = "2026-03-03 00:51:57 +0000";
layers = (
{
anchors = (
{
name = bottom;
pos = (292,0);
},
{
name = ogonek;
pos = (389,0);
},
{
name = top;
pos = (292,515);
}
);
background = {
shapes = (
{
closed = 1;
nodes = (
(362,-14,o),
(401,-6,o),
(435,8,c),
(440,152,l),
(410,123,o),
(371,109,o),
(321,109,cs),
(233,109,o),
(177,165,o),
(177,254,cs),
(177,341,o),
(233,395,o),
(321,395,cs),
(371,395,o),
(414,377,o),
(435,359,c),
(435,496,l),
(401,510,o),
(362,518,o),
(321,518,cs),
(157,518,o),
(42,418,o),
(42,254,cs),
(42,89,o),
(157,-14,o),
(321,-14,cs)
);
}
);
};
hints = (
{
horizontal = 1;
origin = (0,25);
target = (0,6);
type = Stem;
},
{
horizontal = 1;
origin = (0,12);
target = (0,19);
type = Stem;
},
{
origin = (0,22);
target = (0,9);
type = Stem;
}
);
layerId = "610C2E7D-EDB4-4EC2-BEB5-F0DB9FB0A101";
shapes = (
{
closed = 1;
nodes = (
(355,-14,o),
(389,-5,o),
(418,8,c),
(425,98,l),
(397,79,o),
(360,68,o),
(320,68,cs),
(199,68,o),
(124,147,o),
(124,257,cs),
(124,365,o),
(195,445,o),
(316,445,cs),
(355,445,o),
(381,442,o),
(423,421,c),
(423,509,l),
(398,518,o),
(360,528,o),
(313,528,cs),
(149,528,o),
(40,403,o),
(40,257,cs),
(40,110,o),
(151,-14,o),
(316,-14,cs)
);
}
);
width = 447;
},
{
anchors = (
{
name = bottom;
pos = (316,0);
},
{
name = ogonek;
pos = (430,0);
},
{
name = top;
pos = (316,530);
}
);
background = {
shapes = (
{
closed = 1;
nodes = (
(413,-13,o),
(480,25,o),
(529,88,c),
(427,168,l),
(404,137,o),
(367,110,o),
(318,110,cs),
(234,110,o),
(177,167,o),
(177,254,cs),
(177,340,o),
(232,395,o),
(315,395,cs),
(372,395,o),
(411,367,o),
(428,334,c),
(529,414,l),
(481,481,o),
(404,519,o),
(303,518,cs),
(141,516,o),
(42,398,o),
(42,254,cs),
(42,111,o),
(144,-13,o),
(306,-13,cs)
);
}
);
};
hints = (
{
horizontal = 1;
origin = (0,25);
target = (0,6);
type = Stem;
},
{
horizontal = 1;
origin = (0,12);
target = (0,19);
type = Stem;
},
{
origin = (0,22);
target = (0,9);
type = Stem;
}
);
layerId = m006;
shapes = (
{
closed = 1;
nodes = (
(380,-15,o),
(421,-6,o),
(457,8,c),
(461,154,l),
(430,133,o),
(389,119,o),
(337,119,cs),
(266,119,o),
(186,173,o),
(186,267,cs),
(186,358,o),
(266,411,o),
(337,411,cs),
(389,411,o),
(435,392,o),
(457,373,c),
(457,521,l),
(421,536,o),
(380,544,o),
(337,544,cs),
(165,544,o),
(44,439,o),
(44,267,cs),
(44,93,o),
(165,-15,o),
(337,-15,cs)
);
}
);
width = 499;
}
);
metricLeft = o;
},
{
glyphname = jdotless.ss10;
kernLeft = j;
kernRight = j;
lastChange = "2026-03-03 01:05:22 +0000";
layers = (
{
anchors = (
{
name = bottom;
pos = (149,-230);
},
{
name = ogonek;
pos = (164,-230);
},
{
name = top;
pos = (149,530);
}
);
hints = (
{
horizontal = 1;
origin = (0,3);
target = up;
type = BottomGhost;
},
{
horizontal = 1;
origin = (0,2);
target = down;
type = TopGhost;
},
{
origin = (0,3);
target = (0,1);
type = Stem;
}
);
layerId = m006;
shapes = (
{
closed = 1;
nodes = (
(219,-230,l),
(219,530,l),
(78,530,l),
(78,-230,l)
);
}
);
width = 297;
},
{
anchors = (
{
name = bottom;
pos = (120,-230);
},
{
name = ogonek;
pos = (134,-230);
},
{
name = top;
pos = (122,515);
}
);
hints = (
{
horizontal = 1;
origin = (0,3);
target = up;
type = BottomGhost;
},
{
horizontal = 1;
origin = (0,2);
target = down;
type = TopGhost;
},
{
origin = (0,3);
target = (0,1);
type = Stem;
}
);
layerId = "610C2E7D-EDB4-4EC2-BEB5-F0DB9FB0A101";
shapes = (
{
closed = 1;
nodes = (
(164,-230,l),
(164,515,l),
(80,515,l),
(80,-230,l)
);
}
);
width = 243;
}
);
},
{
glyphname = eng.ss10;
kernLeft = n;
kernRight = n;
lastChange = "2026-03-03 01:08:01 +0000";
layers = (
{
hints = (
{
horizontal = 1;
options = 4;
type = TTSnap;
},
{
horizontal = 1;
options = 4;
place = (503,-74);
type = TTStem;
},
{
horizontal = 1;
options = 4;
type = TTSnap;
},
{
horizontal = 1;
options = 4;
place = (0,0);
type = TTShift;
},
{
horizontal = 1;
origin = (0,9);
target = up;
type = BottomGhost;
},
{
horizontal = 1;
origin = (0,20);
target = up;
type = BottomGhost;
},
{
horizontal = 1;
origin = (0,4);
target = (0,13);
type = Stem;
},
{
horizontal = 1;
origin = (0,19);
target = down;
type = TopGhost;
},
{
origin = (0,20);
target = (0,1);
type = Stem;
},
{
origin = (0,8);
target = (0,10);
type = Stem;
}
);
layerId = "610C2E7D-EDB4-4EC2-BEB5-F0DB9FB0A101";
shapes = (
{
closed = 1;
nodes = (
(164,0,l),
(164,311,ls),
(164,397,o),
(221,450,o),
(313,450,cs),
(388,450,o),
(437,397,o),
(437,311,cs),
(437,-230,l),
(521,-230,l),
(521,330,ls),
(521,453,o),
(441,528,o),
(325,528,cs),
(240,528,o),
(194,486,o),
(166,437,c),
(159,437,l),
(159,515,l),
(80,515,l),
(80,0,l)
);
}
);
width = 595;
},
{
hints = (
{
horizontal = 1;
options = 4;
origin = (0,20);
target = (0,8);
type = TTShift;
},
{
horizontal = 1;
origin = (0,9);
target = up;
type = BottomGhost;
},
{
horizontal = 1;
origin = (0,20);
target = up;
type = BottomGhost;
},
{
horizontal = 1;
origin = (0,13);
target = (0,4);
type = Stem;
},
{
horizontal = 1;
origin = (0,19);
target = (0,4);
type = Stem;
},
{
origin = (0,20);
target = (0,1);
type = Stem;
},
{
origin = (0,8);
target = (0,10);
type = Stem;
}
);
layerId = m006;
shapes = (
{
closed = 1;
nodes = (
(219,0,l),
(219,305,ls),
(219,375,o),
(259,419,o),
(322,419,cs),
(388,419,o),
(429,375,o),
(429,305,cs),
(429,-230,l),
(571,-230,l),
(571,339,ls),
(571,456,o),
(481,543,o),
(379,543,cs),
(299,543,o),
(246,501,o),
(221,462,c),
(215,462,l),
(215,530,l),
(78,530,l),
(78,0,l)
);
}
);
width = 642;
}
);
},
